<?xml version="1.0" encoding="utf-8"?>
<!-- Generator: Adobe Illustrator 22.0.1, SVG Export Plug-In . SVG Version: 6.00 Build 0)  -->
<svg version="1.1" id="Layer_1" xmlns="http://www.w3.org/2000/svg" xmlns:xlink="http://www.w3.org/1999/xlink" x="0px" y="0px"
	 viewBox="0 0 323.1 285.6" style="enable-background:new 0 0 323.1 285.6;" xml:space="preserve">
<style type="text/css">
	.st0{fill:#EBEBEB;}
	.st1{fill:#FC5A1A;}
	.st2{opacity:0.1;}
	.st3{fill:#FFFFFF;}
	.st4{fill:#263238;}
	.st5{fill:#E8E8E8;}
	.st6{fill:#455A64;}
	.st7{fill:#F9F9F9;}
</style>
<g>
	
		<ellipse transform="matrix(5.628043e-02 -0.9984 0.9984 5.628043e-02 -84.6934 376.3123)" class="st0" cx="156.7" cy="233" rx="38.2" ry="134.2"/>
</g>
<path class="st1" d="M126.3,15.7c-1.2,1.7-28.7,52.6-29.6,58.4c-1,5.8-39.3,145.7-37,149.9c2.2,4.2,61.9,27.7,64.5,27.7
	c2.6,0,121.3-26.4,127.5-30.8c6.2-4.4,8.7-113.6,6.3-124.8c-2.4-11.2-9.5-31.4-9.5-31.4l4.4-6.1c0,0-12.2-51.4-14.5-49.7
	C236,10.6,128.8,12.1,126.3,15.7z"/>
<path class="st2" d="M248.4,64.6c-9.1,1.4-18.2,2.3-27.3,3.2c-9.1,0.9-18.2,1.6-27.4,2.3c-9.1,0.7-18.3,1.2-27.4,1.6
	c-9.1,0.5-18.3,0.7-27.5,1l-0.1,0l0,0c-1.3-0.2-1.8-1.1-2.2-1.7c-0.4-0.7-0.7-1.4-0.9-2.1c-0.4-1.4-0.7-2.7-1-4.1
	c-0.5-2.8-0.8-5.5-0.9-8.3c0.5,2.7,1.1,5.4,1.8,8.1c0.4,1.3,0.8,2.6,1.3,3.8c0.4,1.2,1.4,2.5,1.9,2.5l-0.1,0
	c9.1-0.8,18.2-1.8,27.4-2.4c9.1-0.7,18.3-1.3,27.4-1.8c9.1-0.5,18.3-1,27.4-1.3C230.1,65,239.2,64.8,248.4,64.6z"/>
<polygon class="st3" points="219,85.2 202,85.4 191,51.8 208,51.6 "/>
<g class="st2">
	<path d="M124.6,27.6c-2.1,15.4-4.6,30.7-7.1,46c-2.5,15.3-5.3,30.6-8,45.8c-2.9,15.2-5.7,30.5-8.8,45.7l-4.7,22.8
		c-1.7,7.6-3.2,15.2-5,22.7c1-7.7,2.2-15.4,3.4-23l3.7-23c2.5-15.3,5.3-30.6,8-45.8c2.9-15.2,5.7-30.5,8.8-45.7
		C118,57.9,121.1,42.7,124.6,27.6z"/>
	<path d="M64.6,221.6c8.4-4.6,17.1-8.7,25.9-12.5l1.1-0.5l0.8,0.9c4.8,5.4,9.5,10.9,14,16.6c4.5,5.6,8.9,11.4,13,17.4
		c-5.3-5-10.4-10.2-15.3-15.5c-4.9-5.3-9.6-10.8-14.3-16.4l1.9,0.5C82.8,215.6,73.8,218.9,64.6,221.6z"/>
</g>
<path class="st3" d="M178.6,136.2l-7.1-9.7c-0.5-0.6-0.9-1.3-1.4-1.9c-0.9-1.3-1.9-2.6-2.8-3.9c-1.5-2.1-3.8-2-5.8,0.2
	c-3.8,4.3-7.6,8.8-11.3,13.1c-1.8,2.2-3.7,4.4-5.6,6.6l-6,7c-0.3,0.3-0.6,0.6-0.9,1c-1.1,1.2-2.3,2.5-2.9,4.1
	c-0.7,1.9-0.5,4.3,1.1,5.4c1,0.6,2.1,0.4,3.2,0.2c0.4-0.1,0.7-0.1,1.1-0.2c0.2-0.1,0.4-0.1,0.5-0.1c0,0,0,0,0,0.1
	c0,0.4-0.1,0.9-0.3,1.4c-0.1,0.3-0.1,0.5-0.2,0.8l-3.4,17.9l-0.1,0.3c-0.4,2.1-1,5,1.2,6.2c1.1,0.6,2.4,0.2,3.7-0.1
	c0.3-0.1,0.6-0.1,0.8-0.2l14.9-2.9c1-0.2,2-0.4,3-0.5c1-0.2,2-0.3,3.1-0.5c1-0.2,2.1-0.4,3.1-0.7c2-0.5,3.4-2.3,4.1-4.8
	c0.3-1.1-0.1-2.1-1-2.4c-0.9-0.3-2.1,0.3-2.4,1.7c-0.2,0.9-0.8,1.1-1.8,1.3l-20.1,3.9c-0.6,0.1-1.2,0.3-1.7,0.4
	c-1.1,0.3-2.3,0.6-3.4,0.6c-0.1,0-0.2,0-0.2,0c0-0.2,0.1-0.6,0.2-0.9c0.1-0.2,0.1-0.4,0.1-0.5l3.1-16.6c0.1-0.5,0.2-0.9,0.3-1.4
	c0.2-1,0.4-1.9,0.5-2.9c0.3-2.1-0.5-4.4-2.5-4.6c-0.8-0.1-1.6,0.1-2.4,0.3c-0.3,0.1-0.6,0.1-0.8,0.2c0,0-0.1,0-0.2,0
	c0,0-0.1,0-0.1,0c0.1-0.1,0.1-0.2,0.2-0.4c0.2-0.3,0.5-0.6,0.8-0.9c0.1-0.2,0.3-0.3,0.4-0.5l22.1-25.6c0.1-0.1,0.3-0.3,0.5-0.6
	c1.2-1.6,2-2.5,2.3-2.6c0.1,0.1,0.4,0.5,0.5,0.7c0.1,0.1,0.2,0.2,0.2,0.3l10.7,14.7c0.4,0.6,1.1,0.8,1.7,0.6
	c0.7-0.2,1.3-0.8,1.5-1.6C179.1,137.4,179,136.7,178.6,136.2z"/>
<g>
	<path class="st4" d="M170.9,140c-3.6,0.5-6.8,2.5-9.2,5.7c-2.3,3.2-3.6,7.2-3.6,11.5c0,9,5.4,14.8,12.8,13.8
		c4.6-0.6,8.6-3.7,10.7-8.3l0.6-1.4l-4.1-2.4l-0.6,1.4c-1.2,2.7-3.6,4.6-6.6,5c-4,0.5-7-1.8-7.9-6l19.8-2.7l0-1.5c0-0.2,0-0.4,0-0.6
		c0-0.2,0-0.5,0-0.7C183,146.4,178.8,139,170.9,140z M163.1,153.9c0.9-4.5,3.8-7.8,7.7-8.3c3.1-0.4,6.3,1.4,7.2,6.2L163.1,153.9z"/>
	<path class="st4" d="M205.3,139.2c-2.2-2.2-5.1-3.2-8.3-2.7c-7.1,1-12.7,8.5-12.7,17.2c0,8.7,5.5,14.8,12.7,13.8
		c3.2-0.4,6.1-2.2,8.3-5l0,3.2l4.7-0.6l0.1-29.9l-4.7,0.6L205.3,139.2z M197.1,161.9c-4.6,0.6-8.2-3.3-8.1-8.8
		c0-5.6,3.6-10.4,8.2-11.1c4.6-0.6,8.1,3.3,8.1,8.9C205.2,156.5,201.6,161.3,197.1,161.9z"/>
	<path class="st4" d="M221.6,125.7l-4.7,2.3l0,6.3L212,135l0,5.6l4.9-0.7l0,16c0,3,0.7,5.2,2.1,6.4c1.2,1.1,2.9,1.5,5.1,1.2
		c0.9-0.1,2-0.4,3.1-0.7l1-0.3l0-5.3l-1.3,0.3c-2.1,0.5-4.1,0.9-4.7,0.3c-0.3-0.3-0.5-1.2-0.5-2.4l0-16l6.6-0.9l0-5.6l-6.6,0.9
		L221.6,125.7z"/>
	<path class="st4" d="M241.1,130.5c-7.2,1-12.9,8.6-12.9,17.3c0,8.7,5.6,14.7,12.8,13.8c7.2-1,12.9-8.6,12.9-17.3
		C253.9,135.5,248.3,129.5,241.1,130.5z M241,156c-4.6,0.6-8.2-3.3-8.1-8.8c0-5.6,3.6-10.4,8.2-11.1c4.6-0.6,8.1,3.3,8.1,8.9
		C249.1,150.5,245.6,155.3,241,156z"/>
</g>
<path class="st3" d="M134,169.8l-3.7,0.7l-0.4,4.8l4.3-0.8c1.2-0.2,1.8-1.6,1.8-2.7C136,170.6,135.3,169.6,134,169.8z"/>
<path class="st3" d="M133.2,157.3l-2,0.4l-0.4,4.8l2.6-0.5c1.2-0.2,1.8-1.6,1.8-2.7C135.2,158.2,134.5,157.1,133.2,157.3z"/>
<path class="st5" d="M130.3,170.3c-1.7-0.3-3.4-0.6-5-0.9c-3.1-0.6-4.5,4.2-1.3,4.8c2,0.4,4,0.8,6,1.1L130.3,170.3z"/>
<path class="st5" d="M131.2,157.7c-4.3-0.8-8.6-1.6-12.9-2.4c-3.1-0.6-4.5,4.2-1.3,4.8c4.6,0.9,9.2,1.7,13.8,2.6L131.2,157.7z"/>
<g>
	<circle class="st6" cx="92.1" cy="80.1" r="62"/>
	<polygon class="st7" points="78.7,73.8 70,73.8 70,65.1 64.4,65.1 64.4,73.8 55.8,73.8 55.8,79.4 64.4,79.4 64.4,88 70,88 70,79.4 
		78.7,79.4 	"/>
	<circle class="st7" cx="96.2" cy="66.9" r="11.7"/>
	<path class="st7" d="M119.6,102.5H72.3v0c0-9.8,8-17.8,17.8-17.8h11.7C111.6,84.7,119.6,92.7,119.6,102.5L119.6,102.5z"/>
</g>
</svg>
