<?xml version="1.0" encoding="utf-8"?>
<!-- Generator: Adobe Illustrator 22.0.1, SVG Export Plug-In . SVG Version: 6.00 Build 0)  -->
<svg version="1.1" id="Layer_1" xmlns="http://www.w3.org/2000/svg" xmlns:xlink="http://www.w3.org/1999/xlink" x="0px" y="0px"
	 viewBox="0 0 964 350" style="enable-background:new 0 0 964 350;" xml:space="preserve">
<style type="text/css">
	.st0{fill:#FC5A1A;}
</style>
<g>
	<g>
		<path class="st0" d="M449.8,116.1c-14.8-20.3-29.5-40.7-44.3-61C396.7,43,388,30.8,379.1,18.7c-9-12.3-22.6-13.1-34.8-4.3
			c-40.8,29.3-80.6,60.3-120.9,90.4c-14.4,10.8-28.8,21.5-43.1,32.3c-8.6,6.4-21.1,13.4-26.5,23c-5,8.9-4.1,20.7,4.5,27
			c6.6,4.8,15.7,3.6,23.4,3.6c4.7,0,10.1-1.9,10,3.3c0,3.7-2.7,8.8-3.8,12.4c-9.7,31.7-19.4,63.4-29.1,95.1
			c-3.5,11.5-8.5,25.5,4.4,33.5c7.8,4.8,20,3,28.8,3c33.9,0,67.7,0,101.6,0c20.7,0,41.6,1.1,62.3,0c12.8-0.7,22.2-8.9,26.7-20.4
			c4.4-11-13.4-15.8-17.7-4.9c-3,7.6-10.1,6.9-16.7,6.9c-8.2,0-16.4,0-24.6,0c-7,0-13.9,0-20.9,0c-30,0-59.9,0-89.9,0
			c-11.6,0-24.1,1.3-35.6,0c-2.8-0.3-3.3,1-4-2.3c-0.4-2.1,2-6.6,2.6-8.6c9-29.4,18-58.7,26.9-88.1c2.3-7.6,5.1-15.2,7-22.9
			c2.6-10.7-1.9-21.9-13.3-24.7c-6.8-1.7-14.8-0.6-21.7-0.6c-0.9,0-5.4,0.5-6-0.2c-1.2-1.6,2.7-5.5,3.6-6.5c2.6-2.5,6.1-4.5,9-6.7
			c12.7-9.5,25.4-19,38-28.4c39.8-29.8,79.6-59.5,119.4-89.3c3.1-2.3,17.6-16.3,22.4-15c1.6,0.5,4.4,5.4,5.7,7.2
			c4.2,5.8,8.4,11.5,12.6,17.3c14.4,19.8,28.8,39.6,43.2,59.5c3.7,5.1,7.4,10.2,11.1,15.3C440.8,134.9,456.8,125.7,449.8,116.1
			L449.8,116.1z"/>
	</g>
</g>
<g>
	<path d="M402.7,129.3c-23.8,0-45.4,8.8-60.9,24.7c-15.2,15.6-23.6,37.1-23.6,60.4c0,49.3,36,85.1,85.7,85.1
		c30.5,0,57.2-13.9,71.3-37.3l4.3-7.1l-27.3-16.2l-4.1,7.4c-7.7,14.1-24.1,22.6-43.8,22.6c-26.7,0-46.6-14.9-52.7-38.8h131.9v-8.2
		c0-1,0.1-2,0.1-3c0.1-1.3,0.2-2.7,0.2-4C483.7,173.5,455.3,129.3,402.7,129.3z M351.3,199.5c5.8-24.1,25.5-39.7,51.4-39.7
		c20.3,0,41.9,12.3,48,39.7H351.3z"/>
	<path d="M631.5,150.4c-14.5-13.6-33.7-21.1-55.2-21.1c-47.4,0-84.5,37.4-84.5,85.1s37.1,85.1,84.5,85.1c21.5,0,40.7-7.5,55.2-21.1
		v17.8h31.4V132.6h-31.4V150.4z M577.5,269c-30.5,0-54.3-24-54.3-54.6s23.9-54.6,54.3-54.6c30.3,0,54,24,54,54.6
		C631.5,245.1,607.8,269,577.5,269z"/>
	<path d="M739.8,88.6l-31.4,9.2v34.8H676v30.8h32.4V251c0,16.5,4.6,28.8,13.8,36.7c8,6.9,19,10.3,33.9,10.3c6.2,0,13.1-0.6,20.7-1.7
		l6.9-1.1V266l-8.9,0.8c-14.1,1.2-27.2,2-31.6-2c-2.3-2.1-3.4-6.7-3.4-13.7v-87.6h43.9v-30.8h-43.9L739.8,88.6L739.8,88.6z"/>
	<path d="M869.6,129.3c-48.1,0-85.7,37.4-85.7,85.1s37.6,85.1,85.7,85.1c47.9,0,85.4-37.4,85.4-85.1S917.5,129.3,869.6,129.3z
		 M869.6,269c-30.5,0-54.3-24-54.3-54.6s23.9-54.6,54.3-54.6c30.3,0,54,24,54,54.6C923.6,245.1,899.9,269,869.6,269z"/>
</g>
<g>
	<g>
		<path class="st0" d="M16.5,206.2c40.9,0,81.7,0,122.6,0c13.1,0,13.2-20.4,0-20.4c-40.9,0-81.7,0-122.6,0
			C3.3,185.8,3.3,206.2,16.5,206.2L16.5,206.2z"/>
	</g>
</g>
<g>
	<g>
		<path class="st0" d="M68.6,275.7c23.8,0,47.7,0,71.5,0c13.1,0,13.2-20.4,0-20.4c-23.8,0-47.7,0-71.5,0
			C55.4,255.3,55.4,275.7,68.6,275.7L68.6,275.7z"/>
	</g>
</g>
</svg>
