<?xml version="1.0" encoding="utf-8"?>
<!-- Generator: Adobe Illustrator 22.0.1, SVG Export Plug-In . SVG Version: 6.00 Build 0)  -->
<svg version="1.1" id="Layer_1" xmlns="http://www.w3.org/2000/svg" xmlns:xlink="http://www.w3.org/1999/xlink" x="0px" y="0px"
	 viewBox="0 0 502.9 454" style="enable-background:new 0 0 502.9 454;" xml:space="preserve">
<style type="text/css">
	.st0{fill:#EBEBEB;}
	.st1{fill:#AD6359;}
	.st2{fill:#FC5A1A;}
	.st3{fill:#263238;}
	.st4{fill:#455A64;}
	.st5{opacity:0.1;enable-background:new    ;}
	.st6{opacity:0.1;fill:#FC5A1A;enable-background:new    ;}
	.st7{fill:none;}
	.st8{fill:#FFFFFF;}
	.st9{opacity:0.1;}
	.st10{fill:#FF9ABB;}
	.st11{opacity:0.36;fill:#FFFFFF;enable-background:new    ;}
	.st12{fill:#37474F;}
	.st13{fill:#C7C7C7;}
	.st14{fill:#FFC727;}
	.st15{fill:#DBDBDB;}
</style>
<g>
	<path class="st0" d="M380.4,309l13.4-0.3l6.6-0.1c2.2,0,4.4,0,6.5-0.1l-0.4,0.4l-0.1-11.2l0.5,0.5l-13.2-0.1
		c-4.4,0-8.8-0.1-13.2-0.2l0.3-0.3c0,1.8-0.1,3.7-0.1,5.5L380.4,309z M380.4,309l-0.1-5.5c0-1.9-0.1-3.8-0.1-5.7v-0.3h0.3
		c4.4-0.1,8.8-0.2,13.2-0.2l13.2-0.1h0.5v0.5l-0.1,11.2v0.4h-0.4c-2.2,0-4.5,0-6.7-0.1l-6.7-0.1L380.4,309z"/>
	<path class="st0" d="M395.2,323.1l13.4-0.3l6.6-0.1c2.2,0,4.4,0,6.5-0.1l-0.4,0.4l-0.1-11.2l0.5,0.5l-13.2-0.1
		c-4.4,0-8.8-0.1-13.2-0.2l0.3-0.3c0,1.8-0.1,3.7-0.1,5.5L395.2,323.1z M395.2,323.1l-0.1-5.5c0-1.9-0.1-3.8-0.1-5.7v-0.3h0.3
		c4.4-0.1,8.8-0.2,13.2-0.2l13.2-0.1h0.5v0.5l-0.1,11.2v0.4h-0.4c-2.2,0-4.5,0-6.7-0.1l-6.7-0.1L395.2,323.1z"/>
	<path class="st0" d="M365.6,323.1l13.4-0.3l6.6-0.1c2.2,0,4.4,0,6.5-0.1l-0.4,0.4l-0.1-11.2l0.5,0.5l-13.2-0.1
		c-4.4,0-8.8-0.1-13.2-0.2l0.3-0.3c0,1.8-0.1,3.7-0.1,5.5L365.6,323.1z M365.6,323.1l-0.1-5.5c0-1.9-0.1-3.8-0.1-5.7v-0.3h0.3
		c4.4-0.1,8.8-0.2,13.2-0.2l13.2-0.1h0.5v0.5l-0.1,11.2v0.4h-0.4c-2.2,0-4.5,0-6.7-0.1l-6.7-0.1L365.6,323.1z"/>
	<path class="st0" d="M24.3,323.1l13.4-0.3l6.6-0.1c2.2,0,4.4,0,6.5-0.1l-0.4,0.4l-0.1-11.2l0.5,0.5l-13.2-0.1
		c-4.4,0-8.8-0.1-13.2-0.2l0.3-0.3c0,1.8-0.1,3.7-0.1,5.5L24.3,323.1z M24.3,323.1l-0.1-5.5c0-1.9-0.1-3.8-0.1-5.7v-0.3h0.3
		c4.4-0.1,8.8-0.2,13.2-0.2l13.2-0.1h0.5v0.5L51.2,323v0.4h-0.4c-2.2,0-4.5,0-6.7-0.1l-6.7-0.1L24.3,323.1z"/>
	<path class="st0" d="M24.3,21.2l13.4-0.3l6.6-0.1c2.2,0,4.4,0,6.5-0.1l-0.4,0.4L50.3,10l0.5,0.5l-13.2-0.1c-4.4,0-8.8-0.1-13.2-0.2
		l0.3-0.3c0,1.8-0.1,3.7-0.1,5.5L24.3,21.2z M24.3,21.2l-0.1-5.5c0-1.9-0.1-3.8-0.1-5.7V9.7h0.3c4.4-0.1,8.8-0.2,13.2-0.2l13.2-0.1
		h0.5v0.5l-0.1,11.2v0.4h-0.4c-2.2,0-4.5,0-6.7-0.1l-6.7-0.1L24.3,21.2z"/>
	<path class="st0" d="M9.6,35.3L22.9,35l6.6-0.1c2.2,0,4.4,0,6.5-0.1l-0.4,0.4L35.5,24l0.5,0.5l-13.2-0.1c-4.4,0-8.8-0.1-13.2-0.2
		l0.3-0.3c0,1.8-0.1,3.7-0.1,5.5L9.6,35.3z M9.6,35.3l-0.1-5.5c0-1.9-0.1-3.8-0.1-5.7v-0.3h0.3c4.4-0.1,8.8-0.2,13.2-0.2l13.2-0.1
		h0.5V24l-0.1,11.2v0.4h-0.4c-2.2,0-4.5,0-6.7-0.1l-6.7-0.1L9.6,35.3z"/>
	<path class="st0" d="M395.2,21.2l13.4-0.3l6.6-0.1c2.2,0,4.4,0,6.5-0.1l-0.4,0.4L421.2,10l0.5,0.5l-13.2-0.1
		c-4.4,0-8.8-0.1-13.2-0.2l0.3-0.3c0,1.8-0.1,3.7-0.1,5.5L395.2,21.2z M395.2,21.2l-0.1-5.5c0-1.9-0.1-3.8-0.1-5.7V9.7h0.3
		c4.4-0.1,8.8-0.2,13.2-0.2l13.2-0.1h0.5v0.5l-0.1,11.2v0.4h-0.4c-2.2,0-4.5,0-6.7-0.1l-6.7-0.1L395.2,21.2z"/>
	<path class="st0" d="M222.4,143.1l-13.4,0.3l-6.6,0.1c-2.2,0-4.4,0-6.5,0.1l0.4-0.4l0.1,11.2l-0.5-0.5l13.2,0.1
		c4.4,0,8.8,0.1,13.2,0.2l-0.3,0.3c0-1.8,0.1-3.7,0.1-5.5L222.4,143.1z M222.4,143.1l0.1,5.5c0,1.9,0.1,3.8,0.1,5.7v0.3h-0.3
		c-4.4,0.1-8.8,0.2-13.2,0.2l-13.2,0.1h-0.5v-0.5l0.1-11.2v-0.4h0.4c2.2,0,4.5,0,6.7,0.1l6.7,0.1L222.4,143.1z"/>
	<path class="st0" d="M207.6,129l-13.4,0.3l-6.6,0.1c-2.2,0-4.4,0-6.5,0.1l0.4-0.4l0.1,11.2l-0.5-0.5l13.2,0.1
		c4.4,0,8.8,0.1,13.2,0.2l-0.3,0.3c0-1.8,0.1-3.7,0.1-5.5L207.6,129z M207.6,129l0.1,5.5c0,1.9,0.1,3.8,0.1,5.7v0.3h-0.3
		c-4.4,0.1-8.8,0.2-13.2,0.2l-13.2,0.1h-0.5v-0.5l0.1-11.2v-0.4h0.4c2.2,0,4.5,0,6.7,0.1l6.7,0.1L207.6,129z"/>
</g>
<g>
	<ellipse class="st0" cx="255.9" cy="419.9" rx="238.6" ry="23.8"/>
</g>
<g>
	<g>
		<g>
			<g>
				<g>
					<path class="st1" d="M181.3,413.9c-2.3,0.7-67.3-0.1-69.7-1.7c-0.9-0.6-1.4-10.1-1.6-21.5c0-0.1,0-0.2,0-0.4
						c0-2.4-0.1-4.8-0.1-7.3c0-0.3,0-0.7,0-1l3.2-33.7l43.5,0.4l-4.3,33.4v1.3l-0.3,6.9v0.7c0,0,24.7,11.5,27.2,13.5
						C181.6,406.6,183.6,413.1,181.3,413.9z"/>
					<path class="st0" d="M181.3,413.9c-2.3,0.7-67.3-0.1-69.7-1.7c-0.9-0.6-1.4-10.1-1.6-21.5c0-0.1,0-0.2,0-0.4
						c0-2.4-0.1-4.8-0.1-7.3c0-0.3,0-0.7,0-1l42.3,0.1v1.3l-0.3,6.9v0.7c0,0,24.7,11.5,27.2,13.5
						C181.6,406.6,183.6,413.1,181.3,413.9z"/>
					<g>
						<path class="st2" d="M181.3,413.8c-1.2,0.4-18.8,0.3-36.1,0c-3.5-0.1-6.9-0.1-10.2-0.2c-12.3-0.3-22.5-0.8-23.4-1.5
							c-0.9-0.6-1.4-9.8-1.6-21.1c0-0.2,0-0.3,0-0.5c0-0.1,0-0.2,0-0.4l0,0l41.9,0.1v0.7c0,0,24.7,11.4,27.2,13.5
							C181.6,406.6,183.6,413.1,181.3,413.8z"/>
						<g>
							<g>
								<path class="st3" d="M180.6,411.3c-11-0.4-55.2-1-66-0.6c-0.1,0-0.1,0.1,0,0.1c10.8,0.6,55.1,0.9,66,0.7
									C180.8,411.5,180.8,411.3,180.6,411.3z"/>
								<path class="st3" d="M156.6,390.5c-4.3-0.9-9.6-0.3-12.9,2.8c-0.1,0.1,0,0.3,0.2,0.3c4.3-1.3,8.3-2.1,12.7-2.5
									C156.9,391,156.9,390.6,156.6,390.5z"/>
								<path class="st3" d="M159.7,392.4c-4.3-0.9-9.6-0.3-12.9,2.8c-0.1,0.1,0,0.3,0.2,0.3c4.3-1.3,8.3-2.1,12.7-2.5
									C160,392.9,160,392.5,159.7,392.4z"/>
								<path class="st3" d="M162.8,394.3c-4.3-0.9-9.6-0.3-12.9,2.8c-0.1,0.1,0,0.3,0.2,0.3c4.3-1.3,8.3-2.1,12.7-2.5
									C163.1,394.8,163.1,394.4,162.8,394.3z"/>
							</g>
						</g>
						<path class="st3" d="M145.2,413.8c-3.5-0.1-6.9-0.1-10.2-0.2c-12.3-0.3-22.5-0.8-23.4-1.5c-0.9-0.6-1.4-9.8-1.6-21.1
							c0-0.2,0-0.3,0-0.5c0-0.1,0-0.2,0-0.4l0,0C115.8,394.3,136,407.7,145.2,413.8z"/>
					</g>
				</g>
				<g>
					<path class="st4" d="M154.5,390.5h-46.8c0,0,9.4-109.3,9.1-111.2c-0.5-2.4-17.9-70.8-21.3-83.8c-5-19.4-9-34.4-9-34.4h39.7
						c0,0,4.6,14.7,10.4,33.7c9.5,31,22.2,73.6,23.4,84C162.1,295.5,154.5,390.5,154.5,390.5z"/>
					<g>
						<g>
							<path class="st3" d="M152.7,382.5c-7.1-0.1-5.1-0.2-12.2-0.3c-3.5,0-26.5-0.2-29.8,0.3c-0.1,0-0.1,0.1,0,0.1
								c3.3,0.5,26.3,0.3,29.8,0.3c7.1-0.1,5.1-0.1,12.2-0.3C152.8,382.7,152.8,382.5,152.7,382.5z"/>
						</g>
						<path class="st3" d="M125.8,272.5c-1.5-6.8-3.8-13.4-5.8-20c-4.1-13.5-8.1-27-12.2-40.5c-2-6.7-4.1-13.5-6.2-20.2
							c-1-3.4-2.1-6.8-3.2-10.2c-1-3.3-2.2-6.6-3.2-10c-0.4-1.4-0.6-0.6-0.1,1.1c1,3.5,2,7,3,10.5c2,6.9,4,13.8,6.1,20.7
							c4.1,13.7,8.2,27.4,12.3,41.1c2.1,6.9,4.1,13.7,6.2,20.6c1,3.3,2,6.6,2.5,10c0.6,3.5,0.6,7.1,0.4,10.7
							c-0.4,7.2-1.3,14.3-1.9,21.5c-0.7,7.2-1.3,14.3-2,21.5c-1.3,14.2-2.6,28.5-3.9,42.8c-0.2,1.8-0.3,3.6-0.5,5.4
							c0,0.6,0.9,0.6,0.9,0c1.5-14.1,2.7-28.2,4-42.3c1.3-14,2.6-28.1,3.9-42.1c0.3-3.5,0.7-7.1,0.7-10.6
							C127,279,126.6,275.7,125.8,272.5z"/>
					</g>
					<path class="st3" d="M121.9,161c-2.4,18.8-5.8,82-6.5,111.6c-4.5-17.9-16.9-66.5-19.7-77.2c-4.6-17.9-8.3-32-8.9-34.2l0,0
						c0-0.1,0-0.1,0-0.2v-0.1L121.9,161L121.9,161z"/>
				</g>
			</g>
			<g>
				<g>
					<path class="st1" d="M132.4,413.9c-2.3,0.7-67.3-0.1-69.7-1.7c-0.9-0.6-1.4-10.1-1.6-21.5c0-0.1,0-0.2,0-0.4
						c0-2.4-0.1-4.8-0.1-7.3c0-0.3,0-0.7,0-1l3.2-33.7l43.5,0.4l-4.3,33.4v1.3l-0.3,6.9v0.7c0,0,24.7,11.5,27.2,13.5
						C132.8,406.6,134.7,413.1,132.4,413.9z"/>
					<path class="st0" d="M132.4,413.9c-2.3,0.7-67.3-0.1-69.7-1.7c-0.9-0.6-1.4-10.1-1.6-21.5c0-0.1,0-0.2,0-0.4
						c0-2.4-0.1-4.8-0.1-7.3c0-0.3,0-0.7,0-1l42.3,0.1v1.3l-0.3,6.9v0.7c0,0,24.7,11.5,27.2,13.5
						C132.8,406.6,134.7,413.1,132.4,413.9z"/>
					<g>
						<path class="st2" d="M132.4,413.8c-1.2,0.4-18.8,0.3-36.1,0c-3.5-0.1-6.9-0.1-10.2-0.2c-12.3-0.3-22.5-0.8-23.4-1.5
							c-0.9-0.6-1.4-9.8-1.6-21.1c0-0.2,0-0.3,0-0.5c0-0.1,0-0.2,0-0.4l0,0l41.9,0.1v0.7c0,0,24.7,11.4,27.2,13.5
							C132.8,406.6,134.7,413.1,132.4,413.8z"/>
						<g>
							<g>
								<path class="st3" d="M131.7,411.3c-11-0.4-55.2-1-66-0.6c-0.1,0-0.1,0.1,0,0.1c10.8,0.6,55.1,0.9,66,0.7
									C131.9,411.5,131.9,411.3,131.7,411.3z"/>
								<path class="st3" d="M107.7,390.5c-4.3-0.9-9.6-0.3-12.9,2.8c-0.1,0.1,0,0.3,0.2,0.3c4.3-1.3,8.3-2.1,12.7-2.5
									C108,391,108,390.6,107.7,390.5z"/>
								<path class="st3" d="M110.8,392.4c-4.3-0.9-9.6-0.3-12.9,2.8c-0.1,0.1,0,0.3,0.2,0.3c4.3-1.3,8.3-2.1,12.7-2.5
									C111.1,392.9,111.1,392.5,110.8,392.4z"/>
								<path class="st3" d="M113.9,394.3c-4.3-0.9-9.6-0.3-12.9,2.8c-0.1,0.1,0,0.3,0.2,0.3c4.3-1.3,8.3-2.1,12.7-2.5
									C114.2,394.8,114.2,394.4,113.9,394.3z"/>
							</g>
						</g>
					</g>
				</g>
				<g>
					<path class="st4" d="M124.9,161c0,0-0.9,19-5.3,34c-0.3,1.2-0.7,2.5-1.1,3.6c0,0,0.6-0.5-6.3,3.8c0,0,2.7,75.5,2.8,80
						c0.4,16.9-11.9,108.7-11.9,108.7l-46.8,0.2c0,0,16.7-104.2,16.7-110.4c-0.1-9.9-6-53.1-4.2-85c1.1-19.7,9.5-34.9,9.5-34.9
						L124.9,161L124.9,161z"/>
					<g>
						<path class="st3" d="M101.8,382.8c-7.1-0.1-5.1-0.2-12.2-0.2c-3.5,0-26.5-0.1-29.8,0.4c-0.1,0-0.1,0.1,0,0.1
							c3.3,0.5,26.3,0.2,29.8,0.2c7.1-0.1,5.1-0.1,12.2-0.3C101.9,383,101.9,382.8,101.8,382.8z"/>
						<path class="st3" d="M81.4,163.8c-5.9,11.4-8.1,24.3-8.6,37c-0.5,13.8,1.1,27.5,2.6,41.2c1.5,14.4,2.9,28.8,1.7,43.3
							c-1.1,14.6-3.7,29.1-5.8,43.6c-2.1,14.5-4.3,29-6.1,43.5c-0.2,1.8-0.5,3.7-0.7,5.5c0,0.1,0.1,0.1,0.1,0
							c2.6-14.3,4.7-28.7,6.9-43.1c2.2-14.3,4.6-28.7,6.1-43.1s0.9-28.7-0.6-43.1c-1.4-13.9-3.2-27.7-3.3-41.6
							c0-13,1.3-26.2,5.9-38.4c0.6-1.6,1.3-3.2,2-4.8C81.7,163.6,81.5,163.6,81.4,163.8z"/>
					</g>
				</g>
				<g>
					<path class="st3" d="M120.7,197.5c-4.7,1.9-9.1,4.4-13.4,7c-0.2,0.1,0,0.4,0.1,0.3c4.5-2.2,9.1-4.3,13.5-6.7
						C121.3,197.9,121.1,197.4,120.7,197.5z"/>
				</g>
				<path class="st3" d="M121,181.4c-0.3,1.7-0.7,3.3-1.1,5c-0.3,1.6-0.6,3.1-1,4.7c-0.4,1.5-1,2.9-2.2,3.9
					c-0.6,0.6-1.3,1.1-1.9,1.6c-0.3,0.3-0.7,0.5-1.1,0.8c0-0.2,0.1-0.4,0.1-0.7c0.1-0.6,0.2-1.3,0.3-1.9c0.2-1.4,0.5-2.8,0.7-4.2
					c0.4-2.8,0.8-5.5,1.4-8.3c0-0.1-0.1-0.2-0.2,0c-0.7,2.7-1.4,5.4-2,8.1c-0.3,1.3-1.3,8-1.4,8.4c0,0.5-0.1,1-0.1,1.5s-0.1,1,0,1.5
					c0,0.1,0.2,0.1,0.2,0l0,0c0.2-0.4,0.3-1,0.4-1.4c0.1-0.5,0.2-1,0.3-1.4c0-0.2,0.1-0.4,0.1-0.5c0.7-0.4,1.3-0.9,1.9-1.4
					c0.7-0.5,1.3-0.9,1.9-1.5c1.2-1,1.9-2.2,2.4-3.7s0.6-3.2,0.8-4.8c0.2-1.9,0.4-3.8,0.6-5.6C121.2,181.4,121,181.3,121,181.4z"/>
			</g>
		</g>
	</g>
	<path class="st1" d="M117.8,107.2c0.6,7.8,5.2,26.1,15.5,42.4c4,6.3,20,14.5,33.1,19.9c6.1,2.5,11.6,4.4,14.9,5.1l0,0
		c0.6,0.1,1.1,0.2,1.6,0.3c6.3,0.7,10.6-8.7,11.2-15.8c0-0.2,0-0.4,0-0.6c0-0.1,0-0.2,0-0.3c0.2-2.9-0.3-5.2-1.6-6.2
		c-0.4-0.3-0.8-0.5-1.4-0.9c-2.4-1.3-6.7-3.2-11.7-5.2c-1.2-0.5-2.4-1-3.6-1.5c-11.5-4.6-24.7-9.6-26-10.8
		c-2-1.8-14.4-16.2-21.5-28.5C123.3,96.1,116.8,94.2,117.8,107.2z"/>
	<path class="st1" d="M166.5,169.4c6.1,2.5,11.6,4.4,14.9,5.1l0,0c4.4,1.2,12.6,2.6,19.3,2.6c4,0,15.5-1.2,15.7-4.3s-3.1-3-3.1-3
		s4.8-1.2,4.7-4.3c0-2.6-3.6-2.8-4.9-2.9c0,0-0.1,0-0.2,0l0,0l0,0c-0.2,0-0.2,0-0.2,0s4.8-1.6,4.6-4.7c-0.2-2.8-4.5-2.2-5.4-2l0,0
		c0.7-0.2,4.2-1.5,3-3.7c-1.6-3-9.5,0.3-14,0.1c-0.2,0-1.3-0.1-2.9-0.3c-3.3-2.5-7.4-4.8-9.2-5.2c-2.3-0.5-6.7-0.8-9.3-0.8
		c-1.2-0.5-2.4-1-3.6-1.5C173.5,147.2,166.1,156.6,166.5,169.4z"/>
	<g>
		<path class="st1" d="M180.7,149.8l-0.9,13.4l0,0v0.3l-0.7,10.2c0.5,0.2,1.4,0.5,2.4,0.8l0,0c4.4,1.2,12.6,2.6,19.3,2.6
			c4,0,15.5-1.2,15.7-4.3s-3.1-3-3.1-3s4.8-1.2,4.7-4.3c0-2.6-3.6-2.8-4.9-2.9c-0.1,0-0.1,0-0.2,0l0,0c-0.2,0-0.2,0-0.2,0
			s4.8-1.6,4.6-4.7c-0.2-2.8-4.5-2.2-5.4-2c-0.1,0-0.1,0-0.1,0h0.1c0.7-0.2,4.2-1.5,3-3.7c-1.6-3-9.5,0.3-14,0.1
			c-0.2,0-1.3-0.1-2.9-0.3c-1.8-0.2-4.3-0.5-6.8-0.8C186.1,150.5,180.7,149.8,180.7,149.8z"/>
		<g>
			<path class="st3" d="M196.6,157.4c2.1,0.6,3.9,1,5.6,1.2c3.2,0.3,6-0.2,9.6-2.4c0.2-0.1,0.2-0.2,0.1-0.3l0,0c0,0-0.1,0-0.2,0
				c-3.6,1.5-6.1,2.1-8.9,2c-1.8,0-3.7-0.3-6.1-0.7C196.5,157.2,196.5,157.4,196.6,157.4z"/>
			<path class="st3" d="M196.9,164.2c6.4,1.2,10.1,1.6,16.2-1.2c0.2-0.1,0.2-0.3,0.1-0.3c0,0-0.1,0-0.2,0l0,0l0,0
				c-6.3,2-9.5,2-16.1,1.4C196.8,164,196.8,164.1,196.9,164.2z"/>
			<path class="st3" d="M212.8,170c-6.3,1.5-9.8,1.7-16.1,0.2c-0.1,0-0.2,0.2-0.1,0.2C202.8,172.5,207.3,172.3,212.8,170
				C213.2,170,213.1,169.9,212.8,170z"/>
		</g>
	</g>
	<g>
		<path class="st1" d="M182.4,163c0.3,0,0.7-0.1,1-0.2c0.1,0,0.2-0.1,0.3-0.1l0,0c5.1-1.7,7-9.3,7-9.3c1.4,0.3,3.3,0.7,5.3,0.8
			c2.6,0.1,5.2-0.1,6.7-1.1l0,0c0.4-0.3,0.8-0.6,1-1c0.1-0.2,0.2-0.5,0.3-0.7c0,0,0,0,0-0.1c0.2-1.4-2.7-3.1-6.2-4.4
			c-3.9-1.5-8.4-2.5-10.3-2.4c-2.4,0.1-6.6,1.1-9.1,1.8c-1.3,0.3-2.1,0.6-2.1,0.6S176.3,163.7,182.4,163z"/>
		<path class="st3" d="M203.3,152.3c-3.4,2.9-8.6,1.3-12.6,0.7c-0.3,0-0.4,0.2-0.4,0.4c-1.2,3.7-3.9,8.5-7.8,9.7
			c-0.1,0-0.1,0.2,0,0.2c4.3-0.7,7.4-5.3,8.4-9.4C195.1,154.7,200.3,156,203.3,152.3C203.4,152.3,203.3,152.3,203.3,152.3z"/>
	</g>
	<path class="st2" d="M122.3,130.9l24.8-2.8c0,0-15.4-22.8-21.8-28.2c-7.2-6.1-8.8-1.1-8.1,7.9C117.9,116.7,122.3,130.9,122.3,130.9
		z"/>
	<path class="st5" d="M122.3,130.9l24.8-2.8c0,0-15.4-22.8-21.8-28.2c-7.2-6.1-8.8-1.1-8.1,7.9C117.9,116.7,122.3,130.9,122.3,130.9
		z"/>
	<path class="st3" d="M142.3,123.7c-3.2,0-12.9,1.3-14.5,1.5c-0.8,0.1-4.2,0.7-5,0.8c-0.1,0-0.1,0.2,0,0.2c1.6-0.2,3.2-0.2,4.8-0.4
		s11.5-1.1,14.6-1.9C142.4,123.8,142.4,123.7,142.3,123.7z"/>
	<path class="st3" d="M135.6,129.4l-13.3,1.5c0,0-4.4-14.1-5-23.1c-0.5-6.5,0.2-11,3.4-10.5L135.6,129.4z"/>
	<g>
		<path class="st2" d="M70.3,179.3c0.1,0.2,64.4,6.8,65.1,6.1c1-0.9-5.2-76.2-11.3-86c-1.3-2.1-11.7-5-16.4-1.7
			C92.9,108.1,69.8,178.7,70.3,179.3z"/>
		
			<rect x="111.4" y="116.6" transform="matrix(9.850461e-02 -0.9951 0.9951 9.850461e-02 -20.8306 222.6042)" class="st6" width="2" height="12.3"/>
	</g>
	<g>
		<path class="st7" d="M106,98.9"/>
	</g>
	<g>
		<path class="st2" d="M161.7,134.2c-0.3,0.5-8,14.8-8.3,16.4c-0.3,1.6-11,40.9-10.4,42.1c0.6,1.2,17.4,7.8,18.1,7.8
			c0.7,0,34-7.4,35.8-8.7s2.4-31.9,1.8-35c-0.7-3.1-2.7-8.8-2.7-8.8l1.2-1.7c0,0-3.4-14.4-4.1-13.9
			C192.5,132.8,162.4,133.2,161.7,134.2z"/>
		<path class="st5" d="M161.1,200.5c-0.7,0-17.5-6.6-18.1-7.8s10.1-40.5,10.4-42.1c0.3-1.6,8-15.9,8.3-16.4c1.4,3,2.6,16.2,2.8,17.9
			C164.7,153.9,161.4,197,161.1,200.5z"/>
		<path class="st5" d="M196,148c-2.5,0.4-5.1,0.6-7.7,0.9c-2.6,0.3-5.1,0.5-7.7,0.6c-2.6,0.2-5.1,0.3-7.7,0.5
			c-2.6,0.1-5.1,0.2-7.7,0.3l0,0l0,0c-0.4-0.1-0.5-0.3-0.6-0.5s-0.2-0.4-0.2-0.6c-0.1-0.4-0.2-0.8-0.3-1.2c-0.1-0.8-0.2-1.6-0.3-2.3
			c0.1,0.8,0.3,1.5,0.5,2.3c0.1,0.4,0.2,0.7,0.4,1.1c0.1,0.3,0.4,0.7,0.5,0.7l0,0c2.6-0.2,5.1-0.5,7.7-0.7c2.6-0.2,5.1-0.4,7.7-0.5
			c2.6-0.2,5.1-0.3,7.7-0.4C190.9,148.1,193.4,148,196,148z"/>
		<polygon class="st8" points="187.8,153.8 183,153.8 179.9,144.4 184.7,144.3 		"/>
		<g class="st9">
			<path d="M161.3,137.6c-0.6,4.3-1.3,8.6-2,12.9c-0.7,4.3-1.5,8.6-2.2,12.9c-0.8,4.3-1.6,8.6-2.5,12.8l-1.3,6.4
				c-0.5,2.1-0.9,4.3-1.4,6.4c0.3-2.2,0.6-4.3,0.9-6.5l1-6.4c0.7-4.3,1.5-8.6,2.2-12.9c0.8-4.3,1.6-8.6,2.5-12.8
				C159.4,146.1,160.3,141.8,161.3,137.6z"/>
			<path d="M144.4,192.1c2.4-1.3,4.8-2.4,7.3-3.5l0.3-0.1l0.2,0.3c1.3,1.5,2.7,3.1,3.9,4.7c1.3,1.6,2.5,3.2,3.7,4.9
				c-1.5-1.4-2.9-2.9-4.3-4.3c-1.4-1.5-2.7-3-4-4.6l0.5,0.1C149.5,190.4,147,191.3,144.4,192.1z"/>
		</g>
	</g>
	<g>
		<path class="st1" d="M101.7,105.4c-6,16.2-17.3,56.7-8.9,61.8c13.6,8.5,41.4,11.1,49.8,11c3.6,0,7.9-27.8,4.1-28.8
			c-4.5-1.2-33.3-2.1-33.9-4.4c-0.3-1.3,0.6-14.5-1-29.1C109.9,99.1,103.7,99.9,101.7,105.4z"/>
		<g>
			<path class="st1" d="M134.3,151.5c0,0,9.2-6.1,15.4-9.8c3.5-2.1,9.7-5.1,12.9-5.4c4.8-0.5,25.4,0.3,25.3,5.3
				c-0.1,4.5-17.6,1.6-17.6,1.6s18,1.4,16.9,6.8c-1.1,5.4-20.5-0.6-20.5-0.6s18.4,1.9,16.4,7.3c-1.5,4.1-19.4-0.3-19.4-0.3
				s15.8,1.7,14.5,6c-1.5,4.7-18.3,1.7-18.3,1.7c-5.4,10.3-11.9,13.6-17.1,14.3C141.4,178.4,134.3,151.5,134.3,151.5z"/>
			<g>
				<path class="st3" d="M164,142.2c2.1,0.1,4.3,0.2,6.4,0.4c2.1,0.3,4.2,0.6,6.3,1.1c5.1,1.2,8.1,2.7,7.9,2.6
					c-4.6-1.7-12.1-2.9-14.2-3.1C168.2,143,166.1,142.6,164,142.2C164,142.3,164,142.2,164,142.2z"/>
				<path class="st3" d="M162.9,149.8c2.7,0.2,5.4,0.4,8.1,0.7c2.7,0.3,5.2,0.9,7.8,1.4c0.2,0,0.1,0.1-0.1,0.1
					c-2.7-0.4-5.2-0.6-7.8-1C168.2,150.7,165.5,150.2,162.9,149.8C162.8,149.9,162.8,149.8,162.9,149.8z"/>
				<path class="st3" d="M160.7,156.1c4.1,0.1,8.3,1.1,12.3,2c0.2,0,0.1,0.2-0.1,0.1c-4.1-0.8-7.3-1.4-12.1-2
					C160.7,156.3,160.6,156.1,160.7,156.1z"/>
			</g>
		</g>
		<path class="st3" d="M158.1,137.4c-4,0.9-17.8,9.6-19.3,10.9c-1.1-0.1-5.8-0.4-6.4-0.3c-0.1,0-0.1,0.2,0,0.2
			c0.5,0.2,5.2,0.9,6.3,1c0.2,0,16.2-10,19.6-11.6C158.5,137.4,158.3,137.3,158.1,137.4z"/>
	</g>
	<path class="st2" d="M114.5,132.8l-24.3,5.8c0,0,6.8-26.6,11-33.9c4.7-8.2,7.9-4,10.3,4.7C113.8,118.1,114.5,132.8,114.5,132.8z"/>
	<path class="st5" d="M114.5,132.8l-24.3,5.8c0,0,6.8-26.6,11-33.9c4.7-8.2,7.9-4,10.3,4.7C113.8,118.1,114.5,132.8,114.5,132.8z"/>
	<g>
		<path class="st3" d="M112.6,128.7c-3.2,0.3-12.7,2.6-14.2,3c-0.8,0.2-4.1,1.1-4.9,1.3c-0.1,0,0,0.2,0.1,0.2
			c1.6-0.4,3.2-0.5,4.8-0.9c1.6-0.3,11.3-2.3,14.3-3.4C112.7,128.8,112.7,128.6,112.6,128.7z"/>
		<path class="st3" d="M97.1,115c0-0.1-0.1-0.1-0.2,0c-0.8,2.2-1.6,4.4-2.3,6.6c0.1-1.2,0.3-2.4,0.7-3.6c0-0.1-0.1-0.1-0.1,0
			c-0.4,1.3-0.7,2.8-0.8,4.2c-0.5,1.5-1,3.1-1.5,4.7c-1.2,4-2.5,7.9-3.5,11.9c-0.1,0.2,0.2,0.4,0.4,0.3c0.8-0.2,1.7-0.5,2.5-0.8
			c0.1,0,0.1-0.2,0-0.2c-0.7,0.1-1.4,0.2-2.1,0.3c1.3-3.8,2.4-7.7,3.5-11.5C94.9,123,96.1,119,97.1,115z"/>
		<path class="st3" d="M114.1,122.1c0-1.3,0.1-2.6,0-4l0,0c-0.1,1-0.1,1.9-0.1,2.9c-0.3-1.9-0.5-3.8-0.9-5.7c0,0-0.1,0,0,0
			c0.1,2.9,0.4,5.8,0.6,8.8c0.2,2.9,0.5,5.7,0.7,8.6c-0.5,0.2-1.1,0.4-1.6,0.6c-0.1,0-0.1,0.2,0,0.2c0.6-0.1,1.2-0.2,1.9-0.3
			c0.1,0,0.3-0.1,0.3-0.3C114.8,129.3,114.5,125.7,114.1,122.1z"/>
	</g>
	<g>
		<g>
			<path class="st1" d="M119.3,108.1c-2.3,0.1-8.5-4.7-10.5-9.3c-0.1-0.3,2.2-12.5,2.4-15c0-0.5,15.1,5.1,15.1,5.1s-2,5-2.3,9.3
				c0,0.4,0,0.7,0,1c0,0,0,0.1,0,0.2C124.1,101.4,122.6,107.9,119.3,108.1z"/>
		</g>
		<path class="st3" d="M112.1,84c0.3,3.8,1.7,14.4,10.2,15.4c0.6,0.1,1.1,0.1,1.6,0c0-0.1,0-0.1,0-0.2c0-0.3,0-0.7,0-1
			c0.3-4.3,2.3-9.3,2.3-9.3S115.5,84.9,112.1,84z"/>
	</g>
	<g>
		<path class="st1" d="M112.8,63c-2.8,5-3.3,21.1-0.3,25.4c4.4,6.2,13.4,8.7,19.1,2.9c5.5-5.5,5.9-26.6,2.3-30.6
			C128.6,54.8,116.9,55.6,112.8,63z"/>
	</g>
	<g>
		<g>
			<path class="st3" d="M125.6,75.7C125.6,75.6,125.5,75.7,125.6,75.7c-0.1,1.2-0.3,2.4-1.3,2.7v0.1
				C125.5,78.3,125.8,76.7,125.6,75.7z"/>
			<path class="st3" d="M124.7,74.5c-1.7-0.2-2,3.3-0.4,3.5C125.9,78.2,126.1,74.7,124.7,74.5z"/>
		</g>
		<g>
			<path class="st3" d="M131.9,76.3l0.1,0.1c-0.1,1.1-0.1,2.3,0.9,2.8v0.1C131.6,79,131.6,77.3,131.9,76.3z"/>
			<path class="st3" d="M132.9,75.3c1.8,0,1.6,3.5,0,3.5C131.3,78.8,131.4,75.3,132.9,75.3z"/>
		</g>
		<path class="st3" d="M123.4,72.8c0.5-0.1,0.9-0.2,1.4-0.4c0.5-0.1,1-0.2,1.3-0.6c0.2-0.2,0.2-0.7,0-0.9c-0.5-0.5-1.2-0.5-1.8-0.3
			c-0.7,0.2-1.2,0.5-1.6,1C122.2,72.1,122.8,72.9,123.4,72.8z"/>
		<path class="st3" d="M134.4,73.6c-0.5-0.1-0.9-0.3-1.4-0.5s-1-0.3-1.3-0.7c-0.2-0.2-0.1-0.7,0.1-0.9c0.5-0.5,1.2-0.4,1.9-0.2
			c0.7,0.2,1.2,0.6,1.6,1.2C135.7,73,135,73.8,134.4,73.6z"/>
		<path class="st3" d="M123.8,85.6c0.2,0.3,0.5,0.6,0.9,0.7s0.8-0.1,1.2-0.2c0,0,0.1,0,0,0.1c-0.3,0.4-0.9,0.6-1.4,0.5
			s-0.7-0.6-0.8-1C123.7,85.6,123.8,85.6,123.8,85.6z"/>
		<g>
			<g>
				<path class="st3" d="M125.2,82.5c0.5,1,1.4,1.6,2.3,1.8c0.4,0.1,0.9,0.2,1.3,0.2c0.1,0,0.2,0,0.3,0s0.2,0,0.2,0
					c0.1,0,0.2-0.1,0.2-0.2l0,0v-0.1l0,0v-0.1c0.1-0.8,0.1-2.1,0.1-2.1c0.3,0.2,1.8,1,1.8,0.6c0.1-3.6,0.1-7.7-0.6-11.3
					c0-0.1-0.2-0.1-0.2,0c-0.2,3.5,0.2,7,0.1,10.5c-0.5-0.2-1.3-0.6-1.7-0.7c-0.1,0,0,2.5-0.1,2.8l0,0
					C127.5,84,126.5,83.5,125.2,82.5C125.2,82.3,125.2,82.4,125.2,82.5z"/>
			</g>
		</g>
		<g>
			<path class="st3" d="M128.4,84c0,0-0.8,0.9-1.9,1.2c-0.4,0.1-0.8,0.1-1.2,0c-0.8-0.3-0.8-1.1-0.6-1.8c0.2-0.5,0.5-1,0.5-1
				S126.4,83.7,128.4,84z"/>
			<path class="st10" d="M126.6,85.2c-0.4,0.1-0.8,0.1-1.2,0c-0.8-0.3-0.8-1.1-0.6-1.8C125.7,83.6,126.5,84.3,126.6,85.2z"/>
		</g>
	</g>
	<path class="st3" d="M110.8,77.7c3-0.4,5.9-9.7,5.9-9.7s-0.7,4,0.1,4.1c0.8,0,4.7-5,5.7-8.9c0,0,3.2,3,6.6,4.6
		c3.4,1.6,7.1,1.9,7,1.3c-0.1-1.9-0.3-6.7-1.5-8.1c-2.2-2.7-7.1-5.6-13.3-4.2c-6.2,1.3-8.3,4.9-9.7,7.7
		C110.3,67.3,109.7,77.9,110.8,77.7z"/>
	<g>
		<path class="st1" d="M113.4,76.4c0,0-2.5-5.7-5.1-4.9c-2.5,0.8-1.3,8.6,1.2,10.1s3.9-0.7,3.9-0.7L113.4,76.4z"/>
		<path class="st3" d="M108.7,73.7C108.7,73.7,108.6,73.7,108.7,73.7c1.7,1.2,2.3,3.1,2.7,5.1c-0.4-0.8-1.1-1.3-2.2-0.9
			c-0.1,0,0,0.1,0,0.1c0.8,0,1.3,0.2,1.7,0.9c0.3,0.5,0.4,1.1,0.6,1.7c0.1,0.2,0.4,0.2,0.4-0.1l0,0
			C112.4,78.2,111.2,74.4,108.7,73.7z"/>
	</g>
	<g>
		<path class="st11" d="M139.1,67.6c0,0,6.3,5,2.9,12.6h-28.8l-3.1-11.6l10.9-8.5L139.1,67.6z"/>
		<path class="st8" d="M139.1,65.6c0,0,0.1,0.1,0.1,0.2c0.2,0.4,0.6,1.4,0.2,2.1H118c0,0-4.5,0.5-2.9,5.1c1.3,4,1.7,6.6-0.1,8.2
			s-4.7,2.4-7.1-0.2c-2.4-2.6-0.5-16.5-0.5-16.5l9.6-4.8l13.2-1.9L139.1,65.6z"/>
		<path class="st2" d="M139.7,65.7c0,0-1.1-18-20.1-17.2S95.9,81,110.8,81.6c0,0,6.4-1.4,2.7-8.7c0,0-2.5-6.8,3.7-6.8
			c4.9,0,22.4,0,22.4,0v-0.4H139.7z"/>
	</g>
</g>
<g>
	<path class="st12" d="M373.8,344.8c31.1,0,49.1,21.6,49.1,47s-16.7,46.5-47,46.5c-33.5,0-49.6-26.7-49.6-46.7
		C326.3,371.5,342.3,344.8,373.8,344.8z"/>
	<path class="st3" d="M369,344.8c29.5,0,46.7,21.6,46.7,47s-15.9,46.5-44.7,46.5c-31.9,0-47.1-26.7-47.1-46.7
		C323.9,371.5,339.1,344.8,369,344.8z"/>
	<path class="st13" d="M369.3,363.1c18,0,28.4,13.2,28.4,28.6c0,15.5-9.7,28.3-27.2,28.3c-19.4,0-28.7-16.3-28.7-28.5
		C341.8,379.3,351.1,363.1,369.3,363.1z"/>
</g>
<g>
	<path class="st12" d="M148.5,421.3c38.3,0,51.1-20.1,51.1-44.4S181.8,332,147,332c22.7,0,35.9,20.6,35.9,44.9
		C182.9,401.2,170.7,421.3,148.5,421.3z"/>
	<path class="st3" d="M147,332c22.7,0,35.9,20.6,35.9,44.9s-12.2,44.4-34.4,44.4c-24.5,0-36.2-25.5-36.2-44.7
		C112.3,357.5,124,332,147,332z"/>
	<path class="st3" d="M129.1,376.7c0,18.5-4.7,43,17.1,44.6c0.3,0,0.5,0,0.8,0c0.2,0,0.4,0,0.7,0s0.6,0,0.9,0
		c22.2,0,34.4-20.1,34.4-44.4S169.8,332,147.1,332c-0.4,0-0.8,0-1.2,0c-0.2,0-0.4,0-0.6,0c-0.4,0-0.7,0-1.1,0.1
		C124.5,334.2,129.1,358.3,129.1,376.7z"/>
	<path class="st13" d="M145.4,349.5c12.6,0,20,12.6,20,27.4s-6.8,27.1-19.1,27.1c-13.6,0-20.1-15.5-20.1-27.2
		C126.1,365,132.6,349.5,145.4,349.5z"/>
</g>
<g>
	<polygon class="st14" points="323.5,238.6 311.3,238.6 302.9,226.4 317.2,226.4 	"/>
	<polygon class="st2" points="302.9,226.4 307.8,233.6 311.3,238.6 323.5,238.6 320.2,232.2 317.2,226.4 	"/>
	<polygon class="st5" points="302.9,226.4 307.8,233.6 320.2,232.2 317.2,226.4 	"/>
</g>
<g>
	<polygon class="st14" points="353.2,330.4 341.3,333.2 330.4,323.1 344.4,319.9 	"/>
	<polygon class="st2" points="330.4,323.1 336.8,329 341.3,333.2 353.2,330.4 348.6,324.9 344.4,319.9 	"/>
	<polygon class="st5" points="330.4,323.1 336.8,329 348.6,324.9 344.4,319.9 	"/>
</g>
<path class="st4" d="M177,366.8l3.4,7.6c0,0,92.5,7.1,101.3,5.8c0,0,9.8-10.8,18.4-28.5c0,0-31,0-41.8,0s-18-4-18-4l-5.4-0.9
	l-9.7,4.9l-10.6,15.1l-29.5-0.5L177,366.8z"/>
<path class="st12" d="M225.1,351.6c0,0,23.7,14.6,69.8,9.6c1.7-2.9,3.4-6.1,5.1-9.6c0,0-31,0-41.8,0s-18-4-18-4l-5.4-0.9
	L225.1,351.6z"/>
<path class="st2" d="M420.2,350.8l-11.6,6.1c0,0-33.5-6.1-55-1.5s-27.3,16.1-27.3,16.1h-10.8c0,0,9.3-33.1,25.1-45.1
	c15.8-12,41.2-9.3,55.3-1.8C409.9,332.2,420.2,350.8,420.2,350.8z"/>
<path class="st5" d="M407.4,354.6c-2.2-2.4-4.7-4.5-7.3-6.4c-2.6-2-5.3-3.8-8.1-5.4c-5.5-3-11.6-5.1-17.8-5.8
	c-12.2-1.5-25,2.1-34,11.5c-5.1,5.3-8.7,11.8-12.1,18.4c-0.1,0.1,0.1,0.2,0.1,0.1c3-5.8,6.5-11.3,10.9-16c4.2-4.6,9.4-8.1,15.1-10.2
	c11.5-4.2,24-2.6,35.1,2.5c3.1,1.5,6.2,3.1,9.2,5c3,2,5.8,4.2,8.7,6.5C407.4,354.9,407.5,354.7,407.4,354.6z"/>
<path class="st2" d="M247.5,287.8v-4.1l-104.6,3.4v9.2c0,0-30.3,33.5-33.4,68.2l104.9,2.2l10.6-15.1l9.7-4.9l5.4,0.9v-2.3l-4.1-4.9
	l-0.2-14.4c0,0-5-5.9-3.5-15.4C233.5,302.9,247.5,287.8,247.5,287.8z"/>
<path class="st2" d="M204.7,361.9c-1.1,2-17,4.9-47.2,5.7c-27.2,0.7-47.4,0.1-49.1-1.6c-1.6-1.8,2.4-32.7,20.8-49.5
	s44.5-19.2,61.6-9.2C206,316.1,217.2,338.4,204.7,361.9z"/>
<path class="st5" d="M209.8,332.6c-1.5-7.3-5.5-14-10.7-19.3c-5.3-5.4-12.1-9.3-19.4-11.2c-8.2-2.1-16.9-1.9-25,0.3
	c-4.1,1.1-8,2.6-11.8,4.6c-4,2.1-7.6,4.7-11.1,7.5c-0.9,0.8-1.9,1.5-2.8,2.3c-0.1,0.1,0,0.2,0.1,0.1c3.5-3,7.2-5.8,11.2-8.1
	c3.6-2.1,7.5-3.7,11.5-5c7.9-2.4,16.4-3,24.5-1.4c7.4,1.5,14.2,5,19.8,10c5.3,4.9,9.4,11,11.4,17.9c2.5,8.4,1.7,17.7-0.8,26
	c-0.3,1.1-0.7,2.2-1.1,3.3c0,0.1,0.1,0.2,0.2,0C209.2,351.2,211.7,341.9,209.8,332.6z"/>
<path class="st5" d="M225.1,351.6l9.7-4.9l5.4,0.9v-2.3l-4.1-4.9l-0.2-14.4c0,0-5-5.9-3.5-15.4c1.2-7.7,15.1-22.8,15.1-22.8h-4.1
	c0,0-22,11.4-27,20.7C211.4,317.9,209.9,339.9,225.1,351.6z"/>
<path class="st15" d="M137.1,370.8c-18.2,0-27.9-0.6-32.7-2.5l2.3-5.7c5.7,2.3,23.6,2.2,52.5,1.9c21.3-0.2,37-2.3,46.8-6l2.2,5.7
	c-10.6,4-26.6,6.1-48.9,6.4C150.7,370.7,143.4,370.8,137.1,370.8z"/>
<g>
	<path class="st3" d="M280.3,232c-0.2,0.4-24.3,4.9-24.3,4.9s-4-2.7-1.5-6.1l24.2-5.2C278.6,225.5,281.9,228.2,280.3,232z"/>
	<path class="st2" d="M330.9,200.8v28.6c0,0-15.5-1.4-19.6-1.5s-22.4,2.2-22.4,2.2l-1.4-6.4c0,0,14.1-4.9,20.1-8.8
		c6-3.9,12.9-11.2,16.6-12.8C328,200.5,330.9,200.8,330.9,200.8z"/>
	<path class="st15" d="M289,223c0,0,3,2.8,2.4,7.2c0,0-11.5,2.1-11.7,2.1s0.6-4.5-4-6.5L289,223z"/>
	<g>
		<ellipse class="st15" cx="331.1" cy="215.1" rx="7.6" ry="14.3"/>
		<path class="st8" d="M325.1,215.1c0,7.1,2.9,12.8,6.5,12.8s6.5-5.7,6.5-12.8c0-7.1-2.9-12.8-6.5-12.8
			C328,202.4,325.1,208.1,325.1,215.1z"/>
	</g>
</g>
<g>
	<path class="st12" d="M247.5,283.7c0,0,0.2-17.5-0.5-18.1s-104.8-0.3-107.9-0.1c-3.1,0.3-2.8,20.7-2.6,21.6
		C136.8,288.1,244.8,284,247.5,283.7z"/>
	<path class="st4" d="M256.7,265.8c-0.3-0.3-13.5-0.3-14.2-0.3s-0.5,18.6-0.1,18.6s14.3-0.1,14.8-0.5
		C257.7,283.1,257.4,266.4,256.7,265.8z"/>
	<path class="st4" d="M183.8,264.8c-0.4,0.2-0.5,0.7-0.7,1.1c-0.1,0.4-0.2,0.9-0.2,1.3c-0.1,0.9-0.1,1.8-0.2,2.7
		c-0.1,1.8-0.1,3.6,0,5.4c0,1.8,0,3.6,0.1,5.4c0.1,0.9,0.1,1.8,0.3,2.7c0.1,0.4,0.2,0.9,0.4,1.2c0.2,0.4,0.5,0.7,1,0.8
		c-0.5,0.1-0.9-0.2-1.2-0.6s-0.5-0.8-0.7-1.2c-0.3-0.9-0.5-1.8-0.6-2.7c-0.3-1.8-0.3-3.7-0.3-5.5s0.1-3.7,0.3-5.5
		c0.1-0.9,0.3-1.8,0.5-2.7c0.1-0.4,0.3-0.9,0.5-1.3C183.1,265.4,183.4,264.9,183.8,264.8z"/>
</g>
<rect x="130.3" y="203.3" class="st12" width="100" height="62.2"/>
<rect x="130.3" y="203.3" class="st3" width="72.2" height="62.2"/>
<g>
	<polygon class="st12" points="254.6,155.6 223.5,155.6 199.1,203.2 230.2,203.2 	"/>
	<polygon class="st3" points="226.8,155.6 223.5,155.6 199.1,203.2 202.5,203.2 	"/>
</g>
<rect x="138.3" y="203.2" class="st2" width="6.2" height="62.2"/>
<rect x="183.8" y="203.2" class="st2" width="6.2" height="62.2"/>
<path class="st2" d="M333.5,238.6c2.5,3.7,12.6,53.9,14.6,56.4s5.8,2.7,5.8,2.7l6.7,16.6c0,0-16.6,5.2-25.8,12.8
	c-11.9,9.8-22.9,42.2-22.9,42.2c-1.8,1.3-24.1,10.4-30.3,10.8c0,0,28.5-31.3,30.8-74.6c0.9-16.8-9.4-40.4-10.1-52.1
	c-0.7-12.5,3.1-14.8,9.7-14.8S333.5,238.6,333.5,238.6z"/>
<path class="st15" d="M280.3,383.7l-4.5-4.2c25-26.5,34.2-68.2,33.5-79.5c-0.4-5.8-2.3-12.4-4.2-19.3c-2.1-7.4-4.5-15.7-5.5-24.8
	c-0.9-8.4,0-13.9,2.9-17.1s6.8-3.2,9.4-3.2h23.8v6.1h-23.8c-2.3,0-3.8,0.1-4.8,1.2c-0.9,1-2.3,4-1.3,12.3c1,8.6,3.2,16.3,5.3,23.8
	c2.1,7.2,4,14.1,4.5,20.6C316.2,311.7,306.6,355.9,280.3,383.7z"/>
<g>
	<path class="st15" d="M348.2,308.8c1.4,5.2,5.8,8.4,9.9,7.3c4-1.1,6.2-6.2,4.8-11.3c-1.4-5.2-5.8-8.4-9.9-7.3
		C349,298.5,346.8,303.6,348.2,308.8z"/>
	<path class="st8" d="M349.8,308.4c1.3,4.6,5.1,7.6,8.5,6.6c3.5-0.9,5.2-5.4,4-10c-1.3-4.6-5.1-7.6-8.5-6.6
		C350.3,299.3,348.5,303.8,349.8,308.4z"/>
</g>
<path class="st5" d="M330.6,307.9c-1.1-5.2-2.3-10.4-3.4-15.6c-1-5.2-2-10.4-2.8-15.6c-0.8-4.9-1.6-9.8-1.9-14.7
	c-0.3-5.1,0-10.3,2.5-15c0-0.1-0.1-0.2-0.1-0.1c-2.6,3.7-3.4,8.3-3.6,12.7c-0.2,4.9,0.6,9.9,1.3,14.7c1.5,10.6,3.4,21.3,6,31.7
	c1.5,5.9,3.3,11.7,5.3,17.5c0,0.1,0.2,0.1,0.1,0C332.8,318.3,331.7,313.1,330.6,307.9z"/>
<g>
	<path class="st8" d="M154.8,244.3c-1,0-1.9,0.4-2.5,1s-1,1.5-1,2.5c0,2,1.5,3.5,3.5,3.5c1.3,0,2.4-0.6,2.9-1.5l0.2-0.3l-1.1-0.7
		l-0.2,0.3c-0.3,0.6-1,0.9-1.8,0.9c-1.1,0-1.9-0.6-2.2-1.6h5.4v-0.3V248c0-0.1,0-0.1,0-0.2C158.2,246.1,157,244.3,154.8,244.3z
		 M152.7,247.1c0.2-1,1.1-1.6,2.1-1.6c0.8,0,1.7,0.5,2,1.6H152.7z"/>
	<path class="st8" d="M164.3,245.1c-0.6-0.6-1.4-0.9-2.3-0.9c-2,0-3.5,1.5-3.5,3.5s1.5,3.5,3.5,3.5c0.9,0,1.7-0.3,2.3-0.9v0.7h1.3
		v-6.8h-1.3V245.1z M162.1,250c-1.3,0-2.2-1-2.2-2.3s1-2.3,2.2-2.3s2.2,1,2.2,2.3S163.3,250,162.1,250z"/>
	<path class="st8" d="M168.8,242.6l-1.3,0.4v1.4h-1.3v1.3h1.3v3.6c0,0.7,0.2,1.2,0.6,1.5c0.3,0.3,0.8,0.4,1.4,0.4
		c0.3,0,0.5,0,0.9-0.1h0.3v-1.2h-0.4c-0.6,0.1-1.1,0.1-1.3-0.1c-0.1-0.1-0.1-0.3-0.1-0.6v-3.6h1.8v-1.3h-1.8L168.8,242.6
		L168.8,242.6z"/>
	<path class="st8" d="M174.1,244.3c-2,0-3.5,1.5-3.5,3.5s1.6,3.5,3.5,3.5c2,0,3.5-1.5,3.5-3.5S176.1,244.3,174.1,244.3z M174.1,250
		c-1.3,0-2.2-1-2.2-2.3s1-2.3,2.2-2.3s2.2,1,2.2,2.3S175.4,250,174.1,250z"/>
</g>
<g>
	<g>
		<path class="st8" d="M175.1,227.3c-0.8-1.2-1.7-2.3-2.5-3.5c-0.5-0.7-1-1.4-1.5-2.1s-1.3-0.7-2-0.2c-2.3,1.7-4.6,3.4-6.9,5.2
			c-0.8,0.6-1.6,1.2-2.5,1.8c-0.5,0.4-1.2,0.8-1.5,1.3s-0.2,1.2,0.3,1.5c0.4,0.3,0.9,0.2,1.3,0.2c0.3,0,0.6-0.1,0.6,0.2
			c0,0.2-0.2,0.5-0.2,0.7c-0.6,1.8-1.1,3.6-1.7,5.4c-0.2,0.7-0.5,1.5,0.2,1.9c0.4,0.3,1.1,0.2,1.6,0.2c1.9,0,3.9,0,5.8,0
			c1.2,0,2.4,0.1,3.6,0c0.7,0,1.3-0.5,1.5-1.2c0.2-0.6-0.8-0.9-1-0.3c-0.2,0.4-0.6,0.4-1,0.4c-0.5,0-0.9,0-1.4,0c-0.4,0-0.8,0-1.2,0
			c-1.7,0-3.4,0-5.1,0c-0.7,0-1.4,0.1-2,0c-0.2,0-0.2,0.1-0.2-0.1c0-0.1,0.1-0.4,0.2-0.5c0.5-1.7,1-3.3,1.5-5
			c0.1-0.4,0.3-0.9,0.4-1.3c0.1-0.6-0.1-1.2-0.8-1.4c-0.4-0.1-0.8,0-1.2,0c-0.1,0-0.3,0-0.3,0c-0.1-0.1,0.2-0.3,0.2-0.4
			c0.1-0.1,0.3-0.3,0.5-0.4c0.7-0.5,1.4-1.1,2.2-1.6c2.3-1.7,4.5-3.4,6.8-5.1c0.2-0.1,1-0.9,1.3-0.9c0.1,0,0.2,0.3,0.3,0.4
			c0.2,0.3,0.5,0.7,0.7,1c0.8,1.1,1.6,2.3,2.5,3.4c0.2,0.3,0.4,0.6,0.6,0.9C174.6,228.4,175.5,227.9,175.1,227.3L175.1,227.3z"/>
	</g>
	<g>
		<path class="st8" d="M150.4,232.4c2.3,0,4.7,0,7,0c0.7,0,0.8-1.2,0-1.2c-2.3,0-4.7,0-7,0C149.6,231.3,149.6,232.4,150.4,232.4
			L150.4,232.4z"/>
	</g>
	<g>
		<path class="st8" d="M153.4,236.4c1.4,0,2.7,0,4.1,0c0.7,0,0.8-1.2,0-1.2c-1.4,0-2.7,0-4.1,0C152.6,235.2,152.6,236.4,153.4,236.4
			L153.4,236.4z"/>
	</g>
</g>
</svg>
