<?xml version="1.0" encoding="utf-8"?>
<!-- Generator: Adobe Illustrator 22.0.1, SVG Export Plug-In . SVG Version: 6.00 Build 0)  -->
<svg version="1.1" id="Layer_1" xmlns="http://www.w3.org/2000/svg" xmlns:xlink="http://www.w3.org/1999/xlink" x="0px" y="0px"
	 viewBox="0 0 648 455.4" style="enable-background:new 0 0 648 455.4;" xml:space="preserve">
<style type="text/css">
	.st0{fill:#EBEBEB;}
	.st1{fill:#263238;}
	.st2{fill:#DBDBDB;}
	.st3{fill:#A6A6A6;}
	.st4{fill:#FC5A1A;}
	.st5{opacity:0.1;enable-background:new    ;}
	.st6{fill:#37474F;}
	.st7{fill:#C7C7C7;}
	.st8{fill:#FFFFFF;}
	.st9{fill:#D3766A;}
	.st10{fill:#FF9ABB;}
	.st11{fill:#AD6359;}
	.st12{fill:#455A64;}
	.st13{opacity:0.1;fill:#FC5A1A;enable-background:new    ;}
	.st14{fill:none;}
	.st15{opacity:0.1;}
	.st16{opacity:0.36;fill:#FFFFFF;enable-background:new    ;}
	.st17{fill:#FFC727;}
</style>
<g>
	<path class="st0" d="M376.9,311.7l13.4-0.3l6.6-0.1c2.2,0,4.4,0,6.5-0.1l-0.4,0.4l-0.1-11.2l0.5,0.5l-13.2-0.1
		c-4.4,0-8.8-0.1-13.2-0.2l0.3-0.3c0,1.8-0.1,3.7-0.1,5.5L376.9,311.7z M376.9,311.7l-0.1-5.5c0-1.9-0.1-3.8-0.1-5.7v-0.3h0.3
		c4.4-0.1,8.8-0.2,13.2-0.2l13.2-0.1h0.5v0.5l-0.1,11.2v0.4h-0.4c-2.2,0-4.5,0-6.7-0.1L390,312L376.9,311.7z"/>
	<path class="st0" d="M391.7,325.8l13.4-0.3l6.6-0.1c2.2,0,4.4,0,6.5-0.1l-0.4,0.4l-0.1-11.2l0.5,0.5l-13.2-0.1
		c-4.4,0-8.8-0.1-13.2-0.2l0.3-0.3c0,1.8-0.1,3.7-0.1,5.5L391.7,325.8z M391.7,325.8l-0.1-5.5c0-1.9-0.1-3.8-0.1-5.7v-0.3h0.3
		c4.4-0.1,8.8-0.2,13.2-0.2l13.2-0.1h0.5v0.5l-0.1,11.2v0.4h-0.4c-2.2,0-4.5,0-6.7-0.1l-6.7-0.1L391.7,325.8z"/>
	<path class="st0" d="M362.1,325.8l13.4-0.3l6.6-0.1c2.2,0,4.4,0,6.5-0.1l-0.4,0.4l-0.1-11.2l0.5,0.5l-13.2-0.1
		c-4.4,0-8.8-0.1-13.2-0.2l0.3-0.3c0,1.8-0.1,3.7-0.1,5.5L362.1,325.8z M362.1,325.8l-0.1-5.5c0-1.9-0.1-3.8-0.1-5.7v-0.3h0.3
		c4.4-0.1,8.8-0.2,13.2-0.2l13.2-0.1h0.5v0.5l-0.1,11.2v0.4h-0.4c-2.2,0-4.5,0-6.7-0.1l-6.7-0.1L362.1,325.8z"/>
	<path class="st0" d="M20.8,325.8l13.4-0.3l6.6-0.1c2.2,0,4.4,0,6.5-0.1l-0.4,0.4l-0.1-11.2l0.5,0.5l-13.2-0.1
		c-4.4,0-8.8-0.1-13.2-0.2l0.3-0.3c0,1.8-0.1,3.7-0.1,5.5L20.8,325.8z M20.8,325.8l-0.1-5.5c0-1.9-0.1-3.8-0.1-5.7v-0.3h0.3
		c4.4-0.1,8.8-0.2,13.2-0.2l13.2-0.1h0.5v0.5l-0.1,11.2v0.4h-0.4c-2.2,0-4.5,0-6.7-0.1l-6.7-0.1L20.8,325.8z"/>
	<path class="st0" d="M20.8,23.9l13.4-0.3l6.6-0.1c2.2,0,4.4,0,6.5-0.1l-0.4,0.4l-0.1-11.2l0.5,0.5L34.1,13c-4.4,0-8.8-0.1-13.2-0.2
		l0.3-0.3c0,1.8-0.1,3.7-0.1,5.5L20.8,23.9z M20.8,23.9l-0.1-5.5c0-1.9-0.1-3.8-0.1-5.7v-0.3h0.3c4.4-0.1,8.8-0.2,13.2-0.2l13.2-0.1
		h0.5v0.5l-0.1,11.2v0.4h-0.4c-2.2,0-4.5,0-6.7-0.1L33.9,24L20.8,23.9z"/>
	<path class="st0" d="M6.1,38l13.4-0.3l6.6-0.1c2.2,0,4.4,0,6.5-0.1l-0.4,0.4l-0.1-11.2l0.5,0.5l-13.2-0.1c-4.4,0-8.8-0.1-13.2-0.2
		l0.3-0.3c0,1.8-0.1,3.7-0.1,5.5L6.1,38z M6.1,38L6,32.5c0-1.9-0.1-3.8-0.1-5.7v-0.3h0.3c4.4-0.1,8.8-0.2,13.2-0.2l13.2-0.1h0.5v0.5
		L33,38v0.4h-0.4c-2.2,0-4.5,0-6.7-0.1l-6.7-0.1L6.1,38z"/>
	<path class="st0" d="M391.7,23.9l13.4-0.3l6.6-0.1c2.2,0,4.4,0,6.5-0.1l-0.4,0.4l-0.1-11.2l0.5,0.5L405,13c-4.4,0-8.8-0.1-13.2-0.2
		l0.3-0.3c0,1.8-0.1,3.7-0.1,5.5L391.7,23.9z M391.7,23.9l-0.1-5.5c0-1.9-0.1-3.8-0.1-5.7v-0.3h0.3c4.4-0.1,8.8-0.2,13.2-0.2
		l13.2-0.1h0.5v0.5l-0.1,11.2v0.4h-0.4c-2.2,0-4.5,0-6.7-0.1l-6.7-0.1L391.7,23.9z"/>
	<path class="st0" d="M218.9,145.8l-13.4,0.3l-6.6,0.1c-2.2,0-4.4,0-6.5,0.1l0.4-0.4l0.1,11.2l-0.5-0.5l13.2,0.1
		c4.4,0,8.8,0.1,13.2,0.2l-0.3,0.3c0-1.8,0.1-3.7,0.1-5.5L218.9,145.8z M218.9,145.8l0.1,5.5c0,1.9,0.1,3.8,0.1,5.7v0.3h-0.3
		c-4.4,0.1-8.8,0.2-13.2,0.2l-13.2,0.1h-0.5v-0.5l0.1-11.2v-0.4h0.4c2.2,0,4.5,0,6.7,0.1l6.7,0.1L218.9,145.8z"/>
	<path class="st0" d="M204.1,131.7l-13.4,0.3l-6.6,0.1c-2.2,0-4.4,0-6.5,0.1l0.4-0.4l0.1,11.2l-0.5-0.5l13.2,0.1
		c4.4,0,8.8,0.1,13.2,0.2l-0.3,0.3c0-1.8,0.1-3.7,0.1-5.5L204.1,131.7z M204.1,131.7l0.1,5.5c0,1.9,0.1,3.8,0.1,5.7v0.3H204
		c-4.4,0.1-8.8,0.2-13.2,0.2l-13.2,0.1h-0.5V143l0.1-11.2v-0.4h0.4c2.2,0,4.5,0,6.7,0.1l6.7,0.1L204.1,131.7z"/>
</g>
<g>
	<ellipse class="st0" cx="252.4" cy="422.6" rx="238.6" ry="23.8"/>
</g>
<polygon class="st1" points="16.8,396.8 96.9,396.6 177,396.5 337.1,396.3 497.2,396.5 577.3,396.6 657.4,396.8 577.3,397 
	497.2,397.1 337.1,397.3 177,397.1 96.9,397 "/>
<g>
	<polygon class="st2" points="423.4,150.9 401,30.4 380.2,150.9 379.2,150.7 400.9,24.7 424.4,150.7 	"/>
	<polygon class="st2" points="417.4,250.5 401.2,191 386.2,250.5 385.3,250.2 401.2,187 418.4,250.2 	"/>
	<path class="st3" d="M403,26.6c0,1.1-0.9,2.1-2.1,2.1c-1.1,0-2.1-0.9-2.1-2.1c0-1.1,0.9-2.1,2.1-2.1S403,25.5,403,26.6z"/>
	<g>
		<g>
			<polygon class="st4" points="420,248.4 419.4,256.8 417.9,276.7 385.8,276.7 384.3,256.8 383.6,248.4 			"/>
			<polygon class="st5" points="420,248.4 419.4,256.8 384.3,256.8 383.6,248.4 			"/>
		</g>
		<rect x="381.4" y="245.8" class="st4" width="40.8" height="6.5"/>
		<path class="st6" d="M423.3,244.4c0,1.1-1.1,1.9-2.2,1.8c-0.6,0.7-1.5,1-2.3,0.7c-0.4,0.9-1.4,1.5-2.3,1.4
			c0.3,1.1-0.2,2.5-1.4,2.9c-0.2,0.7-0.8,1.1-1.5,1c-0.8,0-1.4-0.6-1.8-1.3c-0.7,0.8-1.9,1.1-2.7,0.2c-0.5-0.5-0.5-1.1-0.3-1.7
			c-0.1-0.1-0.2-0.1-0.4-0.2c-0.6-0.5-0.7-1.2-0.6-2c-0.5,0.2-1.1,0.2-1.7,0c-0.1,0.5-0.6,0.9-1.2,1c0.2,0.7,0.1,1.5-0.4,2
			c-0.5,0.6-1.3,0.9-2.1,0.8c0.2,1.1,0.3,2.3-0.7,3.1c-0.5,0.4-1.1,0.4-1.6,0.2c-0.2,1.2-1.4,2-2.6,1.6c0.1,0.7,0.1,1.4-0.2,2
			c-0.3,0.5-0.8,0.8-1.4,0.9c0,1.1-0.5,2.2-1.7,2.2c-0.8,0-1.4-0.8-1.2-1.5c-1.2-0.2-1.7-1.8-0.8-2.6c-1.2-0.9-1.2-2.7,0-3.6
			c-0.7-0.7-0.6-1.7,0.1-2.2c-0.5-0.4-0.7-1-0.7-1.6c0-0.8,0.5-1.4,1.2-1.8c-0.2-0.1-0.5-0.3-0.6-0.6c0,0,0-0.1,0-0.2
			c-0.4,0.1-0.8,0.2-1.2,0c-0.3-0.1-0.5-0.3-0.6-0.5c-0.6,0.6-1.5,0.8-2.3,0.6c-0.5,1.1-2.1,1.4-3,0.6c-0.7,0.7-1.7,1.3-2.7,0.7
			c-0.4-0.2-0.6-0.7-0.5-1.1c-0.5,0-1-0.2-1.2-0.7c-0.3-0.6-0.1-1.1,0.3-1.5c-0.2-0.2-0.4-0.4-0.5-0.7c-0.2-0.9,0.6-1.5,1.4-1.6
			c-0.3-0.6-0.1-1.4,0.4-2c0.6-0.7,1.4-0.8,2.3-0.8c-0.1-1,0.2-2.1,1.2-2.6c0.9-0.4,1.9-0.2,2.5,0.6c1.2-1.8,3.7-1.9,5.1-0.3
			c0.3-0.7,1.2-1.1,2-0.8c1.1,0.4,1.5,1.5,1.5,2.6c1-0.5,2.3-0.4,3.2,0.3c0.8,0.6,1.3,1.6,1.2,2.6c0.9-0.5,2.1-0.5,3,0.2
			c0.8-1,1.8-2.1,3.2-2.4c0.9-0.2,1.9,0,2.6,0.5c0.4-1.3,1.5-2.3,2.9-2.5s2.8,0.5,3.6,1.7c0.7-0.6,1.7-0.7,2.6-0.3
			c1.3,0.5,1.9,1.8,2.3,3C422.4,242.5,423.3,243.3,423.3,244.4z"/>
	</g>
	<g>
		<g>
			<polygon class="st4" points="426.1,151.2 425.3,162.4 423.2,189 380.4,189 378.4,162.4 377.5,151.2 			"/>
			<polygon class="st5" points="426.1,151.2 425.3,162.4 378.4,162.4 377.5,151.2 			"/>
		</g>
		<rect x="374.6" y="147.6" class="st4" width="54.5" height="8.7"/>
		<path class="st6" d="M427.8,149.8c0.7,0.8,1,1.9,0.7,3s-2.2,2.8-3.3,3c1.3,1.7,0.7,4.2-1.2,5.2c1.3,1.5,1.8,3.3,0.2,4.4
			c1.3,1.8,0.7,4.5-1.2,5.6c0.4,1.2-0.8,4.8-3.3,4.8c-2,0-3.3-2.3-2.3-3.8c-1.8-1-2.1-3.4-0.7-4.8c0,0-1.5,0.3-2.2-0.4
			c-0.4-0.4-0.4-1.6-0.1-2.1c-1.3-1.5-0.9-4.1,0.8-5.1c-1.3-1.1-1.3-3.2,0-4.3c-0.7-0.3-1.3-0.8-1.7-1.4c-1.2,0.6-2,0.1-2.7-1.1
			c-0.8,0.9-2,1.2-3.1,0.8c-0.6,2.2-3.1,3.1-5,2c-0.1,0.9-0.4,1.8-0.9,2.6c-0.2,0.2-0.4,0.4-0.6,0.6c-0.2,0.3-0.4,0.6-0.5,0.9
			c-0.3,0.5-0.7,1-1.1,1.3c-0.8,0.6-2.1,0.7-2.8-0.1c-0.4-0.5-0.5-1.1-0.3-1.7c-1.2-0.4-1.7-1.7-1.4-2.8c-1.1,0.1-2.2-0.5-2.6-1.5
			c-0.5,0.6-1.3,1.1-2.1,1.1c0.6,1.5-0.2,3.4-1.8,4c1,1.5,0.3,3.9-1.4,4.6c0.6,1,0.3,2.4-0.7,3c0.3,0.8,0.4,1.8-0.1,2.6
			c-0.4,0.6-1.1,1-1.8,0.8c-0.9-0.2-1.3-1.4-0.8-2.1c-1.1-0.4-2-1.4-2.2-2.5c-0.3-1.2,0.1-2.4,1-3.2c-1.9-0.5-2.8-2.7-1.7-4.4
			c-1.1-0.3-2-1.1-2.2-2.3c-0.1-0.8,0.1-1.7,0.6-2.3c-0.6,0-1.2-0.1-1.6-0.6c-0.2-0.3-0.3-0.6-0.3-1c-0.9,0.2-1.9-0.2-2.4-1
			c-0.5-0.9-0.2-1.9,0.4-2.5c-0.6-0.2-1.1-0.7-1.2-1.3c-0.1-0.4,0-0.8,0.1-1.1c-1.2,0.1-2.4-0.4-2.6-1.8c-0.1-0.9,0.5-1.5,1.2-1.8
			c-0.2-0.4-0.3-1-0.2-1.4c0.3-1.3,1.9-1.7,3.1-1.9c-0.6-1.9,1-3.9,3-3.6c-0.1-1,0.4-2.1,1.3-2.6c0.9-0.6,2.1-0.4,2.9,0.2h0.1
			c1.6,0.2,2.8,1.7,2.8,3.2c1-0.6,2.2-0.6,3.2,0c1.3,0.7,1.9,2,2.2,3.3c1.8-1.9,4.9-1.5,6.2,0.8c1-1,2.5-1.4,3.8-0.9
			c1.2,0.5,2.1,1.6,2.3,2.9c2.3-1.9,5.4-2.5,8.2-1.6c0.9-2.4,3.8-3.3,5.8-1.9c0.6-1.6,2.3-2.5,4-2.4c2,0.2,3.5,1.8,4.4,3.6
			c2.5,0,4.3,2.8,3.4,5.2C430.3,147.4,429.3,149.4,427.8,149.8z"/>
	</g>
</g>
<g>
	<rect x="463.7" y="22.5" class="st7" width="161.7" height="374.3"/>
	<rect x="463.7" y="356" class="st3" width="161.7" height="40.8"/>
	<rect x="463.7" y="22.5" class="st2" width="8.5" height="374.3"/>
	<g>
		<polygon class="st0" points="564.2,377.4 472.1,396.8 472.1,22.5 564.2,49.8 		"/>
		<g>
			<g>
				<path class="st3" d="M484.8,283.6c0.1,3.5,0.2,7.1,0.2,10.6c0.1,3.5,0.1,7.1,0.2,10.6c0.1,7.1,0.2,14.2,0.2,21.2
					c0.1,7.1,0,14.2,0.1,21.2c0,7.1,0,14.2-0.1,21.3l-0.6-0.9c3.7-0.6,7.4-1.1,11.1-1.6l5.5-0.7c1.8-0.2,3.7-0.4,5.5-0.6
					c-1.8,0.5-3.7,0.9-5.5,1.3l-5.5,1.3c-3.7,0.8-7.4,1.6-11.1,2.3l-0.5,0.1v-1c-0.1-7.1-0.1-14.2-0.1-21.3c0-7.1,0-14.2,0.1-21.3
					c0-7.1,0.1-14.2,0.2-21.3c0-3.5,0.1-7.1,0.2-10.6C484.6,290.7,484.7,287.2,484.8,283.6z"/>
				<path class="st3" d="M512.6,356c-0.1-3.9-0.2-7.8-0.2-11.7c-0.1-3.9-0.1-7.8-0.2-11.8c-0.1-7.8-0.2-15.7-0.2-23.5
					c-0.1-7.9-0.1-15.7-0.1-23.6s0-15.7,0.1-23.6l0.6,0.9c-4.6,0.1-9.1,0.1-13.7,0.1c-2.3,0-4.6,0-6.9-0.1c-2.3,0-4.6-0.1-6.9-0.2
					c2.3-0.2,4.6-0.4,6.9-0.6c2.3-0.2,4.6-0.4,6.9-0.5c4.6-0.3,9.1-0.5,13.7-0.7h0.6v1c0.1,7.8,0.1,15.7,0.1,23.5s0,15.7-0.1,23.5
					c0,7.8-0.1,15.7-0.2,23.6c0,3.9-0.1,7.9-0.2,11.8C512.8,348.1,512.7,352.1,512.6,356z"/>
			</g>
			<g>
				<path class="st3" d="M523.6,281.3c0.1,3.3,0.2,6.7,0.2,10c0.1,3.3,0.1,6.7,0.2,10c0.1,6.7,0.2,13.4,0.2,20.1
					c0.1,6.7,0.1,13.4,0.1,20.1s0,13.4-0.1,20.1l-0.6-0.8c3.7-0.6,7.4-1.1,11.1-1.6l5.5-0.7c1.8-0.2,3.7-0.5,5.5-0.6
					c-1.8,0.5-3.7,0.9-5.5,1.3l-5.5,1.2c-3.7,0.8-7.4,1.6-11.1,2.3l-0.5,0.1v-0.9c-0.1-6.7-0.1-13.4-0.1-20.1s0-13.4,0-20.1
					s0.1-13.4,0.2-20.2c0-3.4,0.1-6.7,0.2-10.1C523.5,288.1,523.5,284.7,523.6,281.3z"/>
				<path class="st3" d="M551.4,349.6c-0.1-3.7-0.2-7.4-0.2-11.1c-0.1-3.7-0.1-7.4-0.2-11.1c-0.1-7.4-0.2-14.8-0.2-22.2
					c-0.1-7.4-0.1-14.8-0.1-22.3c0-7.4,0-14.8,0-22.3l0.6,0.9c-4.6,0.1-9.1,0.1-13.7,0.1c-2.3,0-4.6,0-6.9-0.1
					c-2.3,0-4.6-0.1-6.9-0.1c2.3-0.2,4.6-0.4,6.9-0.6c2.3-0.2,4.6-0.3,6.9-0.5c4.6-0.3,9.1-0.5,13.7-0.7h0.6v0.9
					c0.1,7.4,0.1,14.8,0.1,22.2c0,7.4,0,14.8,0,22.2c0,7.4-0.1,14.8-0.2,22.2c0,3.7-0.1,7.4-0.2,11.1
					C551.6,342.2,551.5,345.9,551.4,349.6z"/>
			</g>
			<g>
				<path class="st3" d="M484.8,115c0.1,3.6,0.2,7.1,0.2,10.7c0.1,3.6,0.1,7.1,0.2,10.7c0.1,7.1,0.2,14.2,0.2,21.3
					c0.1,7.1,0,14.2,0.1,21.3c0,7.1,0,14.2-0.1,21.2l-0.6-1c3.7,0.3,7.4,0.6,11,1l5.5,0.6c1.8,0.2,3.7,0.4,5.5,0.7
					c-1.8,0-3.7,0-5.5,0h-5.5c-3.7,0-7.4-0.1-11-0.3h-0.5v-1c-0.1-7.1-0.1-14.2-0.1-21.3c0-7.1,0-14.2,0.1-21.3
					c0-7.1,0.1-14.2,0.2-21.3c0-3.5,0.1-7.1,0.2-10.6C484.6,122.1,484.7,118.5,484.8,115z"/>
				<path class="st3" d="M512.5,193.9c-0.1-3.9-0.2-7.9-0.2-11.8c-0.1-3.9-0.1-7.9-0.2-11.8c-0.1-7.9-0.2-15.7-0.2-23.6
					c-0.1-7.9-0.1-15.7-0.1-23.6c0-7.9,0-15.7,0.1-23.6l0.6,1.1c-4.6-1-9.1-2-13.7-3.1c-2.3-0.5-4.6-1.1-6.8-1.7
					c-2.3-0.6-4.6-1.1-6.8-1.8c2.3,0.3,4.6,0.7,6.8,1c2.3,0.4,4.6,0.7,6.8,1.1c4.6,0.8,9.1,1.6,13.7,2.5l0.6,0.1v1
					c0.1,7.9,0.1,15.7,0.1,23.5s0,15.7-0.1,23.5c0,7.8-0.1,15.7-0.2,23.5c0,3.9-0.1,7.8-0.2,11.8C512.7,186,512.6,190,512.5,193.9z"
					/>
			</g>
			<g>
				<path class="st3" d="M523.5,121.8c0.1,3.4,0.2,6.7,0.2,10.1c0.1,3.4,0.1,6.7,0.2,10.1c0.1,6.7,0.2,13.4,0.2,20.1
					c0.1,6.7,0.1,13.4,0.1,20.1c0,6.7,0,13.4-0.1,20.1l-0.6-1c3.7,0.3,7.4,0.6,11,1l5.5,0.6c1.8,0.2,3.7,0.4,5.5,0.6
					c-1.8,0-3.7,0-5.5,0h-5.5c-3.7-0.1-7.4-0.2-11-0.3H523v-0.9c-0.1-6.7-0.1-13.4-0.1-20.1s0-13.4,0-20.1c0-6.7,0.1-13.4,0.2-20.1
					c0-3.3,0.1-6.7,0.2-10C523.4,128.4,523.4,125.1,523.5,121.8z"/>
				<path class="st3" d="M551.3,196.5c-0.1-3.7-0.2-7.4-0.2-11.1c-0.1-3.7-0.1-7.4-0.2-11.1c-0.1-7.4-0.2-14.9-0.2-22.3
					c-0.1-7.4-0.1-14.8-0.1-22.3c0-7.4,0-14.8,0-22.2l0.6,1c-4.6-1-9.1-2-13.7-3.1c-2.3-0.5-4.6-1.1-6.8-1.7
					c-2.3-0.6-4.6-1.1-6.8-1.7c2.3,0.3,4.6,0.7,6.8,1c2.3,0.4,4.6,0.7,6.8,1.1c4.6,0.8,9.1,1.6,13.7,2.5l0.6,0.1v0.9
					c0.1,7.4,0.1,14.8,0.1,22.2s0,14.8,0,22.2s-0.1,14.8-0.2,22.2c0,3.7-0.1,7.4-0.2,11.1C551.4,189.1,551.4,192.8,551.3,196.5z"/>
			</g>
			<g>
				<path class="st3" d="M484.8,52.8c0.2,3.7,0.3,7.4,0.4,11.1c0.1,3.7,0.2,7.4,0.2,11.1l-0.6-1.2c1.8,0.4,3.7,0.8,5.5,1.2
					s3.7,0.9,5.5,1.4s3.7,1,5.5,1.6s3.7,1.2,5.5,1.9c-1.8-0.1-3.7-0.4-5.5-0.6c-1.8-0.3-3.7-0.6-5.5-0.9c-1.8-0.3-3.7-0.7-5.5-1.1
					c-1.8-0.4-3.7-0.9-5.5-1.3l-0.6-0.2v-1c0-3.7,0.1-7.3,0.2-11C484.5,60.1,484.6,56.4,484.8,52.8z"/>
				<path class="st3" d="M512.5,79.2c-0.1-2.1-0.2-4.1-0.2-6.2c-0.1-2.1-0.1-4.1-0.2-6.2c-0.1-4.1-0.2-8.2-0.2-12.3l0.6,1.1
					c-2.3-0.5-4.6-1.1-6.8-1.7c-2.3-0.6-4.6-1.2-6.8-1.9c-2.3-0.7-4.6-1.4-6.8-2.2c-1.1-0.4-2.3-0.8-3.4-1.2
					c-1.1-0.4-2.3-0.8-3.4-1.3c1.1,0.1,2.3,0.3,3.4,0.5c1.1,0.2,2.3,0.4,3.4,0.6c2.3,0.5,4.6,1,6.8,1.5c2.3,0.5,4.6,1.1,6.8,1.7
					c2.3,0.6,4.6,1.2,6.8,1.9l0.6,0.2v0.9c0,4.1-0.1,8.1-0.2,12.2c0,2-0.1,4-0.2,6.1C512.6,75.2,512.6,77.2,512.5,79.2z"/>
			</g>
			<g>
				<path class="st3" d="M523.5,62.9c0.2,3.5,0.3,7,0.4,10.5c0.1,3.5,0.2,7,0.2,10.5l-0.6-1.1c1.8,0.4,3.7,0.8,5.5,1.2
					s3.7,0.9,5.5,1.4s3.7,1,5.5,1.6s3.7,1.2,5.5,1.9c-1.8-0.1-3.7-0.4-5.5-0.7s-3.7-0.6-5.5-0.9c-1.8-0.3-3.7-0.7-5.5-1.1
					c-1.8-0.4-3.7-0.9-5.5-1.3l-0.6-0.2v-1c0-3.5,0.1-6.9,0.2-10.4C523.2,69.8,523.3,66.3,523.5,62.9z"/>
				<path class="st3" d="M551.2,88.2c-0.1-1.9-0.2-3.9-0.2-5.8c-0.1-1.9-0.1-3.9-0.2-5.8c-0.1-3.9-0.2-7.7-0.2-11.6l0.6,1.1
					c-2.3-0.5-4.6-1.2-6.8-1.7c-2.3-0.6-4.6-1.2-6.8-1.9c-2.3-0.7-4.6-1.4-6.8-2.1c-1.1-0.4-2.3-0.8-3.4-1.2
					c-1.1-0.4-2.3-0.8-3.4-1.3c1.1,0.2,2.3,0.4,3.4,0.6c1.1,0.2,2.3,0.4,3.4,0.6c2.3,0.5,4.6,1,6.8,1.5c2.3,0.5,4.6,1.1,6.8,1.7
					c2.3,0.6,4.6,1.2,6.8,1.9l0.6,0.2v0.9c0,3.8-0.1,7.7-0.2,11.5c0,1.9-0.1,3.8-0.2,5.7C551.3,84.4,551.3,86.3,551.2,88.2z"/>
			</g>
		</g>
		<g>
			<polygon class="st8" points="539.7,214.4 539.7,249.9 551.3,249.7 551.3,214.8 			"/>
			<polygon class="st0" points="542.4,222.2 542.4,230.3 551.3,229.3 551.3,222.5 			"/>
			<polygon class="st8" points="542.4,218.2 542.4,226.2 557.8,226.6 557.8,218.8 			"/>
		</g>
	</g>
	<polygon class="st1" points="639.8,7.3 639.8,396.8 625.4,396.8 625.4,22.5 463.7,22.5 463.7,396.8 449.2,396.8 449.2,7.3 	"/>
</g>
<g>
	<g>
		<g>
			<g>
				<path class="st9" d="M546.7,389.8c2,0.6,60.9-2.5,63-4c0.3-0.2,0.1-5.5-0.3-12.8l1.3-43.5l-37.3,1.5l-1.5,37.7
					c0,0-8.2,4.2-15,7.8l0,0c-4.2,2.2-7.8,4.3-8.6,5C546.2,383.3,544.7,389.2,546.7,389.8z"/>
				<path class="st4" d="M546.7,389.8c2,0.6,60.9-2.5,63-4c0.3-0.2,0.1-5.5-0.3-12.8c-14.4,3.8-53,10.5-54.3,7.5
					c-0.5-1.2,0.4-2.6,1.7-4c-4.2,2.2-7.8,4.3-8.6,5C546.2,383.3,544.7,389.2,546.7,389.8z"/>
			</g>
			<g>
				<path class="st6" d="M620.6,171.1c0,0-9.4,112.5-9.6,113.8c0,0.2,1.8,81.8,1.8,81.8l-41.3,1.7c0,0,1.3-71.4,2.4-87.4
					c1.4-20.4,9-108.5,9-108.5L620.6,171.1z"/>
				<g>
					<path class="st1" d="M574,359.3c10.6-0.8,35.3-1.1,36.7-1.1c0.4,0,0.2,0.3,0.1,0.3c-3.4,0.5-26.8,1.2-36.8,1.2
						C573.9,359.8,573.9,359.4,574,359.3z"/>
				</g>
				<path class="st1" d="M611.1,284.9c0,0,0,0.3,0,0.9L591,172.2l29.7-1.1C620.6,171.1,611.3,283.5,611.1,284.9z"/>
			</g>
		</g>
		<g>
			<g>
				<polygon class="st9" points="625.4,329 625.3,328.7 625.4,328.6 				"/>
				<path class="st9" d="M625.5,378.6c-0.1,0.1-0.1,0.3-0.2,0.4v14c-2.3,1-3.8,1.7-4.1,1.7c-2.1,0.3-3-5.7-1.7-8.3
					c0.5-1,3-4.1,5.9-7.7C625.4,378.7,625.5,378.7,625.5,378.6z"/>
				<path class="st4" d="M625.4,379c-0.6,1.5-0.7,2.9,0,3.8v10.3c-2.3,1-3.8,1.7-4.1,1.7c-2.1,0.3-3-5.7-1.7-8.3
					c0.5-1,3-4.1,5.9-7.7c0.1-0.1,0.1-0.1,0.2-0.2C625.5,378.7,625.4,378.9,625.4,379z"/>
			</g>
			<g>
				<path class="st6" d="M625.4,170.9v168.6c-5.1-18.2-11.4-41.8-14.2-55.4c-0.6-2.9-1-5.3-1.3-7.2c-2.3-17.2-5.1-52.3-6.8-77.8l0,0
					c0,0-4.9-3-8.4-5.5c-1.4-1-2.5-1.9-3.1-2.5l-0.1-0.1c-1.5-1.8-3.2-8.1-6.1-14.7c-0.1-0.3-0.3-0.6-0.4-0.9
					c-0.1-0.3-0.3-0.6-0.4-0.9c-0.2-0.4-0.4-0.9-0.6-1.3c-0.1-0.2-0.2-0.5-0.3-0.7l4.3-0.2l2.9-0.1l29.7-1.1l1.8-0.1L625.4,170.9z"
					/>
				<g>
					<path class="st1" d="M590.5,190.5c2.6,1,4.9,2.6,7.2,4.1c2.4,1.6,4.6,3.4,6.9,5.2c0.1,0.1,0,0.2-0.1,0.2
						c-2.4-1.5-5-2.8-7.4-4.4c-2.3-1.5-4.8-3-6.8-4.9C590.3,190.7,590.4,190.5,590.5,190.5z"/>
					<path class="st1" d="M590,175.7c0.3,1.6,0.7,3.3,1.1,4.9c0.4,1.5,0.6,3.1,1,4.6s1.1,2.8,2.2,3.8c0.6,0.6,1.3,1,1.9,1.5
						c0.3,0.3,0.7,0.5,1.1,0.8c0-0.2-0.1-0.4-0.1-0.7c-0.1-0.6-0.2-1.2-0.3-1.9c-0.3-1.4-0.5-2.8-0.7-4.2c-0.5-2.7-0.9-5.5-1.5-8.2
						c0-0.1,0.1-0.2,0.2,0c0.7,2.7,1.5,5.3,2.1,8c0.3,1.3,1.4,7.9,1.5,8.3c0.1,0.5,0.1,1,0.1,1.4c0,0.5,0.1,1,0,1.5
						c0,0.1-0.2,0.1-0.2,0l0,0c-0.2-0.4-0.3-1-0.4-1.4c-0.1-0.5-0.2-0.9-0.3-1.4c0-0.2-0.1-0.3-0.1-0.5c-0.6-0.4-1.3-0.9-1.9-1.3
						c-0.7-0.5-1.3-0.9-1.9-1.4c-1.2-1-1.9-2.2-2.4-3.6c-0.5-1.5-0.6-3.1-0.8-4.7c-0.2-1.9-0.4-3.7-0.7-5.6
						C589.8,175.6,590,175.6,590,175.7z"/>
				</g>
			</g>
		</g>
	</g>
	<g>
		<g>
			<path class="st1" d="M625.4,119.7L625.4,119.7v11.7c-0.5-0.1-1.1-0.1-1.7-0.2c-0.1-0.3-0.2-0.6-0.3-0.9c-0.1-0.3-0.2-0.6-0.3-0.9
				c-0.1-0.4-0.3-0.8-0.4-1.3c-0.1-0.3-0.2-0.6-0.2-0.9c-0.1-0.4-0.2-0.8-0.3-1.3c-0.1-0.3-0.1-0.6-0.2-0.9
				c-0.1-0.4-0.2-0.8-0.3-1.3c-0.1-0.3-0.1-0.6-0.1-0.9c-0.1-0.4-0.2-0.8-0.2-1.3c0-0.3-0.1-0.6-0.1-0.9c0-0.4-0.1-0.8-0.1-1.3
				c0-0.3,0-0.6-0.1-0.9c0-0.4-0.1-0.9-0.1-1.3c0-0.3,0-0.6,0-0.9l0,0l0,0c0,0.1-0.1,0.4-0.2,0.9c-0.1,0.3-0.1,0.8-0.2,1.3
				c0,0.3-0.1,0.6-0.1,0.9c-0.1,0.4-0.1,0.8-0.2,1.3c0,0.3-0.1,0.6-0.1,0.9c-0.1,0.4-0.1,0.8-0.2,1.3c0,0.3-0.1,0.6-0.1,0.9
				c-0.1,0.4-0.1,0.9-0.2,1.3c0,0.3-0.1,0.6-0.1,0.9c0,0.4-0.1,0.9-0.2,1.3c0,0.3-0.1,0.6-0.1,0.9c0,0.4-0.1,0.9-0.1,1.3
				c0,0.3-0.1,0.6-0.1,0.9c0,0.1,0,0.2,0,0.4c-0.2,0-0.4,0-0.5-0.1c-0.2,0-0.4,0-0.6-0.1c-0.2,0-0.4,0-0.5-0.1c-0.1,0-0.2,0-0.2,0
				c-0.5-0.1-0.9-0.1-1.4-0.2h-0.1c-0.1-0.3-0.1-0.6-0.2-0.9c-0.1-0.4-0.1-0.8-0.2-1.3c0-0.3-0.1-0.6-0.1-0.9c0-0.4-0.1-0.8-0.1-1.3
				c0-0.3,0-0.6-0.1-0.9c0-0.4,0-0.8,0-1.1v-0.1c0-0.1,0-0.1,0-0.2c0,0,0,0.1,0,0.2c0,0.2-0.1,0.7-0.3,1.3c0,0.3-0.1,0.5-0.2,0.9
				c-0.1,0.4-0.1,0.8-0.2,1.3c0,0.3-0.1,0.6-0.1,0.9c-0.1,0.4-0.1,0.9-0.2,1.3c0,0.2-0.1,0.4-0.1,0.6c-1.8-0.2-3.7-0.4-5.6-0.6
				c-1.4-0.2-2.9-0.3-4.3-0.5c-0.4-0.1-0.8-0.1-1.2-0.1c-1.8-0.2-3.6-0.4-5.4-0.6c-2.5-0.3-4.9-0.6-7.2-0.9
				c-0.6-0.1-1.2-0.1-1.8-0.2c0.1-0.4,0.1-0.7,0.2-1.1c0.1-0.3,0.1-0.6,0.2-0.9c0.1-0.4,0.1-0.9,0.2-1.3c0-0.3,0.1-0.6,0.1-0.9
				c0-0.4,0.1-0.9,0.1-1.3c0-0.2,0-0.4,0-0.6v-0.3c0-0.1,0-0.1,0-0.2c0,0,0,0,0-0.1v-0.2c0-0.4,0-0.8,0-1.1
				c-0.1-3.5-0.8-5.5-0.8-4.9c0,3.3-0.5,5.9-1.3,8c-0.6,1.8-1.4,3.2-2.1,4.2c-0.2,0-0.3,0-0.5,0c-3.5-0.4-5.8-0.7-6.3-0.8
				c-1.4-0.1,4.4-4,4.5-8.2c0.1-4.3-2.4-8.7,0.2-14.8c0.8-2,1.7-3.5,2.5-4.8c1.7-2.7,3.3-4.6,4.5-8.1l0,0v-0.1
				c0.1-0.3,0.2-0.7,0.2-1.3c0.3-3,0-9,1.4-14.5c0.1-0.6,0.3-1.1,0.5-1.7c0.3-0.9,0.6-1.8,1.1-2.6c1.5-2.9,3.8-5.2,7.4-6.3h0.1
				c10.1-2.8,15.7,4.6,15.7,4.6c7.4,3.1,5.6,14,4.8,20c-0.1,0.7-0.1,1.4,0,2c0.3,2.6,1.8,4.6,3.6,6.9c0,0,0,0,0,0.1
				c0.3,0.4,0.6,0.7,0.9,1.1L625.4,119.7C625.4,119.6,625.4,119.7,625.4,119.7z"/>
			<path class="st1" d="M625.4,96.5v1.7c-0.1-0.1-0.2-0.3-0.3-0.4c-0.2-0.2-0.3-0.4-0.5-0.6c0,0,0,0,0-0.1c-1.2-1.3-2.3-2.7-3.2-4.3
				c-0.9-1.9-1.3-4-1-6c0,1.2,0.2,2.3,0.6,3.4c0.3,0.8,0.6,1.5,1.1,2.2C622.9,94.1,624.1,95.3,625.4,96.5z"/>
			<path class="st1" d="M592.9,70c-1.2,2.2-1.8,4.7-2.3,7.1c-0.5,2.4-1,4.9-1.4,7.3l-0.6,3.6c-0.2,1.2-0.5,2.3-0.9,3.4
				c-0.8,2.2-2.3,4.1-3.9,5.9c-0.8,1-1.6,1.9-2.3,3s-1.3,2.3-1.7,3.5s-0.7,2.5-0.9,3.7c-0.2,1.3-0.3,2.6-0.2,3.8
				c0.1,1.3,0.3,2.5,0.5,3.7s0.3,2.4,0.2,3.6c0,2.4-1.5,4.6-3.6,6c2.2-1,4-3.3,4.3-5.9c0.2-1.3,0.2-2.5,0-3.8
				c-0.1-1.3-0.3-2.5-0.3-3.7c-0.1-2.4,0.5-4.8,1.2-7c0.4-1.1,0.9-2.2,1.6-3.1c0.6-1,1.4-1.9,2.2-2.9c0.8-0.9,1.6-1.9,2.3-3
				s1.3-2.2,1.8-3.5c0.4-1.2,0.7-2.5,0.9-3.7s0.3-2.5,0.5-3.7c0.3-2.5,0.5-4.9,0.9-7.3C591.7,74.7,592.1,72.3,592.9,70z"/>
		</g>
		<g>
			<path class="st9" d="M606.2,110.7c-2.4,13.6-6.8,35.8-15.2,46.6c-4.6,5.9-14.2,14.1-26.8,16.9v-29.3c0.9-0.5,10.4-4.1,13.9-7.3
				c2.9-2.7,7.7-14.1,19.6-28.8C603.1,102.2,607.4,104,606.2,110.7z"/>
			<g>
				<path class="st4" d="M582.5,129.9l18.9,8.8c0,0,3.9-15.1,5.3-25.9c1.5-11.3-4-12.1-11.9-1.6
					C587.2,121.3,582.5,129.9,582.5,129.9z"/>
				<path class="st1" d="M602,133.9c-2.6-1.5-11-4.9-12.3-5.4c-0.7-0.3-3.7-1.4-4.4-1.7c-0.1,0-0.1,0.1,0,0.2
					c1.4,0.6,2.7,1.3,4.1,1.9c1.4,0.6,9.8,4.3,12.7,5.2C602,134,602,133.9,602,133.9z"/>
			</g>
		</g>
		<g>
			<path class="st4" d="M625.4,119.7L625.4,119.7v56.8c-1.7,0-3.4,0-5.2,0c-9.8,0-20.7-0.1-28.5-0.1c-0.5,0-1,0-1.5,0H590
				c-1.7,0-3.1,0-4.4-0.1c-1.2,0-2.1,0-2.9,0c-1,0-1.6,0-1.6,0l0.1-0.9l0.1-0.9l0.2-1.3l0.1-0.9l0.2-1.3l0.1-0.9l0.2-1.3l0.1-0.9
				l0.2-1.3l0.1-0.9l0.1-0.5l0.1-0.8l0.1-0.9l0.2-1.3l0.1-0.9l0.2-1.3l0.1-0.9l0.2-1.3l0.1-0.9l0.2-1.3l0.1-0.9l0.2-1.3l0.1-0.9
				l0.2-1.3l0.1-0.9l0.2-1.3l0.1-0.9l0.2-1.3l0.1-0.6l0,0c0,0,0,0-0.1-0.1c0,0,0-0.1-0.1-0.1l0,0l0,0c0,0,0-0.1-0.1-0.1
				c0-0.1-0.1-0.1-0.1-0.2c-0.1-0.2-0.3-0.6-0.5-0.9c-0.1-0.3-0.3-0.5-0.4-0.9c-0.2-0.4-0.3-0.8-0.5-1.3c-0.1-0.3-0.2-0.6-0.3-0.9
				c-0.1-0.4-0.3-0.8-0.4-1.3c-0.1-0.3-0.1-0.6-0.2-0.9c-0.1-0.4-0.2-0.8-0.3-1.3c-0.1-0.2-0.1-0.5-0.1-0.7c0-0.1,0-0.1,0-0.2
				c0-0.4-0.1-0.8-0.1-1.3c0-0.3,0-0.6,0-0.9c0-0.4,0-0.9,0.1-1.3c0-0.3,0.1-0.6,0.1-0.9c0-0.1,0-0.3,0.1-0.4
				c0.1-0.3,0.1-0.6,0.2-0.9c0.1-0.3,0.2-0.6,0.3-0.9c0.1-0.2,0.1-0.4,0.2-0.6l0,0c0.1-0.2,0.2-0.4,0.3-0.7l0,0
				c0.1-0.3,0.3-0.6,0.4-0.9c0.2-0.4,0.4-0.8,0.6-1.3c0.1-0.3,0.3-0.6,0.5-0.9c0.1-0.1,0.2-0.3,0.2-0.4c0,0,0-0.1,0.1-0.1
				c0.1-0.2,0.3-0.5,0.4-0.7c0.2-0.3,0.3-0.6,0.5-0.9c0.2-0.4,0.5-0.9,0.8-1.3c0.2-0.3,0.3-0.6,0.5-0.9c0.3-0.4,0.5-0.9,0.8-1.3
				c0.1-0.1,0.1-0.2,0.2-0.3c0.1-0.2,0.2-0.3,0.3-0.5c0-0.1,0.1-0.2,0.1-0.2c0.2-0.3,0.5-0.7,0.7-1s0.4-0.6,0.6-0.9
				c0.3-0.4,0.6-0.9,0.9-1.3c0.2-0.3,0.4-0.6,0.6-0.9c0.3-0.4,0.6-0.9,0.9-1.3c0.1-0.1,0.2-0.3,0.3-0.4c0.1-0.1,0.1-0.2,0.2-0.3
				c0-0.1,0.1-0.1,0.1-0.2c0.3-0.4,0.6-0.9,0.9-1.3c0.2-0.3,0.4-0.6,0.6-0.9c0.3-0.4,0.6-0.9,0.9-1.3c0.2-0.3,0.4-0.6,0.6-0.9
				c0.3-0.4,0.7-0.9,1-1.3c0.2-0.3,0.5-0.6,0.7-0.9c0.4-0.5,0.7-0.9,1-1.3c0.3-0.4,0.5-0.6,0.7-0.8l0,0l0,0c0-0.1,0.1-0.1,0.1-0.1
				c0.2-0.2,0.3-0.3,0.5-0.5c0.1,0,0.1-0.1,0.1-0.1c0.2-0.2,0.4-0.4,0.7-0.6c0.3-0.2,0.5-0.4,0.8-0.6c0.2-0.1,0.3-0.2,0.5-0.3
				c2.9-1.8,6.4-2.2,10-0.8c0.5,0.2,1.1,0.5,1.6,0.8c0.3,0.2,0.6,0.3,0.9,0.5c0.2,0.1,0.3,0.2,0.5,0.3c0.4,0.3,0.8,0.6,1.3,1l0,0
				c0.1,0.1,0.2,0.2,0.3,0.3l0.1,0.1l0,0c0.1,0.1,0.2,0.2,0.3,0.3c0.2,0.2,0.3,0.3,0.5,0.5s0.4,0.4,0.6,0.6c0.2,0.2,0.4,0.4,0.6,0.7
				l0.1,0.1c0.2,0.2,0.4,0.5,0.6,0.7l0,0c0.3,0.4,0.6,0.8,0.9,1.3c0.2,0.3,0.4,0.6,0.6,0.9c0.3,0.4,0.5,0.8,0.8,1.3
				c0.2,0.3,0.3,0.6,0.5,0.9c0.2,0.4,0.5,0.8,0.7,1.3c0.1,0.3,0.3,0.6,0.4,0.9c0.2,0.4,0.4,0.8,0.6,1.3c0.1,0.3,0.3,0.6,0.4,0.9
				c0.2,0.4,0.4,0.8,0.6,1.3C625.1,119.1,625.3,119.3,625.4,119.7L625.4,119.7C625.4,119.6,625.4,119.7,625.4,119.7z"/>
			<path class="st5" d="M581.3,174.4l-0.1,0.9h44.2v-0.9H581.3z M581.6,172.3l-0.1,0.9h43.9v-0.9H581.6z M581.9,170.2l-0.1,0.9h43.6
				v-0.9H581.9z M582.2,168l-0.1,0.9h43.3V168H582.2z M582.6,165.9l-0.1,0.9h42.9v-0.9H582.6z M582.9,163.7l-0.1,0.9h42.6v-0.9
				H582.9z M583.2,161.6l-0.1,0.9h42.3v-0.9H583.2z M583.5,159.5l-0.1,0.9h42v-0.9H583.5z M583.8,157.3l-0.1,0.9h41.7v-0.9H583.8z
				 M584.1,155.2L584,156h41.4v-0.9L584.1,155.2L584.1,155.2z M584.4,153l-0.1,0.9h41.1V153H584.4z M584.7,150.9l-0.1,0.9h40.8v-0.9
				H584.7z M585,148.8l-0.1,0.9h40.5v-0.9H585z M585.2,146.6L585.2,146.6c0,0.1,0.1,0.1,0.1,0.1c0,0.1,0,0.1,0.1,0.1l0,0l-0.1,0.6
				h40.1v-0.9L585.2,146.6L585.2,146.6z M597.8,144.5h-13.4c0.1,0.3,0.2,0.6,0.4,0.9h12.7C597.5,145.1,597.6,144.8,597.8,144.5z
				 M584.1,144.5c0.1,0.3,0.3,0.6,0.4,0.9h40.8v-0.9H584.1z M583.3,142.3c0.1,0.3,0.2,0.6,0.3,0.9h41.7v-0.9H583.3z M582.7,140.2
				c0.1,0.3,0.1,0.6,0.2,0.9h42.4v-0.9H582.7z M582.4,138.1L582.4,138.1c0,0.3,0.1,0.6,0.1,0.9h42.9v-0.9H582.4z M619.2,136.8
				c-0.1-0.3-0.2-0.6-0.3-0.9h-16.8c-0.1,0.3-0.1,0.6-0.2,0.9H619.2z M582.2,135.9c0,0.3,0,0.6,0,0.9h43.1v-0.9H582.2z M619.6,134.6
				c-0.1-0.3-0.2-0.6-0.3-0.9h-1.1c0.1,0.3,0.2,0.6,0.3,0.9H619.6z M582.4,133.8c0,0.3-0.1,0.6-0.1,0.9h43.1v-0.9H582.4z M583,131.6
				c-0.1,0.3-0.2,0.6-0.3,0.9h42.7v-0.9H583z M583.9,129.5c-0.1,0.3-0.3,0.6-0.4,0.9h41.8v-0.9H583.9z M585,127.4
				c-0.2,0.3-0.3,0.6-0.5,0.9h40.8v-0.9H585z M616.7,129.5h-24.5c0.6,0.3,1.3,0.6,2.1,0.9h22.6c-0.1-0.2-0.1-0.4-0.2-0.6
				C616.7,129.7,616.7,129.6,616.7,129.5z M586.2,125.2c-0.2,0.3-0.3,0.6-0.5,0.9h39.7v-0.9H586.2z M587.5,123.1
				c-0.2,0.3-0.3,0.6-0.5,0.9h38.4v-0.9H587.5z M615.4,125.2L615.4,125.2c0.1,0.3,0.2,0.6,0.4,0.9h0.1c-0.1-0.3-0.2-0.6-0.2-0.9
				H615.4z M588.8,120.9c-0.1,0.2-0.2,0.4-0.3,0.5s-0.2,0.2-0.2,0.3h37.1v-0.9L588.8,120.9L588.8,120.9z M625.4,119.6L625.4,119.6
				c-0.1-0.3-0.2-0.6-0.4-0.8h-34.8c-0.2,0.3-0.4,0.6-0.6,0.9L625.4,119.6C625.4,119.7,625.4,119.6,625.4,119.6z M624,116.7h-32.4
				c-0.2,0.3-0.4,0.6-0.6,0.9h33.4C624.3,117.2,624.2,116.9,624,116.7z M623,114.5h-29.9c0,0.1-0.1,0.1-0.1,0.2
				c-0.1,0.1-0.1,0.2-0.2,0.3c-0.1,0.1-0.2,0.3-0.3,0.4h30.9C623.3,115.1,623.1,114.8,623,114.5z M591.7,116.7
				c-0.1,0.2-0.3,0.4-0.4,0.6c0,0.1-0.1,0.1-0.1,0.2H605c0.1-0.3,0.1-0.6,0.2-0.9L591.7,116.7L591.7,116.7z M621.8,112.4h-27.2
				c-0.2,0.3-0.4,0.6-0.6,0.9h28.3C622.1,113,622,112.7,621.8,112.4z M620.4,110.2h-24.3c-0.2,0.3-0.4,0.6-0.6,0.9H621
				C620.8,110.8,620.6,110.5,620.4,110.2z M619.5,109c-0.2-0.3-0.4-0.5-0.6-0.7l-0.1-0.1h-21c-0.2,0.3-0.4,0.6-0.7,0.9L619.5,109
				L619.5,109z M617.2,106.3c-0.1-0.1-0.2-0.2-0.3-0.3l-0.1-0.1h-17.3l0,0l0,0c-0.2,0.2-0.4,0.4-0.7,0.8h18.9
				C617.5,106.7,617.4,106.5,617.2,106.3z M600.4,108.1c0.1,0.3,0.2,0.6,0.3,0.9h12.6c0.1-0.3,0.1-0.6,0.2-0.9H600.4z M614.7,104.4
				c-0.3-0.2-0.6-0.4-0.9-0.5h-11.6c-0.2,0.1-0.3,0.2-0.5,0.3c-0.3,0.2-0.5,0.4-0.8,0.6h14.3C615,104.6,614.9,104.5,614.7,104.4z"/>
			<path class="st1" d="M588.7,121.6c1.4-2.4,2.9-4.8,4.4-7.1l0,0c-1.2,1.6-2.3,3.3-3.4,4.9c0.1-0.1,0.1-0.2,0.1-0.3
				c0.3-0.6,0.6-1.3,0.9-1.9c0,0,0-0.1,0,0c-0.4,0.6-0.7,1.2-1,1.9c-0.2,0.4-0.3,0.7-0.5,1.1c-1.6,2.4-3.1,4.9-4.5,7.4
				c-2.1,3.9-2.9,8.2-2.2,12.6c0.2,1.2,0.5,2.4,1,3.5c0.5,1.2,1.1,2.2,1.7,3.3c0.1,0.1,0.2,0,0.1-0.1c-1.1-1.8-1.7-4-2.1-6.1
				c-0.4-2.1-0.4-4.3-0.2-6.5C583.8,129.5,586.4,125.5,588.7,121.6z"/>
		</g>
		<g>
			<g>
				<path class="st9" d="M611.9,105c-0.3,0.9-4.3,4.5-8.4,3.3c-2-0.6-1.8-5.5-1.8-5.5l-0.1-0.6l-0.7-8.1l10-4.7l1.4-0.6
					c0,0,0.1,2.2,0.1,5c0,0.1,0,0.3,0,0.4c0,0.2,0,0.3,0,0.5c0,0.4,0,0.8,0,1.3c0,0.3,0,0.6,0,1c0,0.3,0,0.7,0,1
					C612.4,101.3,612,104.7,611.9,105z"/>
				<path class="st1" d="M612.4,93.9c-3.1,5.9-8.4,7.8-10.8,8.4l-0.7-8.1l10-4.7l1.4-0.6C612.3,88.9,612.4,91.1,612.4,93.9z"/>
			</g>
			<g>
				<path class="st9" d="M590.7,82.3c-1.1,14.2,7.2,16.4,10.3,16.7c2.8,0.2,12.3,0.6,14.8-13.4c2.6-14-3.6-19-10-19.8
					C599.5,65,591.8,68.1,590.7,82.3z"/>
				<g>
					<path class="st1" d="M593,79.3c0.3,0,0.6-0.1,1-0.2c0.4-0.1,0.7-0.1,0.9-0.4c0.1-0.2,0.1-0.5,0-0.6c-0.3-0.4-0.8-0.4-1.2-0.3
						c-0.5,0.1-0.8,0.3-1.2,0.6C592.2,78.8,592.6,79.3,593,79.3z"/>
					<path class="st1" d="M602.3,79.8c-0.3,0-0.6-0.1-1-0.2c-0.4-0.1-0.7-0.1-0.9-0.4c-0.1-0.2-0.1-0.5,0-0.6
						c0.3-0.4,0.8-0.4,1.2-0.3c0.5,0.1,0.8,0.3,1.2,0.7C603.1,79.3,602.8,79.8,602.3,79.8z"/>
					<g>
						<g>
							<path class="st1" d="M600.1,83.4C600.1,83.3,600.2,83.4,600.1,83.4c0,1.1,0.1,2.2,1,2.5V86C600,85.8,599.9,84.3,600.1,83.4z"
								/>
							<path class="st1" d="M601,82.4c1.6-0.1,1.6,3.1,0.1,3.1C599.7,85.6,599.7,82.4,601,82.4z"/>
						</g>
						<path class="st1" d="M601.6,82.5c0.3,0.2,0.5,0.5,0.9,0.5s0.7-0.3,0.9-0.6h0.1c0,0.6-0.2,1.2-0.9,1.3c-0.6,0.1-1-0.4-1.2-1
							C601.4,82.6,601.5,82.5,601.6,82.5z"/>
					</g>
					<g>
						<g>
							<path class="st1" d="M594.9,82.9C594.9,82.8,594.8,82.9,594.9,82.9c0,1.1-0.1,2.2-1,2.5v0.1
								C594.9,85.3,595.1,83.8,594.9,82.9z"/>
							<path class="st1" d="M594,81.9c-1.6-0.1-1.6,3-0.2,3.1C595.2,85.1,595.3,81.9,594,81.9z"/>
						</g>
						<path class="st1" d="M593.4,82c-0.3,0.2-0.5,0.5-0.8,0.5s-0.6-0.3-0.8-0.7l0,0c0,0.6,0.2,1.2,0.7,1.4c0.5,0.1,0.9-0.4,1.1-1
							C593.5,82.2,593.5,82,593.4,82z"/>
					</g>
					<path class="st1" d="M600.9,91c-0.2,0.3-0.4,0.6-0.7,0.7c-0.3,0.1-0.7,0-1.1-0.1c0,0-0.1,0,0,0.1c0.3,0.3,0.9,0.5,1.3,0.3
						S600.9,91.4,600.9,91C601,90.9,600.9,90.9,600.9,91z"/>
					<g>
						<path class="st1" d="M596.3,87.2c0,0-0.2,1.4-0.2,2.1c0,0.1,0.2,0.1,0.4,0.1l0,0c1.2,0.2,2.4-0.2,3.2-1.2c0-0.1,0-0.1-0.1-0.1
							c-0.9,0.7-1.9,0.8-3,0.8c0-0.2,0.4-2.5,0.3-2.5c-0.4,0-1.1,0.2-1.6,0.3c0.3-3,1.2-6,1.5-9c0-0.1-0.1-0.1-0.2,0
							c-1.1,3-1.6,6.5-2,9.6C594.6,87.8,596,87.3,596.3,87.2z"/>
					</g>
					<g>
						<path class="st1" d="M596.5,89.3c0,0,0.6,1,1.6,1.4c0.3,0.1,0.7,0.2,1.1,0.1c0.8-0.2,0.9-0.9,0.8-1.5c-0.1-0.5-0.3-1-0.3-1
							S598.4,89.2,596.5,89.3z"/>
						<path class="st10" d="M598.1,90.6c0.3,0.1,0.7,0.2,1.1,0.1c0.8-0.2,0.9-0.9,0.8-1.5C599.1,89.2,598.2,89.8,598.1,90.6z"/>
					</g>
				</g>
				<path class="st1" d="M615.4,84.6c-1.5-0.1-5.5-4.3-5.7-11.8c0,0,0.6,6.7,1.1,7.6c0.5,1-2.2-2.4-2.4-8.4c0,0-3.3,2.4-6.1,3.2
					s-4.6,0.8-4.8,0.6s4-1.5,5.1-2.8c0,0-7.5,3.5-11,3.8c-0.4,0-0.9-8.2,4.5-11.7s13.9,0.3,16.1,2.5c0,0,2.7,0.4,5.6,4.3
					C620.7,75.9,617,84.7,615.4,84.6z"/>
				<g>
					<g>
						<path class="st9" d="M612.4,86.7c0,0,2.8-4.6,4.9-3.6c2.1,1,0.1,7.5-2.2,8.6c-2.3,1-3.3-1.1-3.3-1.1L612.4,86.7z"/>
						<path class="st1" d="M616.7,84.9C616.7,84.9,616.7,85,616.7,84.9c-1.6,0.8-2.4,2.4-2.9,4c0.5-0.6,1.1-1,2-0.5v0.1
							c-0.7-0.1-1.2,0-1.6,0.6c-0.3,0.4-0.5,0.9-0.7,1.4c-0.1,0.2-0.3,0.1-0.3-0.1l0,0C613,88.3,614.4,85.3,616.7,84.9z"/>
					</g>
					<path class="st8" d="M613.1,91.4c0,0.6,0.5,1,1.1,1s1-0.5,1-1.1s-0.5-1-1.1-1C613.5,90.3,613.1,90.8,613.1,91.4z"/>
				</g>
			</g>
		</g>
		<g>
			<g>
				<path class="st9" d="M625.4,119.7L625.4,119.7v31.5c0-0.1-0.1-0.2-0.1-0.3c-0.1-0.4-0.3-0.8-0.5-1.3c-0.1-0.3-0.2-0.6-0.3-0.9
					c-0.1-0.4-0.3-0.8-0.4-1.3c-0.1-0.3-0.2-0.6-0.3-0.9c-0.2-0.4-0.3-0.8-0.5-1.3c-0.1-0.3-0.2-0.6-0.3-0.9
					c-0.1-0.4-0.3-0.9-0.4-1.3c-0.1-0.3-0.2-0.6-0.3-0.9c-0.1-0.4-0.3-0.9-0.4-1.3c-0.1-0.3-0.2-0.6-0.3-0.9
					c-0.1-0.3-0.2-0.5-0.3-0.8V139l0,0c0-0.1-0.1-0.2-0.1-0.3c-0.1-0.3-0.2-0.6-0.3-0.9c-0.1-0.4-0.3-0.9-0.4-1.3
					c0-0.1-0.1-0.2-0.1-0.3s0-0.1-0.1-0.2c0-0.1-0.1-0.3-0.1-0.4c-0.2-0.4-0.3-0.9-0.4-1.3c-0.1-0.3-0.2-0.6-0.3-0.9
					c-0.1-0.4-0.3-0.9-0.4-1.3c-0.1-0.3-0.2-0.6-0.3-0.9c-0.1-0.3-0.2-0.7-0.3-1c0-0.1-0.1-0.2-0.1-0.3c-0.1-0.3-0.2-0.6-0.3-0.9
					c-0.1-0.4-0.3-0.9-0.4-1.3c-0.1-0.3-0.2-0.6-0.3-0.9c-0.1-0.4-0.3-0.9-0.4-1.3c-0.1-0.3-0.2-0.6-0.3-0.9
					c-0.1-0.4-0.3-0.9-0.4-1.3c-0.1-0.3-0.2-0.6-0.3-0.9c-0.1-0.4-0.3-0.9-0.4-1.3c-0.1-0.3-0.2-0.6-0.3-0.9
					c-0.1-0.4-0.3-0.9-0.4-1.3c-0.1-0.3-0.2-0.6-0.2-0.9c-0.1-0.4-0.2-0.7-0.3-1.1c0-0.1,0-0.1,0-0.2c-0.1-0.3-0.2-0.6-0.2-0.9
					c-0.1-0.4-0.2-0.9-0.3-1.3c-0.1-0.3-0.1-0.6-0.2-0.9c-0.1-0.4-0.1-0.9-0.2-1.3c0-0.3-0.1-0.6-0.1-0.9c0-0.4-0.1-0.9-0.1-1.3
					c0-0.3,0-0.6,0-0.9c0-0.5,0.1-0.9,0.1-1.3c0.1-0.3,0.1-0.6,0.2-0.9c0.2-0.5,0.4-0.9,0.6-1.3c0.5-0.6,1.1-0.9,1.8-0.9
					c0.2,0,0.5,0,0.7,0.1l0,0c1.4,0.3,3,1.5,5,3.6c1.2,1.3,2.3,2.7,3.5,4.1L625.4,119.7C625.4,119.6,625.4,119.7,625.4,119.7z"/>
			</g>
			<g>
				<path class="st4" d="M625.4,119.7L625.4,119.7v17.7l-1.5,0.7L622,139l-0.8,0.4l0,0l-0.9,0.4c0,0-0.1-0.3-0.3-0.8
					c-0.1-0.2-0.2-0.5-0.3-0.9s-0.3-0.8-0.4-1.3c-0.1-0.3-0.2-0.6-0.3-0.9c-0.1-0.4-0.3-0.8-0.4-1.3c-0.1-0.3-0.2-0.6-0.3-0.9
					c-0.1-0.4-0.3-0.8-0.4-1.3c-0.1-0.3-0.2-0.6-0.3-0.9c-0.1-0.3-0.2-0.7-0.3-1.1c0-0.1,0-0.1,0-0.2c-0.1-0.3-0.2-0.6-0.3-0.9
					c-0.1-0.4-0.2-0.8-0.4-1.3c-0.1-0.3-0.2-0.6-0.3-0.9c-0.1-0.4-0.2-0.8-0.3-1.3c-0.1-0.3-0.2-0.6-0.2-0.9
					c-0.1-0.4-0.2-0.9-0.3-1.3c-0.1-0.3-0.2-0.6-0.2-0.9c-0.1-0.4-0.2-0.9-0.3-1.3c-0.1-0.3-0.1-0.6-0.2-0.9
					c-0.1-0.2-0.1-0.4-0.2-0.6c0-0.2-0.1-0.4-0.1-0.6c-0.1-0.3-0.1-0.6-0.2-0.9c0-0.2-0.1-0.4-0.1-0.5c-0.1-0.3-0.1-0.5-0.2-0.7
					c-0.1-0.3-0.1-0.6-0.2-0.9c-0.1-0.4-0.2-0.9-0.2-1.3c0-0.3-0.1-0.6-0.1-0.9c0-0.4-0.1-0.9-0.1-1.3c0-0.3,0-0.6-0.1-0.9
					c0-0.4,0-0.9,0-1.3c0-0.3,0-0.6,0-0.9c0-0.5,0.1-0.9,0.2-1.3c0.1-0.3,0.1-0.6,0.2-0.9c0.1-0.5,0.3-0.9,0.6-1.3
					c0.3-0.4,0.6-0.7,0.9-0.9c0.4-0.2,0.9-0.3,1.5-0.3l0,0c1.7,0.2,3.8,1.6,6.5,4.5c0.8,0.9,1.6,1.8,2.4,2.8L625.4,119.7
					C625.4,119.6,625.4,119.7,625.4,119.7z"/>
				<g>
					<path class="st1" d="M621.1,139.3c-0.3,0.2-0.6,0.2-0.8,0.2c-0.1-0.8-1.1-4-1.4-4.8c-0.5-1.7-1-3.4-1.5-5.1
						c-1-3.4-2-6.9-3-10.3c0-0.1-0.1,0-0.1,0c0.4,2.4,1,4.8,1.6,7.2c-0.2-0.4-0.3-0.8-0.5-1.3c-0.3-0.8-0.6-1.7-1-2.5
						c0-0.1-0.1,0-0.1,0c0.2,0.9,0.5,1.7,0.9,2.6c0.3,0.6,0.6,1.3,0.9,1.9c0.2,0.8,0.4,1.7,0.7,2.5c0.5,1.7,1,3.4,1.5,5.2
						c0.3,0.8,0.5,1.6,0.8,2.4c0.3,0.8,1.1,2.6,1.1,2.5c0.4-0.1,0.6-0.3,1-0.5C621.3,139.4,621.2,139.2,621.1,139.3z"/>
					<path class="st1" d="M625.4,133.7v0.6c-0.3,0.1-0.6,0.3-0.8,0.3c-0.1,0-0.2,0.1-0.3,0.1c-0.9,0.4-1.9,0.8-2.8,1.2
						c-0.4,0.2-0.9,0.4-1.3,0.6l0,0c-0.1,0-0.2-0.1-0.1-0.1l0,0c0.2-0.1,0.5-0.2,0.8-0.4c0.8-0.4,1.7-0.9,2.5-1.3
						c0.4-0.2,0.7-0.3,0.8-0.4c0.2-0.1,0.5-0.2,0.9-0.4C625.3,133.8,625.3,133.7,625.4,133.7z"/>
				</g>
			</g>
		</g>
		<path class="st1" d="M600.2,105C600.2,105,600.3,105,600.2,105c-0.2,1.8-0.1,3.7,1.4,5c1.4,1.2,3.7,0.9,5.3,0.6
			c1.7-0.4,3.5-1.1,4.9-2.2c1.3-1,2.3-2.9,1.2-4.5c-0.1-0.1,0-0.1,0.1-0.1c0.9,1,1.1,2.4,0.5,3.5c-0.7,1.4-2.2,2.4-3.6,3
			c-1.6,0.7-3.3,1.2-5,1.3c-1.6,0.1-3.1-0.3-4.1-1.6C599.8,108.7,599.7,106.7,600.2,105z"/>
	</g>
</g>
<path class="st3" d="M625.4,119.7L625.4,119.7L625.4,119.7C625.4,119.6,625.4,119.7,625.4,119.7z"/>
<path class="st3" d="M625.5,368.6c-0.1,0.1-0.1,0.3-0.2,0.4v-0.2C625.4,368.7,625.5,368.7,625.5,368.6z"/>
<g>
	<g>
		<g>
			<g>
				<g>
					<path class="st11" d="M177.8,416.5c-2.3,0.7-67.3-0.1-69.7-1.7c-0.9-0.6-1.4-10.1-1.6-21.5c0-0.1,0-0.2,0-0.4
						c0-2.4-0.1-4.8-0.1-7.3c0-0.3,0-0.7,0-1l3.2-33.7l43.5,0.4l-4.3,33.4v1.3l-0.3,6.9v0.7c0,0,24.7,11.5,27.2,13.5
						C178.1,409.3,180,415.8,177.8,416.5z"/>
					<path class="st0" d="M177.8,416.5c-2.3,0.7-67.3-0.1-69.7-1.7c-0.9-0.6-1.4-10.1-1.6-21.5c0-0.1,0-0.2,0-0.4
						c0-2.4-0.1-4.8-0.1-7.3c0-0.3,0-0.7,0-1l42.3,0.1v1.3l-0.3,6.9v0.7c0,0,24.7,11.5,27.2,13.5C178.1,409.3,180,415.8,177.8,416.5
						z"/>
					<g>
						<path class="st4" d="M177.8,416.5c-1.2,0.4-18.8,0.3-36.1,0c-3.5-0.1-6.9-0.1-10.2-0.2c-12.3-0.3-22.5-0.8-23.4-1.5
							c-0.9-0.6-1.4-9.8-1.6-21.1c0-0.2,0-0.3,0-0.5c0-0.1,0-0.2,0-0.4l0,0l41.9,0.1v0.7c0,0,24.7,11.4,27.2,13.5
							C178.1,409.3,180,415.8,177.8,416.5z"/>
						<g>
							<g>
								<path class="st1" d="M177.1,414c-11-0.4-55.2-1-66-0.6c-0.1,0-0.1,0.1,0,0.1c10.8,0.6,55.1,0.9,66,0.7
									C177.3,414.2,177.3,414,177.1,414z"/>
								<path class="st1" d="M153.1,393.2c-4.3-0.9-9.6-0.3-12.9,2.8c-0.1,0.1,0,0.3,0.2,0.3c4.3-1.3,8.3-2.1,12.7-2.5
									C153.4,393.7,153.4,393.3,153.1,393.2z"/>
								<path class="st1" d="M156.2,395.1c-4.3-0.9-9.6-0.3-12.9,2.8c-0.1,0.1,0,0.3,0.2,0.3c4.3-1.3,8.3-2.1,12.7-2.5
									C156.5,395.6,156.5,395.2,156.2,395.1z"/>
								<path class="st1" d="M159.3,397c-4.3-0.9-9.6-0.3-12.9,2.8c-0.1,0.1,0,0.3,0.2,0.3c4.3-1.3,8.3-2.1,12.7-2.5
									C159.5,397.5,159.6,397.1,159.3,397z"/>
							</g>
						</g>
						<path class="st1" d="M141.7,416.5c-3.5-0.1-6.9-0.1-10.2-0.2c-12.3-0.3-22.5-0.8-23.4-1.5c-0.9-0.6-1.4-9.8-1.6-21.1
							c0-0.2,0-0.3,0-0.5c0-0.1,0-0.2,0-0.4l0,0C112.3,397,132.5,410.4,141.7,416.5z"/>
					</g>
				</g>
				<g>
					<path class="st12" d="M151,393.2h-46.8c0,0,9.4-109.3,9.1-111.2c-0.5-2.4-17.9-70.8-21.3-83.8c-5-19.4-9-34.4-9-34.4h39.7
						c0,0,4.6,14.7,10.4,33.7c9.5,31,22.2,73.6,23.4,84C158.6,298.2,151,393.2,151,393.2z"/>
					<g>
						<g>
							<path class="st1" d="M149.2,385.2c-7.1-0.1-5.1-0.2-12.2-0.3c-3.5,0-26.5-0.2-29.8,0.3c-0.1,0-0.1,0.1,0,0.1
								c3.3,0.5,26.3,0.3,29.8,0.3c7.1-0.1,5.1-0.1,12.2-0.3C149.3,385.4,149.3,385.2,149.2,385.2z"/>
						</g>
						<path class="st1" d="M122.3,275.2c-1.5-6.8-3.8-13.4-5.8-20c-4.1-13.5-8.1-27-12.2-40.5c-2-6.7-4.1-13.5-6.2-20.2
							c-1-3.4-2.1-6.8-3.2-10.2c-1-3.3-2.2-6.6-3.2-10c-0.4-1.4-0.6-0.6-0.1,1.1c1,3.5,2,7,3,10.5c2,6.9,4,13.8,6.1,20.7
							c4.1,13.7,8.2,27.4,12.3,41.1c2.1,6.9,4.1,13.7,6.2,20.6c1,3.3,2,6.6,2.5,10c0.6,3.5,0.6,7.1,0.4,10.7
							c-0.4,7.2-1.3,14.3-1.9,21.5c-0.7,7.2-1.3,14.3-2,21.5c-1.3,14.2-2.6,28.5-3.9,42.8c-0.2,1.8-0.3,3.6-0.5,5.4
							c0,0.6,0.9,0.6,0.9,0c1.5-14.1,2.7-28.2,4-42.3c1.3-14,2.6-28.1,3.9-42.1c0.3-3.5,0.7-7.1,0.7-10.6
							C123.5,281.7,123,278.4,122.3,275.2z"/>
					</g>
					<path class="st1" d="M118.4,163.7c-2.4,18.8-5.8,82-6.5,111.6c-4.5-17.9-16.9-66.5-19.7-77.2c-4.6-17.9-8.3-32-8.9-34.2l0,0
						c0-0.1,0-0.1,0-0.2v-0.1h35.1V163.7z"/>
				</g>
			</g>
			<g>
				<g>
					<path class="st11" d="M128.9,416.5c-2.3,0.7-67.3-0.1-69.7-1.7c-0.9-0.6-1.4-10.1-1.6-21.5c0-0.1,0-0.2,0-0.4
						c0-2.4-0.1-4.8-0.1-7.3c0-0.3,0-0.7,0-1l3.2-33.7l43.5,0.4l-4.3,33.4v1.3l-0.3,6.9v0.7c0,0,24.7,11.5,27.2,13.5
						C129.2,409.3,131.2,415.8,128.9,416.5z"/>
					<path class="st0" d="M128.9,416.5c-2.3,0.7-67.3-0.1-69.7-1.7c-0.9-0.6-1.4-10.1-1.6-21.5c0-0.1,0-0.2,0-0.4
						c0-2.4-0.1-4.8-0.1-7.3c0-0.3,0-0.7,0-1l42.3,0.1v1.3l-0.3,6.9v0.7c0,0,24.7,11.5,27.2,13.5
						C129.2,409.3,131.2,415.8,128.9,416.5z"/>
					<g>
						<path class="st4" d="M128.9,416.5c-1.2,0.4-18.8,0.3-36.1,0c-3.5-0.1-6.9-0.1-10.2-0.2c-12.3-0.3-22.5-0.8-23.4-1.5
							c-0.9-0.6-1.4-9.8-1.6-21.1c0-0.2,0-0.3,0-0.5c0-0.1,0-0.2,0-0.4l0,0l41.9,0.1v0.7c0,0,24.7,11.4,27.2,13.5
							C129.3,409.3,131.2,415.8,128.9,416.5z"/>
						<g>
							<g>
								<path class="st1" d="M128.2,414c-11-0.4-55.2-1-66-0.6c-0.1,0-0.1,0.1,0,0.1c10.8,0.6,55.1,0.9,66,0.7
									C128.4,414.2,128.4,414,128.2,414z"/>
								<path class="st1" d="M104.2,393.2c-4.3-0.9-9.6-0.3-12.9,2.8c-0.1,0.1,0,0.3,0.2,0.3c4.3-1.3,8.3-2.1,12.7-2.5
									C104.5,393.7,104.5,393.3,104.2,393.2z"/>
								<path class="st1" d="M107.3,395.1c-4.3-0.9-9.6-0.3-12.9,2.8c-0.1,0.1,0,0.3,0.2,0.3c4.3-1.3,8.3-2.1,12.7-2.5
									C107.6,395.6,107.6,395.2,107.3,395.1z"/>
								<path class="st1" d="M110.4,397c-4.3-0.9-9.6-0.3-12.9,2.8c-0.1,0.1,0,0.3,0.2,0.3c4.3-1.3,8.3-2.1,12.7-2.5
									C110.7,397.5,110.7,397.1,110.4,397z"/>
							</g>
						</g>
					</g>
				</g>
				<g>
					<path class="st12" d="M121.4,163.7c0,0-0.9,19-5.3,34c-0.3,1.2-0.7,2.5-1.1,3.6c0,0,0.6-0.5-6.3,3.8c0,0,2.7,75.5,2.8,80
						c0.4,16.9-11.9,108.7-11.9,108.7L52.8,394c0,0,16.7-104.2,16.7-110.4c-0.1-9.9-6-53.1-4.2-85c1.1-19.7,9.5-34.9,9.5-34.9
						L121.4,163.7L121.4,163.7z"/>
					<g>
						<path class="st1" d="M98.3,385.5c-7.1-0.1-5.1-0.2-12.2-0.2c-3.5,0-26.5-0.1-29.8,0.4c-0.1,0-0.1,0.1,0,0.1
							c3.3,0.5,26.3,0.2,29.8,0.2c7.1-0.1,5.1-0.1,12.2-0.3C98.4,385.7,98.4,385.5,98.3,385.5z"/>
						<path class="st1" d="M77.9,166.5c-5.9,11.4-8.1,24.3-8.6,37c-0.5,13.8,1.1,27.5,2.6,41.2c1.5,14.4,2.9,28.8,1.7,43.3
							c-1.1,14.6-3.7,29.1-5.8,43.6s-4.3,29-6.1,43.5c-0.2,1.8-0.5,3.7-0.7,5.5c0,0.1,0.1,0.1,0.1,0c2.6-14.3,4.7-28.7,6.9-43.1
							c2.2-14.3,4.6-28.7,6.1-43.1s0.9-28.7-0.6-43.1c-1.4-13.9-3.2-27.7-3.3-41.6c0-13,1.3-26.2,5.9-38.4c0.6-1.6,1.3-3.2,2-4.8
							C78.2,166.3,78,166.3,77.9,166.5z"/>
					</g>
				</g>
				<g>
					<path class="st1" d="M117.2,200.2c-4.7,1.9-9.1,4.4-13.4,7c-0.2,0.1,0,0.4,0.1,0.3c4.5-2.2,9.1-4.3,13.5-6.7
						C117.8,200.6,117.6,200.1,117.2,200.2z"/>
				</g>
				<path class="st1" d="M117.5,184.1c-0.3,1.7-0.7,3.3-1.1,5c-0.3,1.6-0.6,3.1-1,4.7c-0.4,1.5-1,2.9-2.2,3.9
					c-0.6,0.6-1.3,1.1-1.9,1.6c-0.3,0.3-0.7,0.5-1.1,0.8c0-0.2,0.1-0.4,0.1-0.7c0.1-0.6,0.2-1.3,0.3-1.9c0.2-1.4,0.5-2.8,0.7-4.2
					c0.4-2.8,0.8-5.5,1.4-8.3c0-0.1-0.1-0.2-0.2,0c-0.7,2.7-1.4,5.4-2,8.1c-0.3,1.3-1.3,8-1.4,8.4c0,0.5-0.1,1-0.1,1.5s-0.1,1,0,1.5
					c0,0.1,0.2,0.1,0.2,0l0,0c0.2-0.4,0.3-1,0.4-1.4c0.1-0.5,0.2-1,0.3-1.4c0-0.2,0.1-0.4,0.1-0.5c0.7-0.4,1.3-0.9,1.9-1.4
					c0.7-0.5,1.3-0.9,1.9-1.5c1.2-1,1.9-2.2,2.4-3.7s0.6-3.2,0.8-4.8c0.2-1.9,0.4-3.8,0.6-5.6C117.7,184.1,117.5,184,117.5,184.1z"
					/>
			</g>
		</g>
	</g>
	<path class="st11" d="M114.3,109.9c0.6,7.8,5.2,26.1,15.5,42.4c4,6.3,20,14.5,33.1,19.9c6.1,2.5,11.6,4.4,14.9,5.1l0,0
		c0.6,0.1,1.1,0.2,1.6,0.3c6.3,0.7,10.6-8.7,11.2-15.8c0-0.2,0-0.4,0-0.6c0-0.1,0-0.2,0-0.3c0.2-2.9-0.3-5.2-1.6-6.2
		c-0.4-0.3-0.8-0.5-1.4-0.9c-2.4-1.3-6.7-3.2-11.7-5.2c-1.2-0.5-2.4-1-3.6-1.5c-11.5-4.6-24.7-9.6-26-10.8
		c-2-1.8-14.4-16.2-21.5-28.5C119.8,98.8,113.3,96.9,114.3,109.9z"/>
	<path class="st11" d="M162.9,172.1c6.1,2.5,11.6,4.4,14.9,5.1l0,0c4.4,1.2,12.6,2.6,19.3,2.6c4,0,15.5-1.2,15.7-4.3
		c0.2-3.1-3.1-3-3.1-3s4.8-1.2,4.7-4.3c0-2.6-3.6-2.8-4.9-2.9c0,0-0.1,0-0.2,0l0,0l0,0c-0.2,0-0.2,0-0.2,0s4.8-1.6,4.6-4.7
		c-0.2-2.8-4.5-2.2-5.4-2l0,0c0.7-0.2,4.2-1.5,3-3.7c-1.6-3-9.5,0.3-14,0.1c-0.2,0-1.3-0.1-2.9-0.3c-3.3-2.5-7.4-4.8-9.2-5.2
		c-2.3-0.5-6.7-0.8-9.3-0.8c-1.2-0.5-2.4-1-3.6-1.5C170,149.9,162.6,159.3,162.9,172.1z"/>
	<g>
		<path class="st11" d="M177.2,152.5l-0.9,13.4l0,0v0.3l-0.7,10.2c0.5,0.2,1.4,0.5,2.4,0.8l0,0c4.4,1.2,12.6,2.6,19.3,2.6
			c4,0,15.5-1.2,15.7-4.3c0.2-3.1-3.1-3-3.1-3s4.8-1.2,4.7-4.3c0-2.6-3.6-2.8-4.9-2.9c-0.1,0-0.1,0-0.2,0l0,0c-0.2,0-0.2,0-0.2,0
			s4.8-1.6,4.6-4.7c-0.2-2.8-4.5-2.2-5.4-2c-0.1,0-0.1,0-0.1,0h0.1c0.7-0.2,4.2-1.5,3-3.7c-1.6-3-9.5,0.3-14,0.1
			c-0.2,0-1.3-0.1-2.9-0.3c-1.8-0.2-4.3-0.5-6.8-0.8C182.5,153.2,177.2,152.5,177.2,152.5z"/>
		<g>
			<path class="st1" d="M193.1,160.1c2.1,0.6,3.9,1,5.6,1.2c3.2,0.3,6-0.2,9.6-2.4c0.2-0.1,0.2-0.2,0.1-0.3l0,0c0,0-0.1,0-0.2,0
				c-3.6,1.5-6.1,2.1-8.9,2c-1.8,0-3.7-0.3-6.1-0.7C193,159.9,193,160.1,193.1,160.1z"/>
			<path class="st1" d="M193.3,166.8c6.4,1.2,10.1,1.6,16.2-1.2c0.2-0.1,0.2-0.3,0.1-0.3c0,0-0.1,0-0.2,0l0,0l0,0
				c-6.3,2-9.5,2-16.1,1.4V166.8z"/>
			<path class="st1" d="M209.2,172.7c-6.3,1.5-9.8,1.7-16.1,0.2c-0.1,0-0.2,0.2-0.1,0.2C199.2,175.2,203.7,175,209.2,172.7
				C209.6,172.7,209.6,172.6,209.2,172.7z"/>
		</g>
	</g>
	<g>
		<path class="st11" d="M178.8,165.7c0.3,0,0.7-0.1,1-0.2c0.1,0,0.2-0.1,0.3-0.1l0,0c5.1-1.7,7-9.3,7-9.3c1.4,0.3,3.3,0.7,5.3,0.8
			c2.6,0.1,5.2-0.1,6.7-1.1l0,0c0.4-0.3,0.8-0.6,1-1c0.1-0.2,0.2-0.5,0.3-0.7c0,0,0,0,0-0.1c0.2-1.4-2.7-3.1-6.2-4.4
			c-3.9-1.5-8.4-2.5-10.3-2.4c-2.4,0.1-6.6,1.1-9.1,1.8c-1.3,0.3-2.1,0.6-2.1,0.6S172.7,166.4,178.8,165.7z"/>
		<path class="st1" d="M199.8,155c-3.4,2.9-8.6,1.3-12.6,0.7c-0.3,0-0.4,0.2-0.4,0.4c-1.2,3.7-3.9,8.5-7.8,9.7c-0.1,0-0.1,0.2,0,0.2
			c4.3-0.7,7.4-5.3,8.4-9.4C191.6,157.4,196.8,158.7,199.8,155L199.8,155z"/>
	</g>
	<path class="st4" d="M118.8,133.6l24.8-2.8c0,0-15.4-22.8-21.8-28.2c-7.2-6.1-8.8-1.1-8.1,7.9C114.4,119.4,118.8,133.6,118.8,133.6
		z"/>
	<path class="st5" d="M118.8,133.6l24.8-2.8c0,0-15.4-22.8-21.8-28.2c-7.2-6.1-8.8-1.1-8.1,7.9C114.4,119.4,118.8,133.6,118.8,133.6
		z"/>
	<path class="st1" d="M138.8,126.3c-3.2,0-12.9,1.3-14.5,1.5c-0.8,0.1-4.2,0.7-5,0.8c-0.1,0-0.1,0.2,0,0.2c1.6-0.2,3.2-0.2,4.8-0.4
		s11.5-1.1,14.6-1.9C138.9,126.5,138.9,126.3,138.8,126.3z"/>
	<path class="st1" d="M132.1,132.1l-13.3,1.5c0,0-4.4-14.1-5-23.1c-0.5-6.5,0.2-11,3.4-10.5L132.1,132.1z"/>
	<g>
		<path class="st4" d="M66.8,182c0.1,0.2,64.4,6.8,65.1,6.1c1-0.9-5.2-76.2-11.3-86c-1.3-2.1-11.7-5-16.4-1.7
			C89.4,110.8,66.3,181.3,66.8,182z"/>
		
			<rect x="107.9" y="119.3" transform="matrix(9.850461e-02 -0.9951 0.9951 9.850461e-02 -26.6741 221.5527)" class="st13" width="2" height="12.3"/>
	</g>
	<g>
		<path class="st14" d="M102.5,101.6"/>
	</g>
	<g>
		<path class="st4" d="M158.2,136.9c-0.3,0.5-8,14.8-8.3,16.4c-0.3,1.6-11,40.9-10.4,42.1s17.4,7.8,18.1,7.8c0.7,0,34-7.4,35.8-8.7
			c1.7-1.2,2.4-31.9,1.8-35c-0.7-3.1-2.7-8.8-2.7-8.8l1.2-1.7c0,0-3.4-14.4-4.1-13.9C189,135.5,158.9,135.9,158.2,136.9z"/>
		<path class="st5" d="M157.6,203.2c-0.7,0-17.5-6.6-18.1-7.8c-0.6-1.2,10.1-40.5,10.4-42.1c0.3-1.6,8-15.9,8.3-16.4
			c1.4,3,2.6,16.2,2.8,17.9C161.2,156.6,157.9,199.7,157.6,203.2z"/>
		<path class="st5" d="M192.5,150.7c-2.5,0.4-5.1,0.6-7.7,0.9c-2.6,0.3-5.1,0.5-7.7,0.6c-2.6,0.2-5.1,0.3-7.7,0.5
			c-2.6,0.1-5.1,0.2-7.7,0.3l0,0l0,0c-0.4-0.1-0.5-0.3-0.6-0.5s-0.2-0.4-0.2-0.6c-0.1-0.4-0.2-0.8-0.3-1.2c-0.1-0.8-0.2-1.6-0.3-2.3
			c0.1,0.8,0.3,1.5,0.5,2.3c0.1,0.4,0.2,0.7,0.4,1.1c0.1,0.3,0.4,0.7,0.5,0.7l0,0c2.6-0.2,5.1-0.5,7.7-0.7s5.1-0.4,7.7-0.5
			c2.6-0.2,5.1-0.3,7.7-0.4C187.3,150.8,189.9,150.7,192.5,150.7z"/>
		<polygon class="st8" points="184.2,156.5 179.5,156.5 176.4,147.1 181.1,147 		"/>
		<g class="st15">
			<path d="M157.7,140.3c-0.6,4.3-1.3,8.6-2,12.9c-0.7,4.3-1.5,8.6-2.2,12.9c-0.8,4.3-1.6,8.6-2.5,12.8l-1.3,6.4
				c-0.5,2.1-0.9,4.3-1.4,6.4c0.3-2.2,0.6-4.3,0.9-6.5l1-6.4c0.7-4.3,1.5-8.6,2.2-12.9c0.8-4.3,1.6-8.6,2.5-12.8
				C155.9,148.8,156.8,144.5,157.7,140.3z"/>
			<path d="M140.9,194.7c2.4-1.3,4.8-2.4,7.3-3.5l0.3-0.1l0.2,0.3c1.3,1.5,2.7,3.1,3.9,4.7c1.3,1.6,2.5,3.2,3.7,4.9
				c-1.5-1.4-2.9-2.9-4.3-4.3c-1.4-1.5-2.7-3-4-4.6l0.5,0.1C146,193.1,143.5,194,140.9,194.7z"/>
		</g>
	</g>
	<g>
		<path class="st11" d="M98.2,108.1c-6,16.2-17.3,56.7-8.9,61.8c13.6,8.5,41.4,11.1,49.8,11c3.6,0,7.9-27.8,4.1-28.8
			c-4.5-1.2-33.3-2.1-33.9-4.4c-0.3-1.3,0.6-14.5-1-29.1C106.4,101.8,100.2,102.6,98.2,108.1z"/>
		<g>
			<path class="st11" d="M130.8,154.2c0,0,9.2-6.1,15.4-9.8c3.5-2.1,9.7-5.1,12.9-5.4c4.8-0.5,25.4,0.3,25.3,5.3
				c-0.1,4.5-17.6,1.6-17.6,1.6s18,1.4,16.9,6.8c-1.1,5.4-20.5-0.6-20.5-0.6s18.4,1.9,16.4,7.3c-1.5,4.1-19.4-0.3-19.4-0.3
				s15.8,1.7,14.5,6c-1.5,4.7-18.3,1.7-18.3,1.7c-5.4,10.3-11.9,13.6-17.1,14.3C137.9,181.1,130.8,154.2,130.8,154.2z"/>
			<g>
				<path class="st1" d="M160.5,144.9c2.1,0.1,4.3,0.2,6.4,0.4c2.1,0.3,4.2,0.6,6.3,1.1c5.1,1.2,8.1,2.7,7.9,2.6
					c-4.6-1.7-12.1-2.9-14.2-3.1C164.7,145.7,162.6,145.3,160.5,144.9C160.4,145,160.5,144.9,160.5,144.9z"/>
				<path class="st1" d="M159.4,152.5c2.7,0.2,5.4,0.4,8.1,0.7s5.2,0.9,7.8,1.4c0.2,0,0.1,0.1-0.1,0.1c-2.7-0.4-5.2-0.6-7.8-1
					C164.7,153.4,162,152.9,159.4,152.5C159.3,152.6,159.3,152.5,159.4,152.5z"/>
				<path class="st1" d="M157.2,158.8c4.1,0.1,8.3,1.1,12.3,2c0.2,0,0.1,0.2-0.1,0.1c-4.1-0.8-7.3-1.4-12.1-2
					C157.1,159,157.1,158.8,157.2,158.8z"/>
			</g>
		</g>
		<path class="st1" d="M154.6,140.1c-4,0.9-17.8,9.6-19.3,10.9c-1.1-0.1-5.8-0.4-6.4-0.3c-0.1,0-0.1,0.2,0,0.2
			c0.5,0.2,5.2,0.9,6.3,1c0.2,0,16.2-10,19.6-11.6C155,140.1,154.8,140,154.6,140.1z"/>
	</g>
	<path class="st4" d="M111,135.5l-24.3,5.8c0,0,6.8-26.6,11-33.9c4.7-8.2,7.9-4,10.3,4.7C110.3,120.8,111,135.5,111,135.5z"/>
	<path class="st5" d="M111,135.5l-24.3,5.8c0,0,6.8-26.6,11-33.9c4.7-8.2,7.9-4,10.3,4.7C110.3,120.8,111,135.5,111,135.5z"/>
	<g>
		<path class="st1" d="M109.1,131.4c-3.2,0.3-12.7,2.6-14.2,3c-0.8,0.2-4.1,1.1-4.9,1.3c-0.1,0,0,0.2,0.1,0.2
			c1.6-0.4,3.2-0.5,4.8-0.9c1.6-0.3,11.3-2.3,14.3-3.4C109.2,131.4,109.2,131.3,109.1,131.4z"/>
		<path class="st1" d="M93.6,117.7c0-0.1-0.1-0.1-0.2,0c-0.8,2.2-1.6,4.4-2.3,6.6c0.1-1.2,0.3-2.4,0.7-3.6c0-0.1-0.1-0.1-0.1,0
			c-0.4,1.3-0.7,2.8-0.8,4.2c-0.5,1.5-1,3.1-1.5,4.7c-1.2,4-2.5,7.9-3.5,11.9c-0.1,0.2,0.2,0.4,0.4,0.3c0.8-0.2,1.7-0.5,2.5-0.8
			c0.1,0,0.1-0.2,0-0.2c-0.7,0.1-1.4,0.2-2.1,0.3c1.3-3.8,2.4-7.7,3.5-11.5C91.4,125.7,92.6,121.7,93.6,117.7z"/>
		<path class="st1" d="M110.5,124.8c0-1.3,0.1-2.6,0-4l0,0c-0.1,1-0.1,1.9-0.1,2.9c-0.3-1.9-0.5-3.8-0.9-5.7c0,0-0.1,0,0,0
			c0.1,2.9,0.4,5.8,0.6,8.8c0.2,2.9,0.5,5.7,0.7,8.6c-0.5,0.2-1.1,0.4-1.6,0.6c-0.1,0-0.1,0.2,0,0.2c0.6-0.1,1.2-0.2,1.9-0.3
			c0.1,0,0.3-0.1,0.3-0.3C111.2,132,111,128.4,110.5,124.8z"/>
	</g>
	<g>
		<g>
			<path class="st11" d="M115.8,110.8c-2.3,0.1-8.5-4.7-10.5-9.3c-0.1-0.3,2.2-12.5,2.4-15c0-0.5,15.1,5.1,15.1,5.1s-2,5-2.3,9.3
				c0,0.4,0,0.7,0,1c0,0,0,0.1,0,0.2C120.6,104.1,119.1,110.6,115.8,110.8z"/>
		</g>
		<path class="st1" d="M108.6,86.7c0.3,3.8,1.7,14.4,10.2,15.4c0.6,0.1,1.1,0.1,1.6,0c0-0.1,0-0.1,0-0.2c0-0.3,0-0.7,0-1
			c0.3-4.3,2.3-9.3,2.3-9.3S112,87.6,108.6,86.7z"/>
	</g>
	<g>
		<path class="st11" d="M109.3,65.7c-2.8,5-3.3,21.1-0.3,25.4c4.4,6.2,13.4,8.7,19.1,2.9c5.5-5.5,5.9-26.6,2.3-30.6
			C125.1,57.5,113.4,58.3,109.3,65.7z"/>
	</g>
	<g>
		<g>
			<path class="st1" d="M122.1,78.4C122.1,78.3,122,78.4,122.1,78.4c-0.1,1.2-0.3,2.4-1.3,2.7v0.1C122,81,122.3,79.4,122.1,78.4z"/>
			<path class="st1" d="M121.2,77.2c-1.7-0.2-2,3.3-0.4,3.5C122.4,80.9,122.6,77.4,121.2,77.2z"/>
		</g>
		<g>
			<path class="st1" d="M128.3,79l0.1,0.1c-0.1,1.1-0.1,2.3,0.9,2.8V82C128.1,81.7,128.1,80,128.3,79z"/>
			<path class="st1" d="M129.4,78c1.8,0,1.6,3.5,0,3.5C127.8,81.5,127.9,78,129.4,78z"/>
		</g>
		<path class="st1" d="M119.9,75.5c0.5-0.1,0.9-0.2,1.4-0.4c0.5-0.1,1-0.2,1.3-0.6c0.2-0.2,0.2-0.7,0-0.9c-0.5-0.5-1.2-0.5-1.8-0.3
			c-0.7,0.2-1.2,0.5-1.6,1C118.7,74.8,119.3,75.6,119.9,75.5z"/>
		<path class="st1" d="M130.9,76.3c-0.5-0.1-0.9-0.3-1.4-0.5s-1-0.3-1.3-0.7c-0.2-0.2-0.1-0.7,0.1-0.9c0.5-0.5,1.2-0.4,1.9-0.2
			s1.2,0.6,1.6,1.2C132.1,75.7,131.5,76.5,130.9,76.3z"/>
		<path class="st1" d="M120.3,88.3c0.2,0.3,0.5,0.6,0.9,0.7c0.4,0.1,0.8-0.1,1.2-0.2c0,0,0.1,0,0,0.1c-0.3,0.4-0.9,0.6-1.4,0.5
			s-0.7-0.6-0.8-1C120.2,88.3,120.3,88.3,120.3,88.3z"/>
		<g>
			<g>
				<path class="st1" d="M121.7,85.2c0.5,1,1.4,1.6,2.3,1.8c0.4,0.1,0.9,0.2,1.3,0.2c0.1,0,0.2,0,0.3,0s0.2,0,0.2,0
					c0.1,0,0.2-0.1,0.2-0.2l0,0v-0.1l0,0v-0.1c0.1-0.8,0.1-2.1,0.1-2.1c0.3,0.2,1.8,1,1.8,0.6c0.1-3.6,0.1-7.7-0.6-11.3
					c0-0.1-0.2-0.1-0.2,0c-0.2,3.5,0.2,7,0.1,10.5c-0.5-0.2-1.3-0.6-1.7-0.7c-0.1,0,0,2.5-0.1,2.8l0,0c-1.4,0.1-2.4-0.4-3.7-1.5
					C121.7,85,121.6,85.1,121.7,85.2z"/>
			</g>
		</g>
		<g>
			<path class="st1" d="M124.9,86.7c0,0-0.8,0.9-1.9,1.2c-0.4,0.1-0.8,0.1-1.2,0c-0.8-0.3-0.8-1.1-0.6-1.8c0.2-0.5,0.5-1,0.5-1
				S122.9,86.4,124.9,86.7z"/>
			<path class="st10" d="M123,87.9c-0.4,0.1-0.8,0.1-1.2,0c-0.8-0.3-0.8-1.1-0.6-1.8C122.2,86.3,123,87,123,87.9z"/>
		</g>
	</g>
	<path class="st1" d="M107.3,80.4c3-0.4,5.9-9.7,5.9-9.7s-0.7,4,0.1,4.1c0.8,0,4.7-5,5.7-8.9c0,0,3.2,3,6.6,4.6
		c3.4,1.6,7.1,1.9,7,1.3c-0.1-1.9-0.3-6.7-1.5-8.1c-2.2-2.7-7.1-5.6-13.3-4.2c-6.2,1.3-8.3,4.9-9.7,7.7
		C106.8,70,106.2,80.6,107.3,80.4z"/>
	<g>
		<path class="st11" d="M109.9,79.1c0,0-2.5-5.7-5.1-4.9c-2.5,0.8-1.3,8.6,1.2,10.1s3.9-0.7,3.9-0.7L109.9,79.1z"/>
		<path class="st1" d="M105.2,76.4C105.2,76.4,105.1,76.4,105.2,76.4c1.7,1.2,2.3,3.1,2.7,5.1c-0.4-0.8-1.1-1.3-2.2-0.9
			c-0.1,0,0,0.1,0,0.1c0.8,0,1.3,0.2,1.7,0.9c0.3,0.5,0.4,1.1,0.6,1.7c0.1,0.2,0.4,0.2,0.4-0.1l0,0
			C108.9,80.9,107.7,77.1,105.2,76.4z"/>
	</g>
	<g>
		<path class="st16" d="M135.6,70.3c0,0,6.3,5,2.9,12.6h-28.8l-3.1-11.6l10.9-8.5L135.6,70.3z"/>
		<path class="st8" d="M135.6,68.3c0,0,0.1,0.1,0.1,0.2c0.2,0.4,0.6,1.4,0.2,2.1h-21.4c0,0-4.5,0.5-2.9,5.1c1.3,4,1.7,6.6-0.1,8.2
			s-4.7,2.4-7.1-0.2c-2.4-2.6-0.5-16.5-0.5-16.5l9.6-4.8l13.2-1.9L135.6,68.3z"/>
		<path class="st4" d="M136.2,68.4c0,0-1.1-18-20.1-17.2s-23.7,32.5-8.8,33.1c0,0,6.4-1.4,2.7-8.7c0,0-2.5-6.8,3.7-6.8
			c4.9,0,22.4,0,22.4,0v-0.4H136.2z"/>
	</g>
</g>
<g>
	<path class="st6" d="M370.3,347.5c31.1,0,49.1,21.6,49.1,47s-16.7,46.5-47,46.5c-33.5,0-49.6-26.7-49.6-46.7
		C322.8,374.2,338.8,347.5,370.3,347.5z"/>
	<path class="st1" d="M365.5,347.5c29.5,0,46.7,21.6,46.7,47S396.3,441,367.5,441c-31.9,0-47.1-26.7-47.1-46.7
		C320.4,374.2,335.6,347.5,365.5,347.5z"/>
	<path class="st7" d="M365.8,365.8c18,0,28.4,13.2,28.4,28.6c0,15.5-9.7,28.3-27.2,28.3c-19.4,0-28.7-16.3-28.7-28.5
		C338.3,382,347.6,365.8,365.8,365.8z"/>
</g>
<g>
	<path class="st6" d="M145,424c38.3,0,51.1-20.1,51.1-44.4s-17.8-44.9-52.6-44.9c22.7,0,35.9,20.6,35.9,44.9S167.2,424,145,424z"/>
	<path class="st1" d="M143.5,334.7c22.7,0,35.9,20.6,35.9,44.9S167.2,424,145,424c-24.5,0-36.2-25.5-36.2-44.7
		C108.8,360.2,120.5,334.7,143.5,334.7z"/>
	<path class="st1" d="M125.6,379.4c0,18.5-4.7,43,17.1,44.6c0.3,0,0.5,0,0.8,0c0.2,0,0.4,0,0.7,0s0.6,0,0.9,0
		c22.2,0,34.4-20.1,34.4-44.4s-13.2-44.9-35.9-44.9c-0.4,0-0.8,0-1.2,0c-0.2,0-0.4,0-0.6,0c-0.4,0-0.7,0-1.1,0.1
		C120.9,336.9,125.6,361,125.6,379.4z"/>
	<path class="st7" d="M141.9,352.1c12.6,0,19.9,12.6,19.9,27.4s-6.8,27.1-19.1,27.1c-13.6,0-20.1-15.5-20.1-27.2
		C122.6,367.7,129.1,352.1,141.9,352.1z"/>
</g>
<g>
	<polygon class="st17" points="320,241.3 307.8,241.3 299.4,229 313.7,229 	"/>
	<polygon class="st4" points="299.4,229 304.3,236.2 307.8,241.3 320,241.3 316.7,234.9 313.7,229 	"/>
	<polygon class="st5" points="299.4,229 304.3,236.2 316.7,234.9 313.7,229 	"/>
</g>
<g>
	<polygon class="st17" points="349.7,333.1 337.8,335.9 326.9,325.8 340.9,322.6 	"/>
	<polygon class="st4" points="326.9,325.8 333.3,331.7 337.8,335.9 349.7,333.1 345.1,327.6 340.9,322.6 	"/>
	<polygon class="st5" points="326.9,325.8 333.3,331.7 345.1,327.6 340.9,322.6 	"/>
</g>
<path class="st12" d="M173.5,369.4l3.4,7.6c0,0,92.5,7.1,101.3,5.8c0,0,9.8-10.8,18.4-28.5c0,0-31,0-41.8,0s-18-4-18-4l-5.4-0.9
	l-9.7,4.9l-10.6,15.1l-29.5-0.5L173.5,369.4z"/>
<path class="st6" d="M221.6,354.3c0,0,23.7,14.6,69.8,9.6c1.7-2.9,3.4-6.1,5.1-9.6c0,0-31,0-41.8,0s-18-4-18-4l-5.4-0.9L221.6,354.3
	z"/>
<path class="st4" d="M416.7,353.5l-11.6,6.1c0,0-33.5-6.1-55-1.5s-27.3,16.1-27.3,16.1H312c0,0,9.3-33.1,25.1-45.1
	c15.8-12,41.2-9.3,55.3-1.8C406.4,334.9,416.7,353.5,416.7,353.5z"/>
<path class="st5" d="M403.9,357.3c-2.2-2.4-4.7-4.5-7.3-6.4c-2.6-2-5.3-3.8-8.1-5.4c-5.5-3-11.6-5.1-17.8-5.8
	c-12.2-1.5-25,2.1-34,11.5c-5.1,5.3-8.7,11.8-12.1,18.4c-0.1,0.1,0.1,0.2,0.1,0.1c3-5.8,6.5-11.3,10.9-16c4.2-4.6,9.4-8.1,15.1-10.2
	c11.5-4.2,24-2.6,35.1,2.5c3.1,1.5,6.2,3.1,9.2,5c3,2,5.8,4.2,8.7,6.5C403.9,357.6,404,357.4,403.9,357.3z"/>
<path class="st4" d="M244,290.5v-4.1l-104.6,3.4v9.2c0,0-30.3,33.5-33.4,68.2l104.9,2.2l10.6-15.1l9.7-4.9l5.4,0.9V348l-4.1-4.9
	l-0.2-14.4c0,0-5-5.9-3.5-15.4C230,305.6,244,290.5,244,290.5z"/>
<path class="st4" d="M201.2,364.6c-1.1,2-17,4.9-47.2,5.7c-27.2,0.7-47.4,0.1-49.1-1.6c-1.6-1.8,2.4-32.7,20.8-49.5
	s44.5-19.2,61.6-9.2C202.5,318.8,213.7,341.1,201.2,364.6z"/>
<path class="st5" d="M206.3,335.3c-1.5-7.3-5.5-14-10.7-19.3c-5.3-5.4-12.1-9.3-19.4-11.2c-8.2-2.1-16.9-1.9-25,0.3
	c-4.1,1.1-8,2.6-11.8,4.6c-4,2.1-7.6,4.7-11.1,7.5c-0.9,0.8-1.9,1.5-2.8,2.3c-0.1,0.1,0,0.2,0.1,0.1c3.5-3,7.2-5.8,11.2-8.1
	c3.6-2.1,7.5-3.7,11.5-5c7.9-2.4,16.4-3,24.5-1.4c7.4,1.5,14.2,5,19.8,10c5.3,4.9,9.4,11,11.4,17.9c2.5,8.4,1.7,17.7-0.8,26
	c-0.3,1.1-0.7,2.2-1.1,3.3c0,0.1,0.1,0.2,0.2,0C205.7,353.9,208.2,344.6,206.3,335.3z"/>
<path class="st5" d="M221.6,354.3l9.7-4.9l5.4,0.9V348l-4.1-4.9l-0.2-14.4c0,0-5-5.9-3.5-15.4c1.2-7.7,15.1-22.8,15.1-22.8h-4.1
	c0,0-22,11.4-27,20.7C207.9,320.6,206.4,342.6,221.6,354.3z"/>
<path class="st2" d="M133.6,373.4c-18.2,0-27.9-0.6-32.7-2.5l2.3-5.7c5.7,2.3,23.6,2.2,52.5,1.9c21.3-0.2,37-2.3,46.8-6l2.2,5.7
	c-10.6,4-26.6,6.1-48.9,6.4C147.2,373.4,139.9,373.4,133.6,373.4z"/>
<g>
	<path class="st1" d="M276.7,234.7c-0.2,0.4-24.3,4.9-24.3,4.9s-4-2.7-1.5-6.1l24.2-5.2C275.1,228.2,278.4,230.9,276.7,234.7z"/>
	<path class="st4" d="M327.4,203.5v28.6c0,0-15.5-1.4-19.6-1.5s-22.4,2.2-22.4,2.2l-1.4-6.4c0,0,14.1-4.9,20.1-8.8
		s12.9-11.2,16.6-12.8C324.5,203.2,327.4,203.5,327.4,203.5z"/>
	<path class="st2" d="M285.5,225.7c0,0,3,2.8,2.4,7.2c0,0-11.5,2.1-11.7,2.1c-0.1,0,0.6-4.5-4-6.5L285.5,225.7z"/>
	<g>
		<ellipse class="st2" cx="327.6" cy="217.8" rx="7.6" ry="14.3"/>
		<path class="st8" d="M321.6,217.8c0,7.1,2.9,12.8,6.5,12.8s6.5-5.7,6.5-12.8c0-7.1-2.9-12.8-6.5-12.8
			C324.5,205.1,321.6,210.8,321.6,217.8z"/>
	</g>
</g>
<g>
	<path class="st6" d="M244,286.4c0,0,0.2-17.5-0.5-18.1s-104.8-0.3-107.9-0.1c-3.1,0.3-2.8,20.7-2.6,21.6
		C133.3,290.8,241.3,286.7,244,286.4z"/>
	<path class="st12" d="M253.2,268.5c-0.3-0.3-13.5-0.3-14.2-0.3s-0.5,18.6-0.1,18.6s14.3-0.1,14.8-0.5
		C254.2,285.8,253.9,269.1,253.2,268.5z"/>
	<path class="st12" d="M180.3,267.5c-0.4,0.2-0.5,0.7-0.7,1.1c-0.1,0.4-0.2,0.9-0.2,1.3c-0.1,0.9-0.1,1.8-0.2,2.7
		c-0.1,1.8-0.1,3.6,0,5.4c0,1.8,0,3.6,0.1,5.4c0.1,0.9,0.1,1.8,0.3,2.7c0.1,0.4,0.2,0.9,0.4,1.2c0.2,0.4,0.5,0.7,1,0.8
		c-0.5,0.1-0.9-0.2-1.2-0.6c-0.3-0.4-0.5-0.8-0.7-1.2c-0.3-0.9-0.5-1.8-0.6-2.7c-0.3-1.8-0.3-3.7-0.3-5.5s0.1-3.7,0.3-5.5
		c0.1-0.9,0.3-1.8,0.5-2.7c0.1-0.4,0.3-0.9,0.5-1.3C179.6,268.1,179.8,267.6,180.3,267.5z"/>
</g>
<rect x="126.7" y="206" class="st6" width="100" height="62.2"/>
<rect x="126.8" y="206" class="st1" width="72.2" height="62.2"/>
<g>
	<polygon class="st6" points="251.1,158.3 220,158.3 195.6,205.9 226.7,205.9 	"/>
	<polygon class="st1" points="223.3,158.3 220,158.3 195.6,205.9 198.9,205.9 	"/>
</g>
<rect x="134.8" y="205.9" class="st4" width="6.2" height="62.2"/>
<rect x="180.3" y="205.9" class="st4" width="6.2" height="62.2"/>
<path class="st4" d="M330,241.3c2.5,3.7,12.6,53.9,14.6,56.4s5.8,2.7,5.8,2.7l6.7,16.6c0,0-16.6,5.2-25.8,12.8
	c-11.9,9.8-22.9,42.2-22.9,42.2c-1.8,1.3-24.1,10.4-30.3,10.8c0,0,28.5-31.3,30.8-74.6c0.9-16.8-9.4-40.4-10.1-52.1
	c-0.7-12.5,3.1-14.8,9.7-14.8S330,241.3,330,241.3z"/>
<path class="st2" d="M276.8,386.4l-4.5-4.2c25-26.5,34.2-68.2,33.5-79.5c-0.4-5.8-2.3-12.4-4.2-19.3c-2.1-7.4-4.5-15.7-5.5-24.8
	c-0.9-8.4,0-13.9,2.9-17.1s6.8-3.2,9.4-3.2h23.8v6.1h-23.8c-2.3,0-3.8,0.1-4.8,1.2c-0.9,1-2.3,4-1.3,12.3c1,8.6,3.2,16.3,5.3,23.8
	c2.1,7.2,4,14.1,4.5,20.6C312.7,314.4,303.1,358.6,276.8,386.4z"/>
<g>
	<path class="st2" d="M344.7,311.5c1.4,5.2,5.8,8.4,9.9,7.3c4-1.1,6.2-6.2,4.8-11.3c-1.4-5.2-5.8-8.4-9.9-7.3
		C345.5,301.2,343.3,306.3,344.7,311.5z"/>
	<path class="st8" d="M346.2,311.1c1.3,4.6,5.1,7.6,8.5,6.6c3.5-0.9,5.2-5.4,4-10c-1.3-4.6-5.1-7.6-8.5-6.6
		C346.8,302,345,306.5,346.2,311.1z"/>
</g>
<path class="st5" d="M327,310.6c-1.1-5.2-2.3-10.4-3.4-15.6c-1-5.2-2-10.4-2.8-15.6c-0.8-4.9-1.6-9.8-1.9-14.7
	c-0.3-5.1,0-10.3,2.5-15c0-0.1-0.1-0.2-0.1-0.1c-2.6,3.7-3.4,8.3-3.6,12.7c-0.2,4.9,0.6,9.9,1.3,14.7c1.5,10.6,3.4,21.3,6,31.7
	c1.5,5.9,3.3,11.7,5.3,17.5c0,0.1,0.2,0.1,0.1,0C329.3,321,328.2,315.8,327,310.6z"/>
<g>
	<path class="st8" d="M151.3,246.9c-1,0-1.9,0.4-2.5,1s-1,1.5-1,2.5c0,2,1.5,3.5,3.5,3.5c1.3,0,2.4-0.6,2.9-1.5l0.2-0.3l-1.1-0.7
		l-0.2,0.3c-0.3,0.6-1,0.9-1.8,0.9c-1.1,0-1.9-0.6-2.2-1.6h5.4v-0.3v-0.1c0-0.1,0-0.1,0-0.2C154.7,248.8,153.5,246.9,151.3,246.9z
		 M149.2,249.8c0.2-1,1.1-1.6,2.1-1.6c0.8,0,1.7,0.5,2,1.6H149.2z"/>
	<path class="st8" d="M160.8,247.8c-0.6-0.6-1.4-0.9-2.3-0.9c-2,0-3.5,1.5-3.5,3.5s1.5,3.5,3.5,3.5c0.9,0,1.7-0.3,2.3-0.9v0.7h1.3
		v-6.8h-1.3V247.8z M158.5,252.7c-1.3,0-2.2-1-2.2-2.3s1-2.3,2.2-2.3s2.2,1,2.2,2.3S159.8,252.7,158.5,252.7z"/>
	<path class="st8" d="M165.2,245.3l-1.3,0.4v1.4h-1.3v1.3h1.3v3.6c0,0.7,0.2,1.2,0.6,1.5c0.3,0.3,0.8,0.4,1.4,0.4
		c0.3,0,0.5,0,0.9-0.1h0.3v-1.2h-0.4c-0.6,0.1-1.1,0.1-1.3-0.1c-0.1-0.1-0.1-0.3-0.1-0.6v-3.6h1.8V247h-1.8L165.2,245.3L165.2,245.3
		z"/>
	<path class="st8" d="M170.6,246.9c-2,0-3.5,1.5-3.5,3.5s1.6,3.5,3.5,3.5c2,0,3.5-1.5,3.5-3.5C174.1,248.5,172.6,246.9,170.6,246.9z
		 M170.6,252.7c-1.3,0-2.2-1-2.2-2.3s1-2.3,2.2-2.3s2.2,1,2.2,2.3S171.8,252.7,170.6,252.7z"/>
</g>
<g>
	<g>
		<path class="st8" d="M171.6,230c-0.8-1.2-1.7-2.3-2.5-3.5c-0.5-0.7-1-1.4-1.5-2.1s-1.3-0.7-2-0.2c-2.3,1.7-4.6,3.4-6.9,5.2
			c-0.8,0.6-1.6,1.2-2.5,1.8c-0.5,0.4-1.2,0.8-1.5,1.3s-0.2,1.2,0.3,1.5c0.4,0.3,0.9,0.2,1.3,0.2c0.3,0,0.6-0.1,0.6,0.2
			c0,0.2-0.2,0.5-0.2,0.7c-0.6,1.8-1.1,3.6-1.7,5.4c-0.2,0.7-0.5,1.5,0.2,1.9c0.4,0.3,1.1,0.2,1.6,0.2c1.9,0,3.9,0,5.8,0
			c1.2,0,2.4,0.1,3.6,0c0.7,0,1.3-0.5,1.5-1.2c0.2-0.6-0.8-0.9-1-0.3c-0.2,0.4-0.6,0.4-1,0.4c-0.5,0-0.9,0-1.4,0c-0.4,0-0.8,0-1.2,0
			c-1.7,0-3.4,0-5.1,0c-0.7,0-1.4,0.1-2,0c-0.2,0-0.2,0.1-0.2-0.1c0-0.1,0.1-0.4,0.2-0.5c0.5-1.7,1-3.3,1.5-5
			c0.1-0.4,0.3-0.9,0.4-1.3c0.1-0.6-0.1-1.2-0.8-1.4c-0.4-0.1-0.8,0-1.2,0c-0.1,0-0.3,0-0.3,0c-0.1-0.1,0.2-0.3,0.2-0.4
			c0.1-0.1,0.3-0.3,0.5-0.4c0.7-0.5,1.4-1.1,2.2-1.6c2.3-1.7,4.5-3.4,6.8-5.1c0.2-0.1,1-0.9,1.3-0.9c0.1,0,0.2,0.3,0.3,0.4
			c0.2,0.3,0.5,0.7,0.7,1c0.8,1.1,1.6,2.3,2.5,3.4c0.2,0.3,0.4,0.6,0.6,0.9C171.1,231.1,172,230.6,171.6,230L171.6,230z"/>
	</g>
	<g>
		<path class="st8" d="M146.9,235.1c2.3,0,4.7,0,7,0c0.7,0,0.8-1.2,0-1.2c-2.3,0-4.7,0-7,0C146.1,234,146.1,235.1,146.9,235.1
			L146.9,235.1z"/>
	</g>
	<g>
		<path class="st8" d="M149.8,239.1c1.4,0,2.7,0,4.1,0c0.7,0,0.8-1.2,0-1.2c-1.4,0-2.7,0-4.1,0C149.1,237.9,149.1,239.1,149.8,239.1
			L149.8,239.1z"/>
	</g>
</g>
</svg>
