<?xml version="1.0" encoding="utf-8"?>
<!-- Generator: Adobe Illustrator 22.0.1, SVG Export Plug-In . SVG Version: 6.00 Build 0)  -->
<svg version="1.1" id="Layer_1" xmlns="http://www.w3.org/2000/svg" xmlns:xlink="http://www.w3.org/1999/xlink" x="0px" y="0px"
	 viewBox="0 0 716.3 419" style="enable-background:new 0 0 716.3 419;" xml:space="preserve">
<style type="text/css">
	.st0{fill:#EBEBEB;}
	.st1{fill:#FC5A1A;}
	.st2{opacity:0.2;}
	.st3{fill:#FAFAFA;}
	.st4{fill:#F5F5F5;}
	.st5{fill:#263238;}
	.st6{fill:#FFBF9D;}
	.st7{fill:#FF9A6C;}
	.st8{opacity:0.3;}
	.st9{fill:#ECECEC;}
	.st10{fill:#E1E1E1;}
	.st11{fill:#FF4F5B;}
	.st12{fill:#455A64;}
	.st13{fill:#FFFFFF;}
</style>
<g>
	<ellipse class="st0" cx="358.2" cy="378.6" rx="350.2" ry="31.8"/>
</g>
<g>
	<rect x="486.3" y="339.9" class="st1" width="158.9" height="46.6"/>
</g>
<g>
	<path class="st1" d="M183.1,35.1v327h462.1V61.6c0-26.6-21.5-48.3-48.1-48.5L208.9,9.6C194.7,9.5,183.1,20.9,183.1,35.1z"/>
</g>
<g class="st2">
	<path d="M183.1,35.1v327l354.1-1.1v25.2l108,0.2V61.6c0-26.6-21.5-48.3-48.1-48.5L208.9,9.6C194.7,9.5,183.1,20.9,183.1,35.1z"/>
</g>
<g>
	<path class="st1" d="M91.3,34.1v327h445.9V60.5c0-26.6-20.7-48.3-46.4-48.5L116.2,8.5C102.5,8.4,91.3,19.9,91.3,34.1z"/>
</g>
<g>
	<rect x="143.3" y="66.2" class="st3" width="283.6" height="165.9"/>
</g>
<g>
	<polygon class="st4" points="258.8,229.4 258.8,187.8 376.9,187.8 401.8,162.8 426.8,162.8 426.8,229.6 	"/>
</g>
<g>
	<g>
		<g>
			<g>
				<g>
					<g>
						<g>
							<g>
								<g>
									<path class="st5" d="M359.5,123.3c-0.2,0.6,0,1.4,0.5,1.8c0.5,0.4,1.3,0.5,1.9,0.2c1.1-0.6,1.3-2.1,1.1-3.3
										c-0.2-1.2-0.6-2.6-0.1-3.7c0.4-0.9,1.3-1.4,2-2.1c1.2-1.2,1.8-2.9,1.6-4.6c-0.3-1.7-1.5-3.2-3.1-3.6
										c-1.6-0.5-3.7,0-4.9-1.2c-0.9-0.9-0.9-2.3-1.6-3.3c-1-1.6-3.3-1.9-5.2-1.7c-1.9,0.2-3.9,0.8-5.7,0.3
										c-1.6-0.4-2.8-1.5-4.3-2.2c-3.2-1.5-7.2-0.8-9.6,1.7s-3,6.6-1.5,9.7c0.6,1.1,1.7,4.3,5.3,4.3"/>
								</g>
							</g>
						</g>
						<g>
							<g>
								<g>
									<g>
										<g>
											<g>
												<path class="st6" d="M360.2,109.9l-0.1,2.6l0.8,40.1c-0.1,4.5-5.2,6.3-10,6.2l0,0c-4.8-0.1-9.8-1.8-9.8-6.3
													c0-4.7,0.9-11.7,0.9-11.7s-6.1-1-7.4-9c-0.6-4-0.4-10.4-0.1-15.7c0.3-4.8,4.5-8.3,9.3-7.8L360.2,109.9z"/>
											</g>
										</g>
									</g>
									<g>
										<g>
											<g>
												<g>
													<path class="st5" d="M336.2,120.5c0,0.5,0.4,1,1,1s1-0.4,1.1-0.9c0-0.5-0.4-1-1-1S336.3,120,336.2,120.5z"/>
												</g>
											</g>
										</g>
										<g>
											<g>
												<g>
													<g>
														<path class="st5" d="M336,119.4c0.1,0.1,0.9-0.4,2-0.4s1.9,0.6,2,0.4c0.1-0.1-0.1-0.3-0.4-0.6s-0.9-0.5-1.6-0.5
															s-1.3,0.3-1.6,0.5C336.1,119.1,336,119.3,336,119.4z"/>
													</g>
												</g>
											</g>
										</g>
									</g>
									<g>
										<g>
											<g>
												<g>
													<path class="st5" d="M347.2,120.5c0,0.5,0.4,1,1,1s1-0.4,1.1-0.9c0-0.5-0.4-1-1-1S347.2,120,347.2,120.5z"/>
												</g>
											</g>
										</g>
										<g>
											<g>
												<g>
													<g>
														<path class="st5" d="M346.8,119.6c0.1,0.1,0.9-0.4,2-0.4s1.9,0.6,2,0.4c0.1-0.1-0.1-0.3-0.4-0.6s-0.9-0.5-1.6-0.5
															s-1.3,0.3-1.6,0.5C346.9,119.3,346.7,119.5,346.8,119.6z"/>
													</g>
												</g>
											</g>
										</g>
									</g>
									<g>
										<g>
											<g>
												<g>
													<path class="st5" d="M342.8,127.7c0-0.1-0.7-0.2-1.8-0.3c-0.3,0-0.5-0.1-0.6-0.3s0.1-0.5,0.2-0.8
														c0.3-0.7,0.5-1.4,0.8-2.1c1.2-3,2-5.5,1.9-5.6c-0.1,0-1.2,2.4-2.3,5.4c-0.3,0.7-0.5,1.5-0.8,2.1
														c-0.1,0.3-0.3,0.7-0.1,1.1c0.1,0.2,0.3,0.4,0.5,0.4c0.2,0.1,0.3,0.1,0.5,0.1C342.1,127.8,342.8,127.8,342.8,127.7z"/>
												</g>
											</g>
										</g>
									</g>
									<g>
										<g>
											<g>
												<path class="st7" d="M342.1,140.7c0,0,5.3,0.3,10.6-2.8c0,0-2.6,5.5-10.5,4.7L342.1,140.7z"/>
											</g>
										</g>
									</g>
									<g>
										<g>
											<g>
												<g>
													<path class="st5" d="M346,128.5c-0.2,0-0.2,1.2-1.2,2s-2.3,0.7-2.3,0.9c0,0.1,0.3,0.2,0.8,0.2s1.3-0.2,1.9-0.7
														s0.9-1.2,0.9-1.7C346.3,128.8,346.1,128.5,346,128.5z"/>
												</g>
											</g>
										</g>
									</g>
								</g>
							</g>
						</g>
						<g>
							<g>
								<g>
									<path class="st5" d="M346.5,115.3c0.1,0.3,1.2,0.2,2.5,0.3s2.3,0.5,2.5,0.2c0.1-0.1-0.1-0.4-0.5-0.7s-1.1-0.6-1.9-0.6
										c-0.8-0.1-1.5,0-1.9,0.2C346.7,114.9,346.5,115.1,346.5,115.3z"/>
								</g>
							</g>
						</g>
						<g>
							<g>
								<g>
									<path class="st5" d="M336.4,116.2c0.2,0.2,0.9,0,1.9,0c0.9,0,1.7,0.2,1.9-0.1c0.1-0.1,0-0.4-0.4-0.6
										c-0.3-0.2-0.9-0.4-1.5-0.4s-1.2,0.2-1.5,0.5C336.4,115.8,336.3,116.1,336.4,116.2z"/>
								</g>
							</g>
						</g>
						<g>
							<g>
								<g>
									<path class="st5" d="M334.3,112.2c0,0,4.1,2.1,9.5-0.4c3.6-1.6,7.7-2.4,8.6-1.6c0.9,0.7,1,4.4,4.4,5.5c0,0-0.5,6.9,2.3,6.8
										s2.4-14,2.4-14l-7.6-0.4l-7.3-1.6l-7.7,0.9l-5.4,1.3L334.3,112.2z"/>
								</g>
							</g>
						</g>
						<g>
							<g>
								<g>
									<g>
										<path class="st5" d="M361.7,106.7c0-0.1-0.6-0.4-1.4-0.1c-0.8,0.3-1.1,0.9-1,0.9c0.1,0.1,0.5-0.3,1.2-0.5
											C361.1,106.8,361.7,106.9,361.7,106.7z"/>
									</g>
								</g>
							</g>
						</g>
						<g>
							<g>
								<g>
									<g>
										<path class="st5" d="M359.4,104.4c-0.1,0-0.1,0.8-0.2,1.8c-0.1,0.9-0.5,1.6-0.4,1.7c0.1,0.1,0.7-0.6,0.9-1.6
											C359.8,105.2,359.5,104.4,359.4,104.4z"/>
									</g>
								</g>
							</g>
						</g>
					</g>
					<g>
						<g>
							<g>
								<g>
									<g>
										<path class="st6" d="M359,119.9c0.1-0.1,4.6-1.6,4.6,3.1c0,4.6-4.6,3.7-4.6,3.6C359,126.4,359,119.9,359,119.9z"/>
									</g>
								</g>
							</g>
						</g>
						<g>
							<g>
								<g>
									<g>
										<g>
											<path class="st7" d="M360.4,124.8c0,0,0.1,0.1,0.2,0.1c0.1,0.1,0.4,0.1,0.6,0c0.5-0.2,0.9-1,0.9-1.8
												c0-0.4-0.1-0.8-0.2-1.2c-0.1-0.3-0.4-0.6-0.6-0.6c-0.2-0.1-0.4,0.1-0.5,0.2c-0.1,0.1,0,0.2-0.1,0.2c0,0-0.1-0.1-0.1-0.3
												c0-0.1,0.1-0.2,0.2-0.3s0.3-0.1,0.4-0.1c0.4,0,0.7,0.3,0.9,0.7c0.2,0.4,0.3,0.8,0.3,1.3c0,0.9-0.5,1.8-1.2,2
												C360.9,125.1,360.6,125,360.4,124.8C360.4,124.9,360.4,124.8,360.4,124.8z"/>
										</g>
									</g>
								</g>
							</g>
						</g>
					</g>
				</g>
				<g>
					<g>
						<g>
							<g>
								<g>
									<path class="st1" d="M385.7,177.2c0,0,1.8,52.2,1.6,58.5l-61.4,1.2l-0.8-23.5v-20.1l-6.2,9.2l-18.6-15.4l20-25.7l0,0
										c3.6-3.7,7.8-6.5,12.8-8.3c2.4-0.9,5-1.4,8-1.5l0,0c6.4,2,12.9,2,19.3,0c0.8,0.1,1.9,0.2,3.2,0.4c0.1,0,0.2,0,0.3,0
										c11.9,1.4,20.9,11.3,21.6,23.2L385.7,177.2z"/>
								</g>
							</g>
						</g>
						<g>
							<g>
								<g>
									<path class="st5" d="M325.4,191c-0.1,0-0.2-4-0.2-9s0.1-9,0.2-9s0.2,4,0.2,9S325.5,191,325.4,191z"/>
								</g>
							</g>
						</g>
					</g>
					<g>
						<g>
							<path class="st1" d="M363.8,151.8c0,0,23,0.2,25.8,24.4l1.4,18l-20.8-0.4L363.8,151.8z"/>
						</g>
					</g>
					<g class="st8">
						<g>
							<polyline points="368.6,172.8 365.3,201.7 372.7,206.2 372,193.9 370,193.9 368.6,172.8 							"/>
						</g>
					</g>
				</g>
			</g>
		</g>
	</g>
</g>
<g>
	<path class="st1" d="M347.6,125.4c-2.7-0.1-4.8-2.3-4.7-5l0,0c0.1-2.7,2.3-4.8,5-4.7s4.8,2.3,4.7,5c-0.1,2.3-1.7,4.1-3.8,4.6
		C348.4,125.4,348,125.4,347.6,125.4z M343.5,120.4c-0.1,2.3,1.8,4.3,4.1,4.3c2.3,0.1,4.3-1.8,4.3-4.1c0.1-2.3-1.8-4.3-4.1-4.3
		c-0.4,0-0.7,0-1,0.1C344.9,116.8,343.5,118.5,343.5,120.4z"/>
	<path class="st1" d="M337.3,126.5c-2,0.2-3.8-1.8-4.1-4.5c-0.1-1.3,0.1-2.5,0.7-3.5s1.4-1.6,2.4-1.7c1-0.1,2,0.3,2.7,1.2
		c0.8,0.8,1.2,2,1.4,3.3c0.3,2.5-1,4.8-2.8,5.2C337.6,126.4,337.4,126.5,337.3,126.5z M334.4,118.8c-0.5,0.9-0.7,2-0.6,3.1
		c0.2,2.3,1.8,4.1,3.4,3.9c1.6-0.2,2.8-2.2,2.5-4.5c-0.1-1.1-0.6-2.2-1.2-2.9s-1.4-1.1-2.2-1c-0.1,0-0.2,0-0.2,0
		C335.5,117.6,334.9,118.1,334.4,118.8z"/>
	<path class="st1" d="M343.1,121l0.4-0.5c-0.8-0.5-2.6-1.2-3.6,0.2l0.5,0.4C341.2,119.8,343,120.9,343.1,121z"/>
	<path class="st1" d="M363.2,121l0.5-0.4c-0.1-0.3-1.5-2.5-2.8-2.6c-1.2-0.1-8.8,1.6-9.1,1.7l0.1,0.6c2.2-0.5,8-1.7,8.9-1.7
		C361.8,118.8,362.9,120.4,363.2,121z"/>
</g>
<g>
	<polygon class="st9" points="328.8,237 328.8,169.8 363.8,169.1 371.1,236.8 	"/>
</g>
<g>
	<g>
		<g>
			<path class="st6" d="M334.1,201.3l26,23.6c6.2,5.7,17.5,7.1,24.5,2.4c4.2-2.8,5-7.9,5.9-12.9c1.6-9.2,0.3-20.1,0.3-20.1
				l-18.7-0.4l0.5,11.9l-31.3-17.7l-0.6-0.7c-0.3-0.9-0.7-1.9-1.1-3.2c-0.3-1.1-0.5-2.2-0.5-3.3c0-1.2,0.2-2.7,0.4-3.8
				c0-0.1,0.1-0.2,0.1-0.3c0.1-0.2,0.1-0.3,0.1-0.5c0.1-1.1-0.9-1.9-1.8-1.4c-0.9,0.6-2.2,3.4-2.2,7.1c0,0.1,0,0.1,0,0.2
				c-0.1,3.7-3.6-0.9-4.9-2.6c-1.3-1.7-5.5-6.7-6.3-6.7c-1.2,0-1.4,1.3-0.1,3s5,6.9,4.1,7.5c-0.9,0.7-7.3-8-7.3-8s-1.1-2.1-2.2-1.3
				c-1.9,1.3,5.6,10,6.3,10.8c0.5,0.6-0.4,1.3-1,0.7c-0.5-0.6-6.2-8.8-8.2-7.4c-1.5,1,6.1,7.2,6.4,9.5c0.3,2.4-5.3-5.3-6.7-4.3
				c-0.5,0.4-0.9,0.7,3,4.7c2,2.1,6.2,5.4,9.9,8.2L334.1,201.3z"/>
		</g>
	</g>
</g>
<g>
	<path class="st9" d="M362.7,151.7c0,0-7.2,7-4.8,19.2h3.3c0,0-2.1-15.8,5.4-18.8C365.7,151.8,364.3,151.7,362.7,151.7z"/>
</g>
<g>
	<path class="st9" d="M334.6,152.5c0,0-6.6,5.9-4.2,18.1h3.3c0,0-1.9-16.1,5.7-19C339.4,151.6,336.7,151.5,334.6,152.5z"/>
</g>
<g>
	<polygon class="st6" points="303.2,188.4 275.9,222.4 289.6,230.1 318.4,201.3 	"/>
</g>
<g>
	<rect x="115.3" y="229.6" class="st5" width="311.6" height="7.2"/>
</g>
<g>
	<g>
		<path class="st5" d="M426.8,236.8c0,0-0.2,0.1-0.5,0.3c-0.4,0.2-0.9,0.5-1.6,0.8c-0.7,0.4-1.6,0.8-2.6,1.3s-2.2,1.2-3.6,1.7
			c-5.4,2.5-13.6,5.6-24.2,7.7c-5.3,1.1-11.3,1.8-17.7,2.1c-6.4,0.1-13.4,0.1-20.6-1c-14.5-1.9-30.3-7-45-16.2h0.5
			c-7.2,5.1-15.3,9.7-23.9,13.4c-18.9,8-38.7,11.3-56.4,11.1c-17.8-0.1-33.7-3.5-46.5-7.5c-12.8-4.1-22.7-8.8-29.3-12.3
			c-3.3-1.8-5.9-3.2-7.5-4.2c-0.8-0.5-1.5-0.9-1.9-1.2c-0.4-0.3-0.6-0.4-0.6-0.4s0.2,0.1,0.7,0.3c0.5,0.3,1.1,0.6,2,1.1
			c1.7,1,4.3,2.4,7.6,4.1c6.7,3.4,16.5,8,29.4,12c12.8,3.9,28.6,7.2,46.3,7.3c17.7,0.2,37.3-3.2,56.1-11.1
			c8.6-3.7,16.6-8.2,23.7-13.3l0.2-0.2l0.2,0.1c14.6,9.1,30.2,14.2,44.6,16.1c7.2,1.1,14.1,1.2,20.5,1.1c6.4-0.3,12.3-0.9,17.6-2
			c10.6-2,18.8-5,24.2-7.4c1.4-0.5,2.6-1.1,3.6-1.7c1-0.5,1.9-0.9,2.6-1.3c0.7-0.3,1.2-0.6,1.6-0.8
			C426.6,236.9,426.8,236.8,426.8,236.8z"/>
	</g>
</g>
<g>
	<g>
		<g>
			<polygon class="st9" points="155.1,149.5 151.7,121.8 177,121.8 173.6,149.5 			"/>
		</g>
	</g>
	<g>
		<rect x="147.4" y="168.4" class="st10" width="95.1" height="61.2"/>
	</g>
	<g>
		<g>
			<path class="st11" d="M170.7,185.9h-3v9.1h-4.8v5c0,0-3.5,0.4-3.5,6.3c0,3.9,0,23.2,0,23.2H179v-25.2c0,0,0.2-4.2-3.5-4.6v-4.6
				h-4.7L170.7,185.9z"/>
		</g>
	</g>
	<g>
		<g>
			<path class="st12" d="M194.8,185.9h-3v9.1H187v5c0,0-3.5,0.4-3.5,6.3c0,3.9,0,23.2,0,23.2H203v-25.2c0,0,0.2-4.2-3.5-4.6v-4.6
				h-4.7V185.9z"/>
		</g>
	</g>
	<g>
		<g>
			<polygon class="st10" points="155.1,158.6 151.7,130.9 177,130.9 173.6,158.6 			"/>
		</g>
	</g>
	<g>
		<g>
			<polygon class="st9" points="155.1,168.4 151.7,140.7 177,140.7 173.6,168.4 			"/>
		</g>
	</g>
	<g>
		<g>
			<polygon class="st10" points="186.2,159.2 183,133.2 206.8,133.2 203.6,159.2 			"/>
		</g>
	</g>
	<g>
		<g>
			<polygon class="st9" points="186.2,168.4 183,142.4 206.8,142.4 203.6,168.4 			"/>
		</g>
	</g>
</g>
<g>
	<g>
		<g>
			<path class="st1" d="M279.3,218c0,0-2.3-7.8,10.2-7.2c12.5,0.7,19.3-5.2,21.7-5.6c2.4-0.4,7.1-0.2,6.4,4.5s-4.8,10-13.3,12.3
				C295.9,224.4,280.8,224.8,279.3,218z"/>
		</g>
		<g>
			<path class="st11" d="M277.8,223.5c-4.1-2.1-3.3-8.2,1.3-9.1c1.7-0.4,4.1-0.5,7.4-0.3c13.7,1.2,25.7-6.2,27.4-7.1
				c1.7-0.9,6.6-0.4,6.9,2.6s-1.6,8-10,9.9C306.2,220.6,286.3,227.8,277.8,223.5z"/>
		</g>
		<g class="st8">
			<path d="M277.8,223.5c-4.1-2.1-3.3-8.2,1.3-9.1c1.7-0.4,4.1-0.5,7.4-0.3c13.7,1.2,25.7-6.2,27.4-7.1c1.7-0.9,6.6-0.4,6.9,2.6
				s-1.6,8-10,9.9C306.2,220.6,286.3,227.8,277.8,223.5z"/>
		</g>
		<g>
			<path class="st1" d="M281.3,223.8c0,0-2.3-7.8,10.2-7.2c12.5,0.7,19.3-5.2,21.7-5.6c2.4-0.4,7.1-0.2,6.4,4.5s-4.8,10-13.3,12.3
				C297.8,230.2,282.8,230.6,281.3,223.8z"/>
		</g>
		<g>
			<g>
				<path class="st5" d="M299.1,226.2c-0.1,0-0.1-1.2,0.2-2.6c0.3-1.4,0.7-2.5,0.8-2.5c0.1,0-0.2,1.2-0.4,2.6
					C299.4,225,299.2,226.2,299.1,226.2z"/>
			</g>
		</g>
		<g>
			<g>
				<path class="st5" d="M301.8,226.7c-0.1,0,0.1-1.5,0.5-3.2c0.4-1.8,0.7-3.2,0.8-3.1c0.1,0-0.1,1.5-0.5,3.2
					C302.2,225.3,301.9,226.7,301.8,226.7z"/>
			</g>
		</g>
		<g>
			<g>
				<path class="st5" d="M305.1,225.6c-0.1,0,0.1-1.4,0.5-3c0.4-1.7,0.8-3,0.8-3c0.1,0-0.1,1.4-0.5,3
					C305.6,224.3,305.2,225.6,305.1,225.6z"/>
			</g>
		</g>
		<g>
			<g>
				<path class="st5" d="M281.1,218.7c-0.1,0-0.2-1.2,0.2-2.6c0.5-1.4,1.3-2.2,1.4-2.2c0.1,0.1-0.6,1-1.1,2.3
					C281.2,217.5,281.2,218.7,281.1,218.7z"/>
			</g>
		</g>
		<g>
			<g>
				<path class="st5" d="M286.5,216.8c-0.1,0-0.1-0.6,0-1.2c0.1-0.7,0.3-1.2,0.3-1.2c0.1,0,0.1,0.6,0,1.2
					C286.7,216.3,286.6,216.8,286.5,216.8z"/>
			</g>
		</g>
		<g>
			<g>
				<path class="st5" d="M292.8,216.6c-0.1,0-0.4-0.5-0.4-1.3c-0.1-0.8,0.1-1.4,0.2-1.4s0.1,0.6,0.1,1.3
					C292.8,216,292.9,216.5,292.8,216.6z"/>
			</g>
		</g>
		<g>
			<g>
				<path class="st5" d="M299,215.5c-0.1,0-0.3-0.6-0.5-1.2c-0.2-0.7-0.5-1.2-0.4-1.3c0.1,0,0.4,0.5,0.7,1.2
					C299.1,214.9,299.1,215.5,299,215.5z"/>
			</g>
		</g>
		<g>
			<g>
				<path class="st5" d="M303.4,214.6c-0.1,0-0.2-0.5-0.6-1.1c-0.3-0.6-0.7-1-0.7-1.1c0.1-0.1,0.6,0.3,1,0.9
					C303.5,213.9,303.5,214.6,303.4,214.6z"/>
			</g>
		</g>
		<g>
			<g>
				<path class="st5" d="M308.4,212.7c-0.1,0-0.2-0.6-0.6-1.2c-0.4-0.6-0.9-1-0.8-1.1c0-0.1,0.7,0.2,1.1,0.9
					C308.5,212,308.5,212.7,308.4,212.7z"/>
			</g>
		</g>
		<g>
			<g>
				<path class="st5" d="M313.3,210.5c-0.1,0-0.3-0.7-0.8-1.4s-1.2-1-1.1-1.1c0-0.1,0.8,0.2,1.4,0.9
					C313.3,209.7,313.4,210.5,313.3,210.5z"/>
			</g>
		</g>
	</g>
	<g>
		<polygon class="st12" points="273.7,229.5 267.9,219.5 331.3,219.5 324.2,229.5 		"/>
	</g>
</g>
<g>
	<path class="st3" d="M197.2,257c0,1.3-1,2.3-2.3,2.3s-2.3-1-2.3-2.3s1-2.3,2.3-2.3S197.2,255.8,197.2,257z"/>
</g>
<g>
	<path class="st3" d="M220.6,260.4c0,1.3-1,2.3-2.3,2.3s-2.3-1-2.3-2.3s1-2.3,2.3-2.3C219.5,258.1,220.6,259.1,220.6,260.4z"/>
</g>
<g>
	<path class="st3" d="M243.9,260.4c0,1.3-1,2.3-2.3,2.3s-2.3-1-2.3-2.3s1-2.3,2.3-2.3S243.9,259.1,243.9,260.4z"/>
</g>
<g>
	<path class="st3" d="M270.4,256.3c0,1.3-1,2.3-2.3,2.3s-2.3-1-2.3-2.3s1-2.3,2.3-2.3S270.4,255.1,270.4,256.3z"/>
</g>
<g>
	<path class="st3" d="M297.2,246.8c0,1.3-1,2.3-2.3,2.3s-2.3-1-2.3-2.3s1-2.3,2.3-2.3C296.1,244.5,297.2,245.6,297.2,246.8z"/>
</g>
<g>
	<path class="st3" d="M326.5,244.5c0,1.3-1,2.3-2.3,2.3s-2.3-1-2.3-2.3s1-2.3,2.3-2.3C325.4,242.2,326.5,243.2,326.5,244.5z"/>
</g>
<g>
	<path class="st3" d="M355,252.8c0,1.3-1,2.3-2.3,2.3s-2.3-1-2.3-2.3s1-2.3,2.3-2.3S355,251.5,355,252.8z"/>
</g>
<g>
	<path class="st3" d="M387.4,254c0,1.3-1,2.3-2.3,2.3s-2.3-1-2.3-2.3s1-2.3,2.3-2.3C386.3,251.7,387.4,252.8,387.4,254z"/>
</g>
<g>
	<path class="st3" d="M414,248.2c0,1.3-1,2.3-2.3,2.3s-2.3-1-2.3-2.3s1-2.3,2.3-2.3C413,245.9,414,246.9,414,248.2z"/>
</g>
<g>
	<path class="st3" d="M178.4,250.5c0,1.3-1,2.3-2.3,2.3s-2.3-1-2.3-2.3s1-2.3,2.3-2.3S178.4,249.2,178.4,250.5z"/>
</g>
<g>
	<g>
		<path class="st5" d="M644.3,50.3c0,0.2-122.8,0.4-274.2,0.4c-151.5,0-274.2-0.2-274.2-0.4s122.8-0.4,274.2-0.4
			S644.3,50.1,644.3,50.3z"/>
	</g>
</g>
<g>
	<g>
		<path class="st5" d="M486.3,361.3c-0.2,0-0.4-78.2-0.4-174.7s0.2-174.7,0.4-174.7s0.4,78.2,0.4,174.7
			C486.8,283.1,486.6,361.3,486.3,361.3z"/>
	</g>
</g>
<g>
	<g>
		<path class="st5" d="M123.7,359c-0.2,0-0.4-77.8-0.4-173.8s0.2-173.8,0.4-173.8s0.4,77.8,0.4,173.8
			C124.1,281.2,123.9,359,123.7,359z"/>
	</g>
</g>
<g>
	<g>
		<path class="st5" d="M645.3,313.8c0,0.2-124.6,0.4-278.2,0.4c-153.7,0-278.2-0.2-278.2-0.4c0-0.2,124.5-0.4,278.2-0.4
			C520.7,313.4,645.3,313.6,645.3,313.8z"/>
	</g>
</g>
<g>
	<g>
		<path class="st5" d="M129.4,251.9c0.1,0-0.2,0.7,0.3,1.5c0.2,0.4,0.6,0.8,1.1,0.9s1.1-0.1,1.5-0.6s0.5-1.1,0.2-1.6
			c-0.2-0.5-0.7-0.7-1.2-0.8c-0.9-0.2-1.4,0.2-1.5,0.1c-0.1,0,0.4-0.8,1.6-0.7c0.6,0.1,1.3,0.3,1.7,1c0.5,0.7,0.3,1.8-0.2,2.5
			s-1.5,1.1-2.4,0.8c-0.8-0.3-1.3-0.9-1.4-1.4C128.7,252.5,129.3,251.8,129.4,251.9z"/>
	</g>
</g>
<g>
	<g>
		<path class="st5" d="M500.9,37.3c0.1,0-0.2,0.7,0.3,1.5c0.2,0.4,0.6,0.8,1.1,0.9s1.1-0.1,1.5-0.6s0.5-1.2,0.2-1.6
			c-0.2-0.5-0.7-0.7-1.2-0.8c-0.9-0.2-1.4,0.2-1.5,0.1c-0.1,0,0.4-0.8,1.6-0.7c0.6,0.1,1.3,0.3,1.7,1c0.5,0.7,0.3,1.8-0.2,2.5
			s-1.5,1.1-2.4,0.8c-0.8-0.3-1.3-0.9-1.4-1.4C500.2,37.9,500.8,37.3,500.9,37.3z"/>
	</g>
</g>
<g>
	<g>
		<path class="st5" d="M115,251.9c0.1,0-0.2,0.7,0.3,1.5c0.2,0.4,0.6,0.8,1.1,0.9s1.1-0.1,1.5-0.6s0.5-1.2,0.2-1.6
			c-0.2-0.5-0.7-0.7-1.2-0.8c-0.9-0.2-1.4,0.2-1.5,0.1c-0.1,0,0.4-0.8,1.6-0.7c0.6,0.1,1.3,0.3,1.7,1c0.5,0.7,0.3,1.8-0.2,2.5
			s-1.5,1.1-2.4,0.8c-0.8-0.3-1.3-0.9-1.4-1.4C114.3,252.5,114.9,251.8,115,251.9z"/>
	</g>
</g>
<g>
	<g>
		<path class="st5" d="M458.7,35.7c0.1,0-0.2,0.7,0.3,1.5c0.2,0.4,0.6,0.8,1.1,0.9s1.1-0.1,1.5-0.6s0.5-1.2,0.2-1.6
			c-0.2-0.5-0.7-0.7-1.2-0.8c-0.9-0.2-1.4,0.2-1.5,0.1c-0.1,0,0.4-0.8,1.6-0.7c0.6,0.1,1.3,0.3,1.7,1c0.5,0.7,0.3,1.8-0.2,2.5
			s-1.5,1.1-2.4,0.8c-0.8-0.3-1.3-0.9-1.4-1.4C458,36.3,458.6,35.6,458.7,35.7z"/>
	</g>
</g>
<g>
	<path class="st5" d="M381.7,264.9l-170.1,8.3c-4.2,0.2-7.5,3.8-7.4,8l1,24.2l15.7,2.6l-15.5,2.2l1.5,38.3c0.2,4.3,3.8,7.6,8,7.4
		l170.2-6.7c4.3-0.2,7.6-3.8,7.4-8l-2.7-68.8C389.7,268,386,264.7,381.7,264.9z"/>
</g>
<g>
	<path class="st12" d="M374.2,265.2l-170.1,8.3c-4.2,0.2-7.5,3.8-7.4,8l1,24.2l15.7,2.6l-15.5,2.2l1.5,38.3c0.2,4.3,3.8,7.6,8,7.4
		l170.2-6.7c4.3-0.2,7.6-3.8,7.4-8l-2.7-68.8C382.2,268.3,378.5,265,374.2,265.2z"/>
</g>
<g>
	<g>
		<path class="st5" d="M384.4,307.7c0,0.2-41.9,2.1-93.5,4.1c-51.7,2-93.5,3.5-93.5,3.3s41.8-2.1,93.5-4.1
			C342.5,308.9,384.4,307.5,384.4,307.7z"/>
	</g>
</g>
<g>
	<g>
		<path class="st5" d="M383.9,273.3c0,0.2-41.9,2.1-93.5,4.1c-51.7,2-93.5,3.5-93.5,3.3s41.8-2.1,93.5-4.1
			C342,274.5,383.9,273.1,383.9,273.3z"/>
	</g>
</g>
<g>
	<g>
		<path class="st5" d="M386.5,339.3c0,0.2-41.9,2.1-93.5,4.1c-51.7,2-93.5,3.5-93.5,3.3s41.8-2.1,93.5-4.1
			C344.6,340.5,386.5,339,386.5,339.3z"/>
	</g>
</g>
<g>
	<g>
		<path class="st5" d="M269.5,289c0,0,0.5-0.1,1.5-0.1s2.4,0,4.3,0.1c0.9,0.1,2,0.2,3.1,0.4c0.6,0.1,1.2,0.2,1.7,0.4
			c0.6,0.2,1.2,0.6,1.4,1.3c0.5,1.3-0.6,2.9-2.1,3.3s-3.1,0.3-4.8,0.3c-3.3-0.1-7-0.8-10.7-2.1c-1.9-0.6-3.7-1.5-5.6-2.5
			c-0.9-0.5-1.8-1-2.7-1.7c-0.9-0.6-1.7-1.4-2.1-2.5c-0.5-1.1,0.1-2.4,1.1-3s2.1-0.9,3.3-1.1c2.3-0.4,4.6-0.7,7-0.7
			c4.8-0.1,9.8,0.6,14.7,2.1c4.9,1.6,9.4,3.9,13.1,6.9c0.9,0.8,1.7,1.7,2.2,2.8c0.5,1.1,0.4,2.4-0.1,3.5s-1.5,1.8-2.5,2.4
			s-2.1,1-3.1,1.2c-4.3,1.1-8.6,1.2-12.5,0.8c-3.9-0.4-7.5-1.2-10.7-2.2c-6.4-2-11.3-4.4-14.6-6c-3.4-1.6-5.2-2.6-5.2-2.6
			c0.9,0.4,2.3,1.1,5.2,2.5c3.4,1.6,8.3,4,14.6,6c3.2,1,6.8,1.8,10.7,2.2c3.9,0.4,8.2,0.2,12.4-0.9c2.1-0.6,4.4-1.5,5.5-3.5
			c0.5-1,0.6-2.3,0.1-3.3c-0.4-1.1-1.3-2-2.2-2.8c-3.8-3-8.3-5.3-13.1-6.9c-4.9-1.5-9.8-2.3-14.6-2.1c-2.4,0-4.8,0.3-7,0.7
			c-1.1,0.2-2.3,0.4-3.2,1c-1,0.6-1.5,1.8-1.1,2.8s1.2,1.8,2.1,2.4s1.8,1.1,2.7,1.6c1.8,1,3.7,1.8,5.6,2.5c3.7,1.3,7.3,1.9,10.7,2.1
			c1.7,0,3.3,0.2,4.7-0.3c1.4-0.4,2.5-1.9,2-3.2c-0.2-0.6-0.8-1-1.4-1.2s-1.2-0.3-1.7-0.4c-1.1-0.2-2.2-0.3-3.1-0.4
			c-1.9-0.2-3.3-0.2-4.3-0.2C270.3,289,269.8,289,269.5,289z"/>
	</g>
</g>
<g>
	<g>
		<path class="st5" d="M352.7,268.5c-4.6,0.2-33.7,1.6-73.7,3.4s-69.1,3.1-73.7,3.3c4.6-0.2,33.7-1.6,73.7-3.4
			C318.9,270,348.1,268.7,352.7,268.5z"/>
	</g>
</g>
<g>
	<rect x="558.8" y="79.1" class="st10" width="68.7" height="150.4"/>
</g>
<g>
	<rect x="558.8" y="224.9" class="st5" width="68.7" height="7.8"/>
</g>
<g>
	<rect x="555.8" y="67.3" class="st12" width="74" height="112.5"/>
</g>
<g>
	<g>
		<polygon class="st5" points="149.4,59.4 107.8,96.2 107.8,107 399.9,107 399.9,95.2 433,59.4 		"/>
		<polygon class="st12" points="131.7,107 131.7,95 172.3,59.4 197.3,59.4 160.5,96.2 160.5,107 		"/>
		<polygon class="st12" points="187.4,107 187.4,95 228,59.4 253,59.4 216.2,96.2 216.2,107 		"/>
		<polygon class="st12" points="243.1,107 243.1,95 283.7,59.4 308.7,59.4 271.9,96.2 271.9,107 		"/>
		<polygon class="st12" points="298.9,107 298.9,95 339.5,59.4 364.4,59.4 327.6,96.2 327.6,107 		"/>
	</g>
	<polygon class="st12" points="354.6,107 354.6,95 395.2,59.4 420.1,59.4 383.3,96.2 383.3,107 	"/>
</g>
<g>
	<path class="st1" d="M352,220.2c0,0-1.4-5.6,2.1-5.9c0,0,0.1-3.9,4.3-4c0,0,2.3-4.6,10.7-2.3c0,0,3.3-6.1,11.7-2.8
		c0,0,5.6-2.9,10.5,2.8c0,0,7.9-0.9,7.6,5.6c0,0,7.3,2.1,3.1,7.5c-4.1,5.3-44.5,2.1-44.5,2.1L352,220.2z"/>
	<g>
		<polygon class="st12" points="349.8,229.5 344,219.5 407.4,219.5 400.3,229.5 		"/>
	</g>
</g>
<g>
	<g>
		<path class="st13" d="M282,301.1c-2.3-2.8-4.6-5.6-6.8-8.3c-1.4-1.7-2.7-3.3-4.1-5s-3.3-1.7-5-0.3c-5.6,4.5-11,9.3-16.5,13.9
			c-2,1.7-3.9,3.3-5.9,5c-1.2,1-2.9,2.1-3.6,3.5c-0.6,1.3-0.4,3,0.9,3.8c1,0.6,2.3,0.4,3.4,0.3c0.7,0,1.4-0.4,1.5,0.4
			c0,0.5-0.3,1.3-0.4,1.8c-1.1,4.6-2.2,9.2-3.3,13.8c-0.4,1.7-1,3.7,0.9,4.8c1.1,0.6,2.9,0.3,4.1,0.2c4.8-0.3,9.7-0.6,14.5-0.9
			c3-0.2,6-0.2,8.9-0.5c1.8-0.2,3.1-1.5,3.6-3.1s-2.1-2.1-2.6-0.5c-0.4,1.1-1.4,1.1-2.3,1.1c-1.2,0.1-2.3,0.1-3.5,0.2
			c-1,0.1-2,0.1-3,0.2c-4.3,0.3-8.6,0.5-12.8,0.8c-1.7,0.1-3.4,0.4-5.1,0.3c-0.4,0-0.5,0.2-0.6-0.3c-0.1-0.3,0.2-1,0.3-1.3
			c1-4.3,2.1-8.5,3.1-12.8c0.3-1.1,0.6-2.2,0.8-3.3c0.3-1.5-0.5-3.1-2.1-3.4c-1-0.2-2.1,0-3.1,0.1c-0.1,0-0.8,0.1-0.9,0
			c-0.2-0.2,0.3-0.8,0.5-1c0.4-0.4,0.8-0.7,1.2-1c1.7-1.5,3.5-2.9,5.2-4.4c5.4-4.6,10.9-9.2,16.3-13.8c0.4-0.4,2.4-2.5,3.1-2.3
			c0.2,0.1,0.7,0.7,0.9,1c0.6,0.8,1.3,1.6,1.9,2.4c2.2,2.7,4.4,5.4,6.7,8.1c0.6,0.7,1.1,1.4,1.7,2.1
			C280.9,303.8,283.1,302.4,282,301.1L282,301.1z"/>
	</g>
	<g>
		<path class="st13" d="M275.4,303.4c-3.4,0.2-6.4,1.6-8.5,4c-2,2.4-3.1,5.5-2.9,8.8c0.4,7,5.9,11.9,13,11.4
			c4.4-0.3,8.1-2.5,9.9-5.9l0.5-1l-4-2.1l-0.5,1.1c-1,2.1-3.3,3.4-6.1,3.6c-3.8,0.2-6.8-1.7-7.9-5.1l18.9-1.1l-0.1-1.2
			c0-0.1,0-0.3,0-0.4c0-0.2,0-0.4,0-0.6C287.3,309,282.9,302.9,275.4,303.4z M268.6,313.8c0.6-3.5,3.3-5.9,7-6.1
			c2.9-0.2,6.1,1.4,7.2,5.3L268.6,313.8z"/>
		<path class="st13" d="M308.2,304.4c-2.2-1.8-5-2.7-8.1-2.5c-6.8,0.4-11.8,6.1-11.4,12.9s6,11.8,12.8,11.4c3.1-0.2,5.8-1.4,7.7-3.5
			l0.2,2.5l4.5-0.3l-1.4-23.4l-4.5,0.3L308.2,304.4z M301.5,321.8c-4.4,0.3-8-3-8.2-7.3c-0.3-4.4,2.9-8,7.3-8.3
			c4.3-0.3,7.9,3,8.2,7.3C309,318,305.9,321.6,301.5,321.8z"/>
		<path class="st13" d="M323.2,294.7l-4.4,1.6l0.3,5l-4.6,0.3l0.3,4.4l4.6-0.3l0.7,12.5c0.1,2.4,0.9,4.1,2.3,5.1
			c1.2,0.9,2.8,1.3,4.9,1.2c0.9-0.1,1.9-0.2,2.9-0.4l1-0.2l-0.2-4.2l-1.3,0.2c-2,0.3-3.9,0.5-4.5,0c-0.3-0.3-0.5-0.9-0.6-1.9
			l-0.7-12.5l6.3-0.4l-0.3-4.4l-6.3,0.4L323.2,294.7z"/>
		<path class="st13" d="M342.1,299.4c-6.9,0.4-11.9,6.1-11.5,12.9s6.1,11.8,13,11.4c6.8-0.4,11.9-6.1,11.5-12.9
			C354.6,304,348.9,299,342.1,299.4z M343.3,319.4c-4.4,0.3-8-3-8.2-7.3c-0.3-4.4,2.9-8,7.3-8.3c4.3-0.3,7.9,3,8.2,7.3
			S347.6,319.1,343.3,319.4z"/>
	</g>
	<g>
		<path class="st13" d="M220.8,317.6c5.8-0.3,11.7-0.7,17.5-1c1.9-0.1,1.7-3-0.2-2.9c-5.8,0.3-11.7,0.7-17.5,1
			C218.8,314.8,219,317.8,220.8,317.6L220.8,317.6z"/>
	</g>
	<g>
		<path class="st13" d="M228.9,327.1c3.4-0.2,6.8-0.4,10.2-0.6c1.9-0.1,1.7-3-0.2-2.9c-3.4,0.2-6.8,0.4-10.2,0.6
			C226.8,324.3,227,327.2,228.9,327.1L228.9,327.1z"/>
	</g>
</g>
<g>
	<g>
		<path class="st5" d="M384.5,326.1c-1-0.1-3.1-0.4-7.3-0.9c-4.7-0.5-11.5-1.4-19.9-2.1s-18.5-1-29.6-0.3
			c-11.1,0.6-23.3,2.5-35.8,5.4c-12.6,2.8-24.4,6-35.3,8.5s-20.8,4.2-29.2,4.9c-8.4,0.8-15.3,0.8-20,0.5c-2.4-0.2-4.2-0.3-5.4-0.5
			c-1-0.1-1.5-0.2-1.9-0.2c0.4,0,0.9,0.1,1.9,0.2c1.2,0.1,3.1,0.3,5.4,0.4c4.7,0.3,11.6,0.3,20-0.5s18.3-2.5,29.2-5
			c10.9-2.5,22.7-5.7,35.3-8.5c12.6-2.9,24.7-4.8,35.9-5.4c11.1-0.7,21.2-0.3,29.6,0.4c8.4,0.7,15.2,1.6,19.9,2.1
			C381.4,325.7,383.4,326,384.5,326.1z"/>
	</g>
</g>
<g>
	<g>
		<path class="st5" d="M389.1,322.9c-1-0.2-3.1-0.5-7.5-1.1c-4.8-0.7-11.8-1.8-20.4-2.8c-4.3-0.5-9.1-0.9-14.2-1.1
			c-5.1-0.1-10.6-0.2-16.3,0.1c-11.5,0.5-24,1.9-37.1,3.9s-25.5,4.2-36.9,6c-11.4,1.7-21.6,2.9-30.3,3.6c-8.7,0.5-15.7,0.6-20.6,0.4
			c-4.4-0.2-6.5-0.3-7.5-0.4c1,0,3.2,0.1,7.5,0.3c4.9,0.1,11.9,0.1,20.6-0.5s18.9-1.8,30.3-3.6c11.3-1.8,23.8-3.9,36.9-6
			c13.1-2,25.7-3.5,37.2-3.9c5.7-0.3,11.2-0.2,16.3,0c5.1,0.2,9.9,0.6,14.2,1.1c8.6,0.9,15.6,2.1,20.4,2.8
			C386,322.4,388.1,322.7,389.1,322.9z"/>
	</g>
</g>
<g>
	<g>
		<path class="st5" d="M336.6,336.4c0,0,1.1-0.1,3.1,0s5,0.6,8.4,2.1l0.1,0.1h-0.1c-5.9,1.3-14,2.6-23.5,2.9
			c-4.8,0.2-9.9,0-15.2-0.4c-0.7-0.1-1.4-0.2-2-0.4c-0.6-0.3-1.2-0.7-1.5-1.4c-0.6-1.3,0-2.9,1-3.9s2.4-1.5,3.8-1.9s2.8-0.8,4.2-1.1
			c4.5-1.1,9-1.9,13.4-2.4c4.4-0.4,8.6-0.6,12.7-0.5c8.1,0.2,15.3,1.4,21.3,2.8c5.9,1.4,10.6,3.1,13.8,4.4c3.2,1.3,4.9,2.1,4.9,2.1
			c-0.3-0.1-0.7-0.3-1.3-0.5c-0.8-0.3-2-0.9-3.6-1.5c-3.2-1.3-7.8-2.9-13.8-4.3c-5.9-1.4-13.2-2.6-21.2-2.7c-4-0.1-8.3,0.1-12.7,0.5
			c-4.4,0.5-8.9,1.3-13.4,2.4c-1.4,0.4-2.8,0.8-4.2,1.1c-1.4,0.4-2.7,0.9-3.7,1.8s-1.5,2.5-1,3.7c0.6,1.3,2.1,1.6,3.4,1.7
			c5.3,0.5,10.4,0.6,15.2,0.4c9.5-0.3,17.6-1.6,23.5-2.8v0.1c-3.4-1.5-6.4-2-8.4-2.1c-1-0.1-1.8-0.1-2.3-0.1
			C337.1,336.4,336.8,336.4,336.6,336.4z"/>
	</g>
</g>
<g>
	<g>
		<path class="st5" d="M382.7,300.7c-0.4-0.2-0.8-0.5-1.7-0.9c-1.1-0.7-2.8-1.5-5.1-2.4c-2.3-0.9-5.1-1.8-8.5-2.5s-7.3-1.1-11.6-1.2
			c-8.7-0.1-19,1.4-30.1,4.4c-11.1,2.9-23.1,7-36.3,9.1c-13.1,2.3-26,0.7-37.1-1.9c-11.2-2.6-21.1-5.7-29.6-7.6
			c-8.5-2-15.4-3-20.3-3.3c-2.4-0.2-4.3-0.2-5.6-0.2c-1,0-1.5,0-2,0c0.4,0,0.9,0,2,0c1.3,0,3.2-0.1,5.6,0.1
			c4.9,0.2,11.9,1.2,20.3,3.2c8.5,1.9,18.4,5,29.6,7.6s23.9,4.2,37.1,1.9c13.1-2.1,25.1-6.2,36.2-9.1c11.1-3,21.4-4.5,30.1-4.4
			c4.4,0.1,8.3,0.5,11.7,1.2c3.4,0.7,6.2,1.6,8.5,2.5c2.2,0.9,4,1.8,5,2.4C381.9,300.2,382.4,300.5,382.7,300.7z"/>
	</g>
</g>
<g>
	<g>
		<path class="st5" d="M197,284.1c2.2-0.2,11.1-0.8,27.5-1.9c8.5-0.6,18.6-1.2,29.9-2c5.6-0.3,11.6-0.6,17.7-0.1
			c6.1,0.4,12.3,2,18.5,3.9s12.2,4,18.2,5.3s11.9,1.8,17.5,1.8c11.3,0,21.3-1.9,29.6-3.7c8.3-1.9,14.9-3.9,19.5-5.2
			c4.1-1.2,6.1-1.8,7.1-2.1c-1,0.3-3,0.9-7.1,2.2c-4.6,1.3-11.2,3.3-19.5,5.2c-8.3,1.9-18.4,3.8-29.7,3.8c-5.6,0-11.6-0.5-17.6-1.8
			s-12-3.3-18.2-5.3c-6.2-1.9-12.4-3.5-18.5-3.9c-6.1-0.5-12-0.2-17.7,0.1c-11.2,0.7-21.4,1.4-29.9,1.9
			C208.1,283.4,199.2,284,197,284.1z"/>
	</g>
</g>
<g>
	<g>
		<path class="st5" d="M387.8,273.4c-0.8,0-1.8,0-3.5-0.1c-2.3,0-5.5,0-9.6,0.4c-4,0.4-8.8,1.1-14.1,2.1c-5.3,1-11,2.1-17.1,3.3
			c-6.1,1.1-11.9,1.9-17.3,2.2c-5.4,0.3-10.2,0.1-14.2-0.4s-7.2-1.4-9.4-2.1c-2.2-0.7-3.3-1.2-3.3-1.2s0.3,0.1,0.9,0.3
			c0.6,0.2,1.4,0.5,2.5,0.8c2.2,0.7,5.3,1.5,9.4,2c4,0.5,8.9,0.7,14.2,0.4c5.3-0.3,11.2-1.1,17.3-2.2c6.1-1.2,11.8-2.3,17.1-3.3
			c5.3-1,10.1-1.7,14.1-2c4-0.4,7.3-0.4,9.6-0.4C386.6,273.3,387.8,273.4,387.8,273.4z"/>
	</g>
</g>
<g>
	<g>
		<path class="st5" d="M314.9,352.8c0,0-6.2,0.4-16.3,0c-10.1-0.3-23.9-1.7-39.2-2.6c-7.7-0.4-15-0.5-21.6-0.1
			c-6.6,0.3-12.6,1.1-17.5,2s-8.9,2-11.5,2.9c-1.3,0.4-2.4,0.8-3.1,1c-0.5,0.2-0.8,0.3-1.1,0.4c0,0,1.4-0.6,4.1-1.5
			c2.7-0.9,6.6-2,11.5-3s10.9-1.7,17.5-2s14-0.3,21.6,0.1c15.3,0.9,29.1,2.3,39.2,2.6c5,0.2,9.1,0.2,11.9,0.2
			C312.8,352.9,314,352.9,314.9,352.8z"/>
	</g>
</g>
</svg>
